%TF.GenerationSoftware,KiCad,Pcbnew,(5.1.8)-1*%
%TF.CreationDate,2021-09-15T23:56:30-04:00*%
%TF.ProjectId,PiRaceHat,50695261-6365-4486-9174-2e6b69636164,rev?*%
%TF.SameCoordinates,Original*%
%TF.FileFunction,Copper,L1,Top*%
%TF.FilePolarity,Positive*%
%FSLAX46Y46*%
G04 Gerber Fmt 4.6, Leading zero omitted, Abs format (unit mm)*
G04 Created by KiCad (PCBNEW (5.1.8)-1) date 2021-09-15 23:56:30*
%MOMM*%
%LPD*%
G01*
G04 APERTURE LIST*
%TA.AperFunction,ComponentPad*%
%ADD10R,1.700000X1.700000*%
%TD*%
%TA.AperFunction,ComponentPad*%
%ADD11O,1.700000X1.700000*%
%TD*%
%TA.AperFunction,ComponentPad*%
%ADD12C,3.000000*%
%TD*%
%TA.AperFunction,ComponentPad*%
%ADD13R,3.000000X3.000000*%
%TD*%
%TA.AperFunction,ComponentPad*%
%ADD14R,1.500000X1.050000*%
%TD*%
%TA.AperFunction,ComponentPad*%
%ADD15O,1.500000X1.050000*%
%TD*%
%TA.AperFunction,ComponentPad*%
%ADD16R,1.905000X2.000000*%
%TD*%
%TA.AperFunction,ComponentPad*%
%ADD17O,1.905000X2.000000*%
%TD*%
%TA.AperFunction,ComponentPad*%
%ADD18R,1.574800X1.574800*%
%TD*%
%TA.AperFunction,ComponentPad*%
%ADD19C,1.574800*%
%TD*%
%TA.AperFunction,ComponentPad*%
%ADD20R,1.600000X1.600000*%
%TD*%
%TA.AperFunction,ComponentPad*%
%ADD21C,1.600000*%
%TD*%
%TA.AperFunction,ComponentPad*%
%ADD22O,1.600000X1.600000*%
%TD*%
%TA.AperFunction,ViaPad*%
%ADD23C,0.600000*%
%TD*%
%TA.AperFunction,Conductor*%
%ADD24C,1.000000*%
%TD*%
%TA.AperFunction,Conductor*%
%ADD25C,0.250000*%
%TD*%
%TA.AperFunction,Conductor*%
%ADD26C,0.254000*%
%TD*%
%TA.AperFunction,Conductor*%
%ADD27C,0.100000*%
%TD*%
G04 APERTURE END LIST*
D10*
%TO.P,J3,1*%
%TO.N,Net-(J3-Pad1)*%
X56550000Y-78730000D03*
D11*
%TO.P,J3,2*%
%TO.N,VDD*%
X54010000Y-78730000D03*
%TO.P,J3,3*%
%TO.N,GND*%
X51470000Y-78730000D03*
%TO.P,J3,4*%
X48930000Y-78730000D03*
%TO.P,J3,5*%
%TO.N,VBUS*%
X46390000Y-78730000D03*
%TD*%
D10*
%TO.P,J2,1*%
%TO.N,GND*%
X38610000Y-73050000D03*
D11*
%TO.P,J2,2*%
%TO.N,+3V3*%
X41150000Y-73050000D03*
%TO.P,J2,3*%
%TO.N,PI_SDA*%
X43690000Y-73050000D03*
%TO.P,J2,4*%
%TO.N,PI_SCL*%
X46230000Y-73050000D03*
%TO.P,J2,5*%
%TO.N,Net-(J2-Pad5)*%
X48770000Y-73050000D03*
%TO.P,J2,6*%
%TO.N,Net-(J2-Pad6)*%
X51310000Y-73050000D03*
%TD*%
D12*
%TO.P,J7,2*%
%TO.N,GND*%
X91580000Y-70670000D03*
D13*
%TO.P,J7,1*%
%TO.N,VDD*%
X91580000Y-65590000D03*
%TD*%
D12*
%TO.P,J8,2*%
%TO.N,GND*%
X91570000Y-45410000D03*
D13*
%TO.P,J8,1*%
%TO.N,VDD*%
X91570000Y-50490000D03*
%TD*%
D12*
%TO.P,J9,2*%
%TO.N,GND*%
X85230000Y-70670000D03*
D13*
%TO.P,J9,1*%
%TO.N,VDD*%
X85230000Y-65590000D03*
%TD*%
D10*
%TO.P,J1,1*%
%TO.N,Net-(J1-Pad1)*%
X87030000Y-81270000D03*
D11*
%TO.P,J1,2*%
%TO.N,VBUS*%
X87030000Y-83810000D03*
%TO.P,J1,3*%
%TO.N,PI_SDA*%
X84490000Y-81270000D03*
%TO.P,J1,4*%
%TO.N,VBUS*%
X84490000Y-83810000D03*
%TO.P,J1,5*%
%TO.N,PI_SCL*%
X81950000Y-81270000D03*
%TO.P,J1,6*%
%TO.N,GND*%
X81950000Y-83810000D03*
%TO.P,J1,7*%
%TO.N,Net-(J1-Pad7)*%
X79410000Y-81270000D03*
%TO.P,J1,8*%
%TO.N,TX*%
X79410000Y-83810000D03*
%TO.P,J1,9*%
%TO.N,GND*%
X76870000Y-81270000D03*
%TO.P,J1,10*%
%TO.N,RX*%
X76870000Y-83810000D03*
%TO.P,J1,11*%
%TO.N,Net-(J1-Pad11)*%
X74330000Y-81270000D03*
%TO.P,J1,12*%
%TO.N,Net-(J1-Pad12)*%
X74330000Y-83810000D03*
%TO.P,J1,13*%
%TO.N,Net-(J1-Pad13)*%
X71790000Y-81270000D03*
%TO.P,J1,14*%
%TO.N,GND*%
X71790000Y-83810000D03*
%TO.P,J1,15*%
%TO.N,Net-(J1-Pad15)*%
X69250000Y-81270000D03*
%TO.P,J1,16*%
%TO.N,Net-(J1-Pad16)*%
X69250000Y-83810000D03*
%TO.P,J1,17*%
%TO.N,+3V3*%
X66710000Y-81270000D03*
%TO.P,J1,18*%
%TO.N,Net-(J1-Pad18)*%
X66710000Y-83810000D03*
%TO.P,J1,19*%
%TO.N,Net-(J1-Pad19)*%
X64170000Y-81270000D03*
%TO.P,J1,20*%
%TO.N,GND*%
X64170000Y-83810000D03*
%TO.P,J1,21*%
%TO.N,Net-(J1-Pad21)*%
X61630000Y-81270000D03*
%TO.P,J1,22*%
%TO.N,Net-(J1-Pad22)*%
X61630000Y-83810000D03*
%TO.P,J1,23*%
%TO.N,Net-(J1-Pad23)*%
X59090000Y-81270000D03*
%TO.P,J1,24*%
%TO.N,Net-(J1-Pad24)*%
X59090000Y-83810000D03*
%TO.P,J1,25*%
%TO.N,GND*%
X56550000Y-81270000D03*
%TO.P,J1,26*%
%TO.N,Net-(J1-Pad26)*%
X56550000Y-83810000D03*
%TO.P,J1,27*%
%TO.N,Net-(J1-Pad27)*%
X54010000Y-81270000D03*
%TO.P,J1,28*%
%TO.N,Net-(J1-Pad28)*%
X54010000Y-83810000D03*
%TO.P,J1,29*%
%TO.N,Net-(J1-Pad29)*%
X51470000Y-81270000D03*
%TO.P,J1,30*%
%TO.N,GND*%
X51470000Y-83810000D03*
%TO.P,J1,31*%
%TO.N,Net-(J1-Pad31)*%
X48930000Y-81270000D03*
%TO.P,J1,32*%
%TO.N,Net-(J1-Pad32)*%
X48930000Y-83810000D03*
%TO.P,J1,33*%
%TO.N,Net-(J1-Pad33)*%
X46390000Y-81270000D03*
%TO.P,J1,34*%
%TO.N,GND*%
X46390000Y-83810000D03*
%TO.P,J1,35*%
%TO.N,Net-(J1-Pad35)*%
X43850000Y-81270000D03*
%TO.P,J1,36*%
%TO.N,Net-(J1-Pad36)*%
X43850000Y-83810000D03*
%TO.P,J1,37*%
%TO.N,Net-(J1-Pad37)*%
X41310000Y-81270000D03*
%TO.P,J1,38*%
%TO.N,Net-(J1-Pad38)*%
X41310000Y-83810000D03*
%TO.P,J1,39*%
%TO.N,GND*%
X38770000Y-81270000D03*
%TO.P,J1,40*%
%TO.N,Net-(J1-Pad40)*%
X38770000Y-83810000D03*
%TD*%
D10*
%TO.P,J4,1*%
%TO.N,GND*%
X76750000Y-72660000D03*
D11*
%TO.P,J4,2*%
%TO.N,+5V*%
X76750000Y-75200000D03*
%TO.P,J4,3*%
%TO.N,ESC_PWM*%
X76750000Y-77740000D03*
%TD*%
D10*
%TO.P,J5,1*%
%TO.N,GND*%
X69540000Y-72660000D03*
D11*
%TO.P,J5,2*%
%TO.N,+5V*%
X69540000Y-75200000D03*
%TO.P,J5,3*%
%TO.N,SERVO1_PWM*%
X69540000Y-77740000D03*
%TD*%
%TO.P,J6,3*%
%TO.N,SERVO2_PWM*%
X73140000Y-77740000D03*
%TO.P,J6,2*%
%TO.N,+5V*%
X73140000Y-75200000D03*
D10*
%TO.P,J6,1*%
%TO.N,GND*%
X73140000Y-72660000D03*
%TD*%
%TO.P,J10,1*%
%TO.N,GND*%
X62340000Y-77710000D03*
D11*
%TO.P,J10,2*%
%TO.N,VBUS*%
X62340000Y-75170000D03*
%TO.P,J10,3*%
%TO.N,SCL*%
X62340000Y-72630000D03*
%TO.P,J10,4*%
%TO.N,SDA*%
X62340000Y-70090000D03*
%TD*%
%TO.P,J11,4*%
%TO.N,SDA*%
X65940000Y-70090000D03*
%TO.P,J11,3*%
%TO.N,SCL*%
X65940000Y-72630000D03*
%TO.P,J11,2*%
%TO.N,VBUS*%
X65940000Y-75170000D03*
D10*
%TO.P,J11,1*%
%TO.N,GND*%
X65940000Y-77710000D03*
%TD*%
%TO.P,J12,1*%
%TO.N,Net-(J12-Pad1)*%
X91900000Y-40900000D03*
D11*
%TO.P,J12,2*%
%TO.N,VBUS*%
X91900000Y-38360000D03*
%TD*%
%TO.P,J13,2*%
%TO.N,VDD*%
X93790000Y-75040000D03*
D10*
%TO.P,J13,1*%
%TO.N,Net-(J13-Pad1)*%
X93790000Y-77580000D03*
%TD*%
D14*
%TO.P,Q1,1*%
%TO.N,TX*%
X53030000Y-34210000D03*
D15*
%TO.P,Q1,3*%
%TO.N,Net-(Q1-Pad3)*%
X53030000Y-36750000D03*
%TO.P,Q1,2*%
%TO.N,+3V3*%
X53030000Y-35480000D03*
%TD*%
%TO.P,Q2,2*%
%TO.N,+3V3*%
X53030000Y-40940000D03*
%TO.P,Q2,3*%
%TO.N,Net-(Q2-Pad3)*%
X53030000Y-42210000D03*
D14*
%TO.P,Q2,1*%
%TO.N,RX*%
X53030000Y-39670000D03*
%TD*%
D15*
%TO.P,Q3,2*%
%TO.N,GPIO_LED*%
X82860000Y-39290000D03*
%TO.P,Q3,3*%
%TO.N,Net-(J12-Pad1)*%
X82860000Y-40560000D03*
D14*
%TO.P,Q3,1*%
%TO.N,GND*%
X82860000Y-38020000D03*
%TD*%
D16*
%TO.P,Q4,1*%
%TO.N,Net-(Q4-Pad1)*%
X84200000Y-76630000D03*
D17*
%TO.P,Q4,2*%
%TO.N,Net-(J13-Pad1)*%
X86740000Y-76630000D03*
%TO.P,Q4,3*%
%TO.N,GND*%
X89280000Y-76630000D03*
%TD*%
D18*
%TO.P,U1,1*%
%TO.N,Net-(U1-Pad1)*%
X42580000Y-46630000D03*
D19*
%TO.P,U1,2*%
%TO.N,Net-(U1-Pad2)*%
X45120000Y-46630000D03*
%TO.P,U1,3*%
%TO.N,Net-(Q2-Pad3)*%
X47660000Y-46630000D03*
%TO.P,U1,4*%
%TO.N,Net-(Q1-Pad3)*%
X50200000Y-46630000D03*
%TO.P,U1,5*%
%TO.N,Net-(U1-Pad30)*%
X52740000Y-46630000D03*
%TO.P,U1,6*%
%TO.N,GND*%
X55280000Y-46630000D03*
%TO.P,U1,7*%
%TO.N,SDA*%
X57820000Y-46630000D03*
%TO.P,U1,8*%
%TO.N,SCL*%
X60360000Y-46630000D03*
%TO.P,U1,9*%
%TO.N,Net-(U1-Pad9)*%
X62900000Y-46630000D03*
%TO.P,U1,10*%
%TO.N,Net-(U1-Pad10)*%
X65440000Y-46630000D03*
%TO.P,U1,11*%
%TO.N,Net-(U1-Pad11)*%
X67980000Y-46630000D03*
%TO.P,U1,12*%
%TO.N,Net-(U1-Pad12)*%
X70520000Y-46630000D03*
%TO.P,U1,13*%
%TO.N,Net-(U1-Pad13)*%
X73060000Y-46630000D03*
%TO.P,U1,14*%
%TO.N,SERVO1_PWM*%
X75600000Y-46630000D03*
%TO.P,U1,15*%
%TO.N,SERVO2_PWM*%
X78140000Y-46630000D03*
%TO.P,U1,16*%
%TO.N,ESC_PWM*%
X80680000Y-46630000D03*
%TO.P,U1,17*%
%TO.N,GPIO_ROCKET*%
X83220000Y-46630000D03*
%TO.P,U1,18*%
%TO.N,GPIO_LED*%
X83220000Y-31390000D03*
%TO.P,U1,19*%
%TO.N,Net-(U1-Pad19)*%
X80680000Y-31390000D03*
%TO.P,U1,20*%
%TO.N,Net-(U1-Pad20)*%
X78140000Y-31390000D03*
%TO.P,U1,21*%
%TO.N,Net-(U1-Pad21)*%
X75600000Y-31390000D03*
%TO.P,U1,22*%
%TO.N,Net-(U1-Pad22)*%
X73060000Y-31390000D03*
%TO.P,U1,23*%
%TO.N,Net-(U1-Pad23)*%
X70520000Y-31390000D03*
%TO.P,U1,24*%
%TO.N,Net-(U1-Pad24)*%
X67980000Y-31390000D03*
%TO.P,U1,25*%
%TO.N,Net-(U1-Pad25)*%
X65440000Y-31390000D03*
%TO.P,U1,26*%
%TO.N,Net-(U1-Pad26)*%
X62900000Y-31390000D03*
%TO.P,U1,27*%
%TO.N,N/C*%
X60360000Y-31390000D03*
%TO.P,U1,28*%
X57820000Y-31390000D03*
%TO.P,U1,29*%
%TO.N,VBUS*%
X55280000Y-31390000D03*
%TO.P,U1,30*%
%TO.N,Net-(U1-Pad30)*%
X52740000Y-31390000D03*
%TO.P,U1,31*%
%TO.N,GND*%
X50200000Y-31390000D03*
%TO.P,U1,32*%
%TO.N,Net-(U1-Pad32)*%
X47660000Y-31390000D03*
%TO.P,U1,33*%
%TO.N,Net-(U1-Pad33)*%
X45120000Y-31390000D03*
%TO.P,U1,34*%
%TO.N,Net-(U1-Pad34)*%
X42580000Y-31390000D03*
%TD*%
D20*
%TO.P,C1,1*%
%TO.N,VBUS*%
X42880000Y-78300000D03*
D21*
%TO.P,C1,2*%
%TO.N,GND*%
X40880000Y-78300000D03*
%TD*%
%TO.P,C2,2*%
%TO.N,GND*%
X34270000Y-39960000D03*
D20*
%TO.P,C2,1*%
%TO.N,VBUS*%
X36270000Y-39960000D03*
%TD*%
D22*
%TO.P,R1,2*%
%TO.N,TX*%
X60260000Y-42420000D03*
D21*
%TO.P,R1,1*%
%TO.N,+3V3*%
X60260000Y-34800000D03*
%TD*%
%TO.P,R2,1*%
%TO.N,+3V3*%
X57260000Y-34800000D03*
D22*
%TO.P,R2,2*%
%TO.N,RX*%
X57260000Y-42420000D03*
%TD*%
D21*
%TO.P,R3,1*%
%TO.N,VBUS*%
X66260000Y-34800000D03*
D22*
%TO.P,R3,2*%
%TO.N,Net-(Q1-Pad3)*%
X66260000Y-42420000D03*
%TD*%
%TO.P,R4,2*%
%TO.N,Net-(Q2-Pad3)*%
X63260000Y-42420000D03*
D21*
%TO.P,R4,1*%
%TO.N,VBUS*%
X63260000Y-34800000D03*
%TD*%
%TO.P,R5,1*%
%TO.N,GND*%
X70430000Y-37800000D03*
D22*
%TO.P,R5,2*%
%TO.N,GPIO_ROCKET*%
X78050000Y-37800000D03*
%TD*%
%TO.P,R6,2*%
%TO.N,GPIO_ROCKET*%
X78050000Y-40800000D03*
D21*
%TO.P,R6,1*%
%TO.N,Net-(Q4-Pad1)*%
X70430000Y-40800000D03*
%TD*%
D23*
%TO.N,VBUS*%
X50180000Y-79980000D03*
%TO.N,TX*%
X58270000Y-73165000D03*
%TO.N,RX*%
X57370000Y-73165000D03*
%TO.N,ESC_PWM*%
X55915550Y-70178664D03*
%TO.N,Net-(Q4-Pad1)*%
X59190000Y-73165000D03*
X54324130Y-49750834D03*
%TD*%
D24*
%TO.N,VBUS*%
X45960000Y-78300000D02*
X46390000Y-78730000D01*
X42880000Y-78300000D02*
X45960000Y-78300000D01*
D25*
X87030000Y-83810000D02*
X84490000Y-83810000D01*
X83314999Y-84985001D02*
X42965001Y-84985001D01*
X84490000Y-83810000D02*
X83314999Y-84985001D01*
X42485001Y-78694999D02*
X42880000Y-78300000D01*
X42485001Y-84505001D02*
X42485001Y-78694999D01*
X42965001Y-84985001D02*
X42485001Y-84505001D01*
X62340000Y-75170000D02*
X65940000Y-75170000D01*
X62340000Y-74670000D02*
X62340000Y-75170000D01*
X60210000Y-72540000D02*
X62340000Y-74670000D01*
X55299999Y-73240001D02*
X56000000Y-72540000D01*
X56000000Y-72540000D02*
X60210000Y-72540000D01*
X55300000Y-79640000D02*
X55299999Y-73240001D01*
X54960000Y-79980000D02*
X55300000Y-79640000D01*
X50180000Y-79980000D02*
X54960000Y-79980000D01*
X36270000Y-39960000D02*
X36270000Y-66460000D01*
X39974999Y-75394999D02*
X42880000Y-78300000D01*
X39974999Y-70164999D02*
X39974999Y-75394999D01*
X36270000Y-66460000D02*
X39974999Y-70164999D01*
D24*
%TO.N,GND*%
X69540000Y-72660000D02*
X76750000Y-72660000D01*
D25*
%TO.N,+3V3*%
X65534999Y-82445001D02*
X66710000Y-81270000D01*
X48365999Y-82445001D02*
X65534999Y-82445001D01*
X47754999Y-81834001D02*
X48365999Y-82445001D01*
X47754999Y-78355997D02*
X44009002Y-74610000D01*
X47754999Y-81834001D02*
X47754999Y-78355997D01*
X42710000Y-74610000D02*
X41150000Y-73050000D01*
X44009002Y-74610000D02*
X42710000Y-74610000D01*
X41150000Y-70703590D02*
X41150000Y-73050000D01*
X36720010Y-66273600D02*
X41150000Y-70703590D01*
X36720010Y-43149990D02*
X36720010Y-66273600D01*
X38930000Y-40940000D02*
X36720010Y-43149990D01*
X53030000Y-40940000D02*
X38930000Y-40940000D01*
X53030000Y-35480000D02*
X52220000Y-35480000D01*
X52220000Y-35480000D02*
X51670000Y-36030000D01*
X52030000Y-40940000D02*
X53030000Y-40940000D01*
X51670000Y-40580000D02*
X52030000Y-40940000D01*
X51670000Y-36030000D02*
X51670000Y-40580000D01*
%TO.N,TX*%
X78234999Y-82634999D02*
X79410000Y-83810000D01*
X76331409Y-82634999D02*
X78234999Y-82634999D01*
X75610000Y-81913590D02*
X76331409Y-82634999D01*
X75610000Y-80810998D02*
X75610000Y-81913590D01*
X58958579Y-79644989D02*
X74443991Y-79644989D01*
X58260011Y-78946421D02*
X58958579Y-79644989D01*
X58260010Y-73174990D02*
X58260011Y-78946421D01*
X74443991Y-79644989D02*
X75610000Y-80810998D01*
X58270000Y-73165000D02*
X58260010Y-73174990D01*
%TO.N,RX*%
X67885001Y-81644003D02*
X67885001Y-80705999D01*
X76870000Y-83810000D02*
X75694999Y-82634999D01*
X75694999Y-82634999D02*
X68875997Y-82634999D01*
X68875997Y-82634999D02*
X67885001Y-81644003D01*
X67885001Y-80705999D02*
X67274001Y-80094999D01*
X67274001Y-80094999D02*
X62505001Y-80094999D01*
X62505001Y-80094999D02*
X60805001Y-80094999D01*
X60295001Y-80094999D02*
X62505001Y-80094999D01*
X58772179Y-80094999D02*
X60295001Y-80094999D01*
X57810000Y-79132820D02*
X58772179Y-80094999D01*
X57810000Y-73605000D02*
X57810000Y-79132820D01*
X57370000Y-73165000D02*
X57810000Y-73605000D01*
D24*
%TO.N,VDD*%
X91580000Y-65590000D02*
X91620000Y-65590000D01*
X91620000Y-65590000D02*
X94350000Y-68320000D01*
X94350000Y-74480000D02*
X93790000Y-75040000D01*
X94350000Y-68320000D02*
X94350000Y-74480000D01*
X85230000Y-65590000D02*
X59090000Y-65590000D01*
X54010000Y-70670000D02*
X59090000Y-65590000D01*
X54010000Y-78730000D02*
X54010000Y-70670000D01*
%TO.N,+5V*%
X69540000Y-75200000D02*
X76750000Y-75200000D01*
D25*
%TO.N,ESC_PWM*%
X57001887Y-71265001D02*
X66665001Y-71265001D01*
X55915550Y-70178664D02*
X57001887Y-71265001D01*
X67115001Y-71715001D02*
X67115001Y-75935001D01*
X66665001Y-71265001D02*
X67115001Y-71715001D01*
X75574999Y-76564999D02*
X76750000Y-77740000D01*
X67744999Y-76564999D02*
X75574999Y-76564999D01*
X67115001Y-75935001D02*
X67744999Y-76564999D01*
D24*
%TO.N,Net-(J13-Pad1)*%
X86740000Y-76630000D02*
X86740000Y-76640000D01*
X86740000Y-76640000D02*
X88530000Y-78430000D01*
X92940000Y-78430000D02*
X93790000Y-77580000D01*
X88530000Y-78430000D02*
X92940000Y-78430000D01*
D25*
%TO.N,Net-(Q1-Pad3)*%
X50200000Y-46630000D02*
X51660000Y-45170000D01*
X63510000Y-45170000D02*
X66260000Y-42420000D01*
X51660000Y-45170000D02*
X63510000Y-45170000D01*
X53030000Y-36750000D02*
X64160000Y-36750000D01*
X66260000Y-38850000D02*
X66260000Y-42420000D01*
X64160000Y-36750000D02*
X66260000Y-38850000D01*
%TO.N,Net-(Q2-Pad3)*%
X47660000Y-46630000D02*
X49570010Y-44719990D01*
X60960010Y-44719990D02*
X63260000Y-42420000D01*
X49570010Y-44719990D02*
X60960010Y-44719990D01*
X53030000Y-42210000D02*
X54250000Y-42210000D01*
X54250000Y-42210000D02*
X56200000Y-40260000D01*
X61100000Y-40260000D02*
X63260000Y-42420000D01*
X56200000Y-40260000D02*
X61100000Y-40260000D01*
%TO.N,GPIO_LED*%
X82860000Y-39290000D02*
X84090000Y-39290000D01*
X84090000Y-39290000D02*
X84640000Y-38740000D01*
X84640000Y-32810000D02*
X83220000Y-31390000D01*
X84640000Y-38740000D02*
X84640000Y-32810000D01*
%TO.N,Net-(Q4-Pad1)*%
X84200000Y-76630000D02*
X83300000Y-76630000D01*
X83300000Y-76630000D02*
X80735021Y-79194979D01*
X80735021Y-79194979D02*
X61067749Y-79194979D01*
X59144979Y-79194979D02*
X58710020Y-78760020D01*
X61067749Y-79194979D02*
X59144979Y-79194979D01*
X58710020Y-73644980D02*
X59190000Y-73165000D01*
X58710020Y-78760020D02*
X58710020Y-73644980D01*
X70430000Y-40800000D02*
X70430000Y-44240000D01*
X70430000Y-44240000D02*
X69270000Y-45400000D01*
X68513953Y-47742401D02*
X58353953Y-47742401D01*
X69270000Y-46986354D02*
X68513953Y-47742401D01*
X69270000Y-45400000D02*
X69270000Y-46986354D01*
X56332563Y-47742401D02*
X54324130Y-49750834D01*
X58353953Y-47742401D02*
X56332563Y-47742401D01*
%TD*%
D26*
%TO.N,VDD*%
X89843000Y-50306250D02*
X89899750Y-50363000D01*
X91443000Y-50363000D01*
X91443000Y-50343000D01*
X91697000Y-50343000D01*
X91697000Y-50363000D01*
X93240250Y-50363000D01*
X93297000Y-50306250D01*
X93297992Y-49117000D01*
X95123000Y-49117000D01*
X95123000Y-52026453D01*
X95107927Y-52180175D01*
X95067217Y-52315010D01*
X95001096Y-52439367D01*
X94912077Y-52548514D01*
X94803554Y-52638293D01*
X94679659Y-52705282D01*
X94545110Y-52746932D01*
X94392240Y-52763000D01*
X62386394Y-52763000D01*
X62374135Y-52764207D01*
X62367913Y-52764164D01*
X62364064Y-52764542D01*
X62169967Y-52784943D01*
X62145385Y-52789989D01*
X62120714Y-52794695D01*
X62117013Y-52795812D01*
X62117007Y-52795814D01*
X61930573Y-52853525D01*
X61907424Y-52863256D01*
X61884152Y-52872658D01*
X61880736Y-52874474D01*
X61709060Y-52967299D01*
X61688228Y-52981350D01*
X61667237Y-52995086D01*
X61664240Y-52997530D01*
X61513862Y-53121934D01*
X61496173Y-53139747D01*
X61478235Y-53157313D01*
X61475769Y-53160294D01*
X61352419Y-53311536D01*
X61338516Y-53332461D01*
X61324342Y-53353162D01*
X61322507Y-53356556D01*
X61322502Y-53356564D01*
X61322499Y-53356572D01*
X61230877Y-53528887D01*
X61221307Y-53552105D01*
X61211420Y-53575173D01*
X61210280Y-53578858D01*
X61210276Y-53578868D01*
X61210274Y-53578878D01*
X61153867Y-53765704D01*
X61148992Y-53790328D01*
X61143771Y-53814889D01*
X61143367Y-53818736D01*
X61124322Y-54012969D01*
X61124322Y-54012981D01*
X61123001Y-54026394D01*
X61123000Y-62053605D01*
X61124207Y-62065864D01*
X61124164Y-62072087D01*
X61124542Y-62075936D01*
X61144942Y-62270033D01*
X61149996Y-62294652D01*
X61154695Y-62319286D01*
X61155813Y-62322989D01*
X61213525Y-62509427D01*
X61223256Y-62532576D01*
X61232658Y-62555848D01*
X61234472Y-62559259D01*
X61234474Y-62559264D01*
X61234477Y-62559268D01*
X61327299Y-62730940D01*
X61341328Y-62751740D01*
X61355085Y-62772762D01*
X61357530Y-62775760D01*
X61481934Y-62926138D01*
X61499747Y-62943827D01*
X61517313Y-62961765D01*
X61520294Y-62964231D01*
X61671536Y-63087581D01*
X61692477Y-63101494D01*
X61713162Y-63115658D01*
X61716560Y-63117495D01*
X61716564Y-63117498D01*
X61716568Y-63117500D01*
X61888887Y-63209123D01*
X61912093Y-63218688D01*
X61935173Y-63228580D01*
X61938868Y-63229724D01*
X62125705Y-63286133D01*
X62150345Y-63291012D01*
X62174888Y-63296229D01*
X62178726Y-63296632D01*
X62178736Y-63296634D01*
X62178745Y-63296634D01*
X62372969Y-63315678D01*
X62372971Y-63315678D01*
X62386394Y-63317000D01*
X94386452Y-63317000D01*
X94540171Y-63332072D01*
X94675008Y-63372782D01*
X94799367Y-63438905D01*
X94908514Y-63527923D01*
X94998294Y-63636448D01*
X95065282Y-63760340D01*
X95106932Y-63894889D01*
X95123001Y-64047778D01*
X95123001Y-66963000D01*
X93307992Y-66963000D01*
X93307000Y-65773750D01*
X93250250Y-65717000D01*
X91707000Y-65717000D01*
X91707000Y-65737000D01*
X91453000Y-65737000D01*
X91453000Y-65717000D01*
X89909750Y-65717000D01*
X89853000Y-65773750D01*
X89852008Y-66963000D01*
X86957992Y-66963000D01*
X86957000Y-65773750D01*
X86900250Y-65717000D01*
X85357000Y-65717000D01*
X85357000Y-65737000D01*
X85103000Y-65737000D01*
X85103000Y-65717000D01*
X83559750Y-65717000D01*
X83503000Y-65773750D01*
X83502008Y-66963000D01*
X57507000Y-66963000D01*
X57507000Y-64090000D01*
X83501902Y-64090000D01*
X83503000Y-65406250D01*
X83559750Y-65463000D01*
X85103000Y-65463000D01*
X85103000Y-63919750D01*
X85357000Y-63919750D01*
X85357000Y-65463000D01*
X86900250Y-65463000D01*
X86957000Y-65406250D01*
X86958098Y-64090000D01*
X89851902Y-64090000D01*
X89853000Y-65406250D01*
X89909750Y-65463000D01*
X91453000Y-65463000D01*
X91453000Y-63919750D01*
X91707000Y-63919750D01*
X91707000Y-65463000D01*
X93250250Y-65463000D01*
X93307000Y-65406250D01*
X93308098Y-64090000D01*
X93303715Y-64045500D01*
X93290735Y-64002711D01*
X93269657Y-63963276D01*
X93241290Y-63928710D01*
X93206724Y-63900343D01*
X93167289Y-63879265D01*
X93124500Y-63866285D01*
X93080000Y-63861902D01*
X91763750Y-63863000D01*
X91707000Y-63919750D01*
X91453000Y-63919750D01*
X91396250Y-63863000D01*
X90080000Y-63861902D01*
X90035500Y-63866285D01*
X89992711Y-63879265D01*
X89953276Y-63900343D01*
X89918710Y-63928710D01*
X89890343Y-63963276D01*
X89869265Y-64002711D01*
X89856285Y-64045500D01*
X89851902Y-64090000D01*
X86958098Y-64090000D01*
X86953715Y-64045500D01*
X86940735Y-64002711D01*
X86919657Y-63963276D01*
X86891290Y-63928710D01*
X86856724Y-63900343D01*
X86817289Y-63879265D01*
X86774500Y-63866285D01*
X86730000Y-63861902D01*
X85413750Y-63863000D01*
X85357000Y-63919750D01*
X85103000Y-63919750D01*
X85046250Y-63863000D01*
X83730000Y-63861902D01*
X83685500Y-63866285D01*
X83642711Y-63879265D01*
X83603276Y-63900343D01*
X83568710Y-63928710D01*
X83540343Y-63963276D01*
X83519265Y-64002711D01*
X83506285Y-64045500D01*
X83501902Y-64090000D01*
X57507000Y-64090000D01*
X57507000Y-51990000D01*
X89841902Y-51990000D01*
X89846285Y-52034500D01*
X89859265Y-52077289D01*
X89880343Y-52116724D01*
X89908710Y-52151290D01*
X89943276Y-52179657D01*
X89982711Y-52200735D01*
X90025500Y-52213715D01*
X90070000Y-52218098D01*
X91386250Y-52217000D01*
X91443000Y-52160250D01*
X91443000Y-50617000D01*
X91697000Y-50617000D01*
X91697000Y-52160250D01*
X91753750Y-52217000D01*
X93070000Y-52218098D01*
X93114500Y-52213715D01*
X93157289Y-52200735D01*
X93196724Y-52179657D01*
X93231290Y-52151290D01*
X93259657Y-52116724D01*
X93280735Y-52077289D01*
X93293715Y-52034500D01*
X93298098Y-51990000D01*
X93297000Y-50673750D01*
X93240250Y-50617000D01*
X91697000Y-50617000D01*
X91443000Y-50617000D01*
X89899750Y-50617000D01*
X89843000Y-50673750D01*
X89841902Y-51990000D01*
X57507000Y-51990000D01*
X57507000Y-49117000D01*
X89842008Y-49117000D01*
X89843000Y-50306250D01*
%TA.AperFunction,Conductor*%
D27*
G36*
X89843000Y-50306250D02*
G01*
X89899750Y-50363000D01*
X91443000Y-50363000D01*
X91443000Y-50343000D01*
X91697000Y-50343000D01*
X91697000Y-50363000D01*
X93240250Y-50363000D01*
X93297000Y-50306250D01*
X93297992Y-49117000D01*
X95123000Y-49117000D01*
X95123000Y-52026453D01*
X95107927Y-52180175D01*
X95067217Y-52315010D01*
X95001096Y-52439367D01*
X94912077Y-52548514D01*
X94803554Y-52638293D01*
X94679659Y-52705282D01*
X94545110Y-52746932D01*
X94392240Y-52763000D01*
X62386394Y-52763000D01*
X62374135Y-52764207D01*
X62367913Y-52764164D01*
X62364064Y-52764542D01*
X62169967Y-52784943D01*
X62145385Y-52789989D01*
X62120714Y-52794695D01*
X62117013Y-52795812D01*
X62117007Y-52795814D01*
X61930573Y-52853525D01*
X61907424Y-52863256D01*
X61884152Y-52872658D01*
X61880736Y-52874474D01*
X61709060Y-52967299D01*
X61688228Y-52981350D01*
X61667237Y-52995086D01*
X61664240Y-52997530D01*
X61513862Y-53121934D01*
X61496173Y-53139747D01*
X61478235Y-53157313D01*
X61475769Y-53160294D01*
X61352419Y-53311536D01*
X61338516Y-53332461D01*
X61324342Y-53353162D01*
X61322507Y-53356556D01*
X61322502Y-53356564D01*
X61322499Y-53356572D01*
X61230877Y-53528887D01*
X61221307Y-53552105D01*
X61211420Y-53575173D01*
X61210280Y-53578858D01*
X61210276Y-53578868D01*
X61210274Y-53578878D01*
X61153867Y-53765704D01*
X61148992Y-53790328D01*
X61143771Y-53814889D01*
X61143367Y-53818736D01*
X61124322Y-54012969D01*
X61124322Y-54012981D01*
X61123001Y-54026394D01*
X61123000Y-62053605D01*
X61124207Y-62065864D01*
X61124164Y-62072087D01*
X61124542Y-62075936D01*
X61144942Y-62270033D01*
X61149996Y-62294652D01*
X61154695Y-62319286D01*
X61155813Y-62322989D01*
X61213525Y-62509427D01*
X61223256Y-62532576D01*
X61232658Y-62555848D01*
X61234472Y-62559259D01*
X61234474Y-62559264D01*
X61234477Y-62559268D01*
X61327299Y-62730940D01*
X61341328Y-62751740D01*
X61355085Y-62772762D01*
X61357530Y-62775760D01*
X61481934Y-62926138D01*
X61499747Y-62943827D01*
X61517313Y-62961765D01*
X61520294Y-62964231D01*
X61671536Y-63087581D01*
X61692477Y-63101494D01*
X61713162Y-63115658D01*
X61716560Y-63117495D01*
X61716564Y-63117498D01*
X61716568Y-63117500D01*
X61888887Y-63209123D01*
X61912093Y-63218688D01*
X61935173Y-63228580D01*
X61938868Y-63229724D01*
X62125705Y-63286133D01*
X62150345Y-63291012D01*
X62174888Y-63296229D01*
X62178726Y-63296632D01*
X62178736Y-63296634D01*
X62178745Y-63296634D01*
X62372969Y-63315678D01*
X62372971Y-63315678D01*
X62386394Y-63317000D01*
X94386452Y-63317000D01*
X94540171Y-63332072D01*
X94675008Y-63372782D01*
X94799367Y-63438905D01*
X94908514Y-63527923D01*
X94998294Y-63636448D01*
X95065282Y-63760340D01*
X95106932Y-63894889D01*
X95123001Y-64047778D01*
X95123001Y-66963000D01*
X93307992Y-66963000D01*
X93307000Y-65773750D01*
X93250250Y-65717000D01*
X91707000Y-65717000D01*
X91707000Y-65737000D01*
X91453000Y-65737000D01*
X91453000Y-65717000D01*
X89909750Y-65717000D01*
X89853000Y-65773750D01*
X89852008Y-66963000D01*
X86957992Y-66963000D01*
X86957000Y-65773750D01*
X86900250Y-65717000D01*
X85357000Y-65717000D01*
X85357000Y-65737000D01*
X85103000Y-65737000D01*
X85103000Y-65717000D01*
X83559750Y-65717000D01*
X83503000Y-65773750D01*
X83502008Y-66963000D01*
X57507000Y-66963000D01*
X57507000Y-64090000D01*
X83501902Y-64090000D01*
X83503000Y-65406250D01*
X83559750Y-65463000D01*
X85103000Y-65463000D01*
X85103000Y-63919750D01*
X85357000Y-63919750D01*
X85357000Y-65463000D01*
X86900250Y-65463000D01*
X86957000Y-65406250D01*
X86958098Y-64090000D01*
X89851902Y-64090000D01*
X89853000Y-65406250D01*
X89909750Y-65463000D01*
X91453000Y-65463000D01*
X91453000Y-63919750D01*
X91707000Y-63919750D01*
X91707000Y-65463000D01*
X93250250Y-65463000D01*
X93307000Y-65406250D01*
X93308098Y-64090000D01*
X93303715Y-64045500D01*
X93290735Y-64002711D01*
X93269657Y-63963276D01*
X93241290Y-63928710D01*
X93206724Y-63900343D01*
X93167289Y-63879265D01*
X93124500Y-63866285D01*
X93080000Y-63861902D01*
X91763750Y-63863000D01*
X91707000Y-63919750D01*
X91453000Y-63919750D01*
X91396250Y-63863000D01*
X90080000Y-63861902D01*
X90035500Y-63866285D01*
X89992711Y-63879265D01*
X89953276Y-63900343D01*
X89918710Y-63928710D01*
X89890343Y-63963276D01*
X89869265Y-64002711D01*
X89856285Y-64045500D01*
X89851902Y-64090000D01*
X86958098Y-64090000D01*
X86953715Y-64045500D01*
X86940735Y-64002711D01*
X86919657Y-63963276D01*
X86891290Y-63928710D01*
X86856724Y-63900343D01*
X86817289Y-63879265D01*
X86774500Y-63866285D01*
X86730000Y-63861902D01*
X85413750Y-63863000D01*
X85357000Y-63919750D01*
X85103000Y-63919750D01*
X85046250Y-63863000D01*
X83730000Y-63861902D01*
X83685500Y-63866285D01*
X83642711Y-63879265D01*
X83603276Y-63900343D01*
X83568710Y-63928710D01*
X83540343Y-63963276D01*
X83519265Y-64002711D01*
X83506285Y-64045500D01*
X83501902Y-64090000D01*
X57507000Y-64090000D01*
X57507000Y-51990000D01*
X89841902Y-51990000D01*
X89846285Y-52034500D01*
X89859265Y-52077289D01*
X89880343Y-52116724D01*
X89908710Y-52151290D01*
X89943276Y-52179657D01*
X89982711Y-52200735D01*
X90025500Y-52213715D01*
X90070000Y-52218098D01*
X91386250Y-52217000D01*
X91443000Y-52160250D01*
X91443000Y-50617000D01*
X91697000Y-50617000D01*
X91697000Y-52160250D01*
X91753750Y-52217000D01*
X93070000Y-52218098D01*
X93114500Y-52213715D01*
X93157289Y-52200735D01*
X93196724Y-52179657D01*
X93231290Y-52151290D01*
X93259657Y-52116724D01*
X93280735Y-52077289D01*
X93293715Y-52034500D01*
X93298098Y-51990000D01*
X93297000Y-50673750D01*
X93240250Y-50617000D01*
X91697000Y-50617000D01*
X91443000Y-50617000D01*
X89899750Y-50617000D01*
X89843000Y-50673750D01*
X89841902Y-51990000D01*
X57507000Y-51990000D01*
X57507000Y-49117000D01*
X89842008Y-49117000D01*
X89843000Y-50306250D01*
G37*
%TD.AperFunction*%
%TD*%
D26*
%TO.N,GND*%
X38952647Y-30808798D02*
X38860153Y-31032097D01*
X38813000Y-31269151D01*
X38813000Y-31510849D01*
X38860153Y-31747903D01*
X38952647Y-31971202D01*
X39086927Y-32172167D01*
X39257833Y-32343073D01*
X39458798Y-32477353D01*
X39682097Y-32569847D01*
X39919151Y-32617000D01*
X40160849Y-32617000D01*
X40397903Y-32569847D01*
X40621202Y-32477353D01*
X40822167Y-32343073D01*
X40993073Y-32172167D01*
X41127353Y-31971202D01*
X41212574Y-31765462D01*
X41219954Y-31802565D01*
X41326575Y-32059970D01*
X41481364Y-32291628D01*
X41678372Y-32488636D01*
X41910030Y-32643425D01*
X42167435Y-32750046D01*
X42440694Y-32804400D01*
X42719306Y-32804400D01*
X42992565Y-32750046D01*
X43249970Y-32643425D01*
X43481628Y-32488636D01*
X43678636Y-32291628D01*
X43833425Y-32059970D01*
X43850000Y-32019955D01*
X43866575Y-32059970D01*
X44021364Y-32291628D01*
X44218372Y-32488636D01*
X44450030Y-32643425D01*
X44707435Y-32750046D01*
X44980694Y-32804400D01*
X45259306Y-32804400D01*
X45532565Y-32750046D01*
X45789970Y-32643425D01*
X46021628Y-32488636D01*
X46218636Y-32291628D01*
X46373425Y-32059970D01*
X46390000Y-32019955D01*
X46406575Y-32059970D01*
X46561364Y-32291628D01*
X46758372Y-32488636D01*
X46990030Y-32643425D01*
X47247435Y-32750046D01*
X47520694Y-32804400D01*
X47799306Y-32804400D01*
X48072565Y-32750046D01*
X48329970Y-32643425D01*
X48561628Y-32488636D01*
X48680850Y-32369414D01*
X49400192Y-32369414D01*
X49470701Y-32609859D01*
X49722697Y-32728700D01*
X49993035Y-32796094D01*
X50271327Y-32809453D01*
X50546879Y-32768264D01*
X50809100Y-32674108D01*
X50929299Y-32609859D01*
X50999808Y-32369414D01*
X50200000Y-31569605D01*
X49400192Y-32369414D01*
X48680850Y-32369414D01*
X48758636Y-32291628D01*
X48913425Y-32059970D01*
X48928707Y-32023075D01*
X48980141Y-32119299D01*
X49220586Y-32189808D01*
X50020395Y-31390000D01*
X50006252Y-31375858D01*
X50185858Y-31196252D01*
X50200000Y-31210395D01*
X50214142Y-31196252D01*
X50393748Y-31375858D01*
X50379605Y-31390000D01*
X51179414Y-32189808D01*
X51419859Y-32119299D01*
X51468461Y-32016240D01*
X51486575Y-32059970D01*
X51641364Y-32291628D01*
X51838372Y-32488636D01*
X52070030Y-32643425D01*
X52327435Y-32750046D01*
X52600694Y-32804400D01*
X52879306Y-32804400D01*
X53152565Y-32750046D01*
X53409970Y-32643425D01*
X53641628Y-32488636D01*
X53838636Y-32291628D01*
X53993425Y-32059970D01*
X54010000Y-32019955D01*
X54026575Y-32059970D01*
X54181364Y-32291628D01*
X54378372Y-32488636D01*
X54610030Y-32643425D01*
X54867435Y-32750046D01*
X55140694Y-32804400D01*
X55419306Y-32804400D01*
X55692565Y-32750046D01*
X55949970Y-32643425D01*
X56181628Y-32488636D01*
X56378636Y-32291628D01*
X56533425Y-32059970D01*
X56550000Y-32019955D01*
X56566575Y-32059970D01*
X56721364Y-32291628D01*
X56918372Y-32488636D01*
X57150030Y-32643425D01*
X57407435Y-32750046D01*
X57680694Y-32804400D01*
X57959306Y-32804400D01*
X58232565Y-32750046D01*
X58489970Y-32643425D01*
X58721628Y-32488636D01*
X58918636Y-32291628D01*
X59073425Y-32059970D01*
X59090000Y-32019955D01*
X59106575Y-32059970D01*
X59261364Y-32291628D01*
X59458372Y-32488636D01*
X59690030Y-32643425D01*
X59947435Y-32750046D01*
X60220694Y-32804400D01*
X60499306Y-32804400D01*
X60772565Y-32750046D01*
X61029970Y-32643425D01*
X61261628Y-32488636D01*
X61458636Y-32291628D01*
X61613425Y-32059970D01*
X61630000Y-32019955D01*
X61646575Y-32059970D01*
X61801364Y-32291628D01*
X61998372Y-32488636D01*
X62230030Y-32643425D01*
X62487435Y-32750046D01*
X62760694Y-32804400D01*
X63039306Y-32804400D01*
X63312565Y-32750046D01*
X63569970Y-32643425D01*
X63801628Y-32488636D01*
X63998636Y-32291628D01*
X64153425Y-32059970D01*
X64170000Y-32019955D01*
X64186575Y-32059970D01*
X64341364Y-32291628D01*
X64538372Y-32488636D01*
X64770030Y-32643425D01*
X65027435Y-32750046D01*
X65300694Y-32804400D01*
X65579306Y-32804400D01*
X65852565Y-32750046D01*
X66109970Y-32643425D01*
X66341628Y-32488636D01*
X66538636Y-32291628D01*
X66693425Y-32059970D01*
X66710000Y-32019955D01*
X66726575Y-32059970D01*
X66881364Y-32291628D01*
X67078372Y-32488636D01*
X67310030Y-32643425D01*
X67567435Y-32750046D01*
X67840694Y-32804400D01*
X68119306Y-32804400D01*
X68392565Y-32750046D01*
X68649970Y-32643425D01*
X68881628Y-32488636D01*
X69078636Y-32291628D01*
X69233425Y-32059970D01*
X69250000Y-32019955D01*
X69266575Y-32059970D01*
X69421364Y-32291628D01*
X69618372Y-32488636D01*
X69850030Y-32643425D01*
X70107435Y-32750046D01*
X70380694Y-32804400D01*
X70659306Y-32804400D01*
X70932565Y-32750046D01*
X71189970Y-32643425D01*
X71421628Y-32488636D01*
X71618636Y-32291628D01*
X71773425Y-32059970D01*
X71790000Y-32019955D01*
X71806575Y-32059970D01*
X71961364Y-32291628D01*
X72158372Y-32488636D01*
X72390030Y-32643425D01*
X72647435Y-32750046D01*
X72920694Y-32804400D01*
X73199306Y-32804400D01*
X73472565Y-32750046D01*
X73729970Y-32643425D01*
X73961628Y-32488636D01*
X74158636Y-32291628D01*
X74313425Y-32059970D01*
X74330000Y-32019955D01*
X74346575Y-32059970D01*
X74501364Y-32291628D01*
X74698372Y-32488636D01*
X74930030Y-32643425D01*
X75187435Y-32750046D01*
X75460694Y-32804400D01*
X75739306Y-32804400D01*
X76012565Y-32750046D01*
X76269970Y-32643425D01*
X76501628Y-32488636D01*
X76698636Y-32291628D01*
X76853425Y-32059970D01*
X76870000Y-32019955D01*
X76886575Y-32059970D01*
X77041364Y-32291628D01*
X77238372Y-32488636D01*
X77470030Y-32643425D01*
X77727435Y-32750046D01*
X78000694Y-32804400D01*
X78279306Y-32804400D01*
X78552565Y-32750046D01*
X78809970Y-32643425D01*
X79041628Y-32488636D01*
X79238636Y-32291628D01*
X79393425Y-32059970D01*
X79410000Y-32019955D01*
X79426575Y-32059970D01*
X79581364Y-32291628D01*
X79778372Y-32488636D01*
X80010030Y-32643425D01*
X80267435Y-32750046D01*
X80540694Y-32804400D01*
X80819306Y-32804400D01*
X81092565Y-32750046D01*
X81349970Y-32643425D01*
X81581628Y-32488636D01*
X81778636Y-32291628D01*
X81933425Y-32059970D01*
X81950000Y-32019955D01*
X81966575Y-32059970D01*
X82121364Y-32291628D01*
X82318372Y-32488636D01*
X82550030Y-32643425D01*
X82807435Y-32750046D01*
X83080694Y-32804400D01*
X83359306Y-32804400D01*
X83535804Y-32769293D01*
X83888001Y-33121490D01*
X83888000Y-36932646D01*
X83851104Y-36912924D01*
X83732914Y-36877072D01*
X83610000Y-36864966D01*
X83143750Y-36868000D01*
X82987000Y-37024750D01*
X82987000Y-37893000D01*
X83007000Y-37893000D01*
X83007000Y-38138000D01*
X82578405Y-38138000D01*
X82487025Y-38147000D01*
X81639750Y-38147000D01*
X81483000Y-38303750D01*
X81479966Y-38545000D01*
X81492072Y-38667914D01*
X81527924Y-38786104D01*
X81563710Y-38853053D01*
X81499668Y-39064169D01*
X81477426Y-39290000D01*
X81499668Y-39515831D01*
X81565541Y-39732984D01*
X81668175Y-39925000D01*
X81565541Y-40117016D01*
X81499668Y-40334169D01*
X81477426Y-40560000D01*
X81499668Y-40785831D01*
X81565541Y-41002984D01*
X81672512Y-41203114D01*
X81816472Y-41378528D01*
X81991886Y-41522488D01*
X82192016Y-41629459D01*
X82409169Y-41695332D01*
X82578405Y-41712000D01*
X83141595Y-41712000D01*
X83310831Y-41695332D01*
X83527984Y-41629459D01*
X83728114Y-41522488D01*
X83903528Y-41378528D01*
X84047488Y-41203114D01*
X84154459Y-41002984D01*
X84220332Y-40785831D01*
X84242574Y-40560000D01*
X84220332Y-40334169D01*
X84154459Y-40117016D01*
X84118639Y-40050000D01*
X90419967Y-40050000D01*
X90419967Y-41750000D01*
X90432073Y-41872913D01*
X90467925Y-41991103D01*
X90526147Y-42100028D01*
X90604499Y-42195501D01*
X90699972Y-42273853D01*
X90808897Y-42332075D01*
X90927087Y-42367927D01*
X91050000Y-42380033D01*
X92750000Y-42380033D01*
X92872913Y-42367927D01*
X92991103Y-42332075D01*
X93100028Y-42273853D01*
X93195501Y-42195501D01*
X93273853Y-42100028D01*
X93332075Y-41991103D01*
X93367927Y-41872913D01*
X93380033Y-41750000D01*
X93380033Y-40050000D01*
X93367927Y-39927087D01*
X93332075Y-39808897D01*
X93273853Y-39699972D01*
X93195501Y-39604499D01*
X93100028Y-39526147D01*
X92991103Y-39467925D01*
X92906525Y-39442269D01*
X93047261Y-39301533D01*
X93208901Y-39059622D01*
X93320240Y-38790825D01*
X93377000Y-38505472D01*
X93377000Y-38214528D01*
X93320240Y-37929175D01*
X93208901Y-37660378D01*
X93047261Y-37418467D01*
X92841533Y-37212739D01*
X92599622Y-37051099D01*
X92330825Y-36939760D01*
X92045472Y-36883000D01*
X91754528Y-36883000D01*
X91469175Y-36939760D01*
X91200378Y-37051099D01*
X90958467Y-37212739D01*
X90752739Y-37418467D01*
X90591099Y-37660378D01*
X90479760Y-37929175D01*
X90423000Y-38214528D01*
X90423000Y-38505472D01*
X90479760Y-38790825D01*
X90591099Y-39059622D01*
X90752739Y-39301533D01*
X90893475Y-39442269D01*
X90808897Y-39467925D01*
X90699972Y-39526147D01*
X90604499Y-39604499D01*
X90526147Y-39699972D01*
X90467925Y-39808897D01*
X90432073Y-39927087D01*
X90419967Y-40050000D01*
X84118639Y-40050000D01*
X84114991Y-40043176D01*
X84126935Y-40042000D01*
X84126938Y-40042000D01*
X84237418Y-40031119D01*
X84379170Y-39988118D01*
X84509810Y-39918290D01*
X84624317Y-39824317D01*
X84647867Y-39795621D01*
X85145627Y-39297862D01*
X85174317Y-39274317D01*
X85220163Y-39218453D01*
X85268290Y-39159811D01*
X85305613Y-39089983D01*
X85338118Y-39029170D01*
X85381119Y-38887418D01*
X85392000Y-38776938D01*
X85392000Y-38776936D01*
X85395638Y-38740001D01*
X85392000Y-38703065D01*
X85392000Y-32846935D01*
X85395638Y-32809999D01*
X85390592Y-32758765D01*
X85381119Y-32662582D01*
X85345930Y-32546582D01*
X85402097Y-32569847D01*
X85639151Y-32617000D01*
X85880849Y-32617000D01*
X86117903Y-32569847D01*
X86341202Y-32477353D01*
X86542167Y-32343073D01*
X86713073Y-32172167D01*
X86847353Y-31971202D01*
X86939847Y-31747903D01*
X86987000Y-31510849D01*
X86987000Y-31269151D01*
X86939847Y-31032097D01*
X86847353Y-30808798D01*
X86786016Y-30717000D01*
X90316472Y-30717000D01*
X89842907Y-31033425D01*
X89393425Y-31482907D01*
X89040270Y-32011442D01*
X88797012Y-32598719D01*
X88673000Y-33222168D01*
X88673000Y-33857832D01*
X88797012Y-34481281D01*
X89040270Y-35068558D01*
X89393425Y-35597093D01*
X89842907Y-36046575D01*
X90371442Y-36399730D01*
X90958719Y-36642988D01*
X91582168Y-36767000D01*
X92217832Y-36767000D01*
X92841281Y-36642988D01*
X93428558Y-36399730D01*
X93957093Y-36046575D01*
X94406575Y-35597093D01*
X94723001Y-35123527D01*
X94723000Y-48363000D01*
X93100794Y-48363000D01*
X93070000Y-48359967D01*
X90070000Y-48359967D01*
X90039206Y-48363000D01*
X68943135Y-48363000D01*
X69048270Y-48276718D01*
X69071820Y-48248022D01*
X69604789Y-47715053D01*
X69618372Y-47728636D01*
X69850030Y-47883425D01*
X70107435Y-47990046D01*
X70380694Y-48044400D01*
X70659306Y-48044400D01*
X70932565Y-47990046D01*
X71189970Y-47883425D01*
X71421628Y-47728636D01*
X71618636Y-47531628D01*
X71773425Y-47299970D01*
X71790000Y-47259955D01*
X71806575Y-47299970D01*
X71961364Y-47531628D01*
X72158372Y-47728636D01*
X72390030Y-47883425D01*
X72647435Y-47990046D01*
X72920694Y-48044400D01*
X73199306Y-48044400D01*
X73472565Y-47990046D01*
X73729970Y-47883425D01*
X73961628Y-47728636D01*
X74158636Y-47531628D01*
X74313425Y-47299970D01*
X74330000Y-47259955D01*
X74346575Y-47299970D01*
X74501364Y-47531628D01*
X74698372Y-47728636D01*
X74930030Y-47883425D01*
X75187435Y-47990046D01*
X75460694Y-48044400D01*
X75739306Y-48044400D01*
X76012565Y-47990046D01*
X76269970Y-47883425D01*
X76501628Y-47728636D01*
X76698636Y-47531628D01*
X76853425Y-47299970D01*
X76870000Y-47259955D01*
X76886575Y-47299970D01*
X77041364Y-47531628D01*
X77238372Y-47728636D01*
X77470030Y-47883425D01*
X77727435Y-47990046D01*
X78000694Y-48044400D01*
X78279306Y-48044400D01*
X78552565Y-47990046D01*
X78809970Y-47883425D01*
X79041628Y-47728636D01*
X79238636Y-47531628D01*
X79393425Y-47299970D01*
X79410000Y-47259955D01*
X79426575Y-47299970D01*
X79581364Y-47531628D01*
X79778372Y-47728636D01*
X80010030Y-47883425D01*
X80267435Y-47990046D01*
X80540694Y-48044400D01*
X80819306Y-48044400D01*
X81092565Y-47990046D01*
X81349970Y-47883425D01*
X81581628Y-47728636D01*
X81778636Y-47531628D01*
X81933425Y-47299970D01*
X81950000Y-47259955D01*
X81966575Y-47299970D01*
X82121364Y-47531628D01*
X82318372Y-47728636D01*
X82550030Y-47883425D01*
X82807435Y-47990046D01*
X83080694Y-48044400D01*
X83359306Y-48044400D01*
X83632565Y-47990046D01*
X83889970Y-47883425D01*
X84121628Y-47728636D01*
X84318636Y-47531628D01*
X84473425Y-47299970D01*
X84580046Y-47042565D01*
X84587426Y-47005462D01*
X84672647Y-47211202D01*
X84806927Y-47412167D01*
X84977833Y-47583073D01*
X85178798Y-47717353D01*
X85402097Y-47809847D01*
X85639151Y-47857000D01*
X85880849Y-47857000D01*
X86117903Y-47809847D01*
X86341202Y-47717353D01*
X86542167Y-47583073D01*
X86713073Y-47412167D01*
X86847353Y-47211202D01*
X86939847Y-46987903D01*
X86957854Y-46897375D01*
X90262230Y-46897375D01*
X90418697Y-47210699D01*
X90792117Y-47400708D01*
X91195432Y-47514215D01*
X91613141Y-47546858D01*
X92029192Y-47497382D01*
X92427597Y-47367689D01*
X92721303Y-47210699D01*
X92877770Y-46897375D01*
X91570000Y-45589605D01*
X90262230Y-46897375D01*
X86957854Y-46897375D01*
X86987000Y-46750849D01*
X86987000Y-46509151D01*
X86939847Y-46272097D01*
X86847353Y-46048798D01*
X86713073Y-45847833D01*
X86542167Y-45676927D01*
X86341202Y-45542647D01*
X86125117Y-45453141D01*
X89433142Y-45453141D01*
X89482618Y-45869192D01*
X89612311Y-46267597D01*
X89769301Y-46561303D01*
X90082625Y-46717770D01*
X91390395Y-45410000D01*
X91749605Y-45410000D01*
X93057375Y-46717770D01*
X93370699Y-46561303D01*
X93560708Y-46187883D01*
X93674215Y-45784568D01*
X93706858Y-45366859D01*
X93657382Y-44950808D01*
X93527689Y-44552403D01*
X93370699Y-44258697D01*
X93057375Y-44102230D01*
X91749605Y-45410000D01*
X91390395Y-45410000D01*
X90082625Y-44102230D01*
X89769301Y-44258697D01*
X89579292Y-44632117D01*
X89465785Y-45035432D01*
X89433142Y-45453141D01*
X86125117Y-45453141D01*
X86117903Y-45450153D01*
X85880849Y-45403000D01*
X85639151Y-45403000D01*
X85402097Y-45450153D01*
X85178798Y-45542647D01*
X84977833Y-45676927D01*
X84806927Y-45847833D01*
X84672647Y-46048798D01*
X84587426Y-46254538D01*
X84580046Y-46217435D01*
X84473425Y-45960030D01*
X84318636Y-45728372D01*
X84121628Y-45531364D01*
X83889970Y-45376575D01*
X83632565Y-45269954D01*
X83359306Y-45215600D01*
X83080694Y-45215600D01*
X82807435Y-45269954D01*
X82550030Y-45376575D01*
X82318372Y-45531364D01*
X82121364Y-45728372D01*
X81966575Y-45960030D01*
X81950000Y-46000045D01*
X81933425Y-45960030D01*
X81778636Y-45728372D01*
X81581628Y-45531364D01*
X81349970Y-45376575D01*
X81092565Y-45269954D01*
X80819306Y-45215600D01*
X80540694Y-45215600D01*
X80267435Y-45269954D01*
X80010030Y-45376575D01*
X79778372Y-45531364D01*
X79581364Y-45728372D01*
X79426575Y-45960030D01*
X79410000Y-46000045D01*
X79393425Y-45960030D01*
X79238636Y-45728372D01*
X79041628Y-45531364D01*
X78809970Y-45376575D01*
X78552565Y-45269954D01*
X78279306Y-45215600D01*
X78000694Y-45215600D01*
X77727435Y-45269954D01*
X77470030Y-45376575D01*
X77238372Y-45531364D01*
X77041364Y-45728372D01*
X76886575Y-45960030D01*
X76870000Y-46000045D01*
X76853425Y-45960030D01*
X76698636Y-45728372D01*
X76501628Y-45531364D01*
X76269970Y-45376575D01*
X76012565Y-45269954D01*
X75739306Y-45215600D01*
X75460694Y-45215600D01*
X75187435Y-45269954D01*
X74930030Y-45376575D01*
X74698372Y-45531364D01*
X74501364Y-45728372D01*
X74346575Y-45960030D01*
X74330000Y-46000045D01*
X74313425Y-45960030D01*
X74158636Y-45728372D01*
X73961628Y-45531364D01*
X73729970Y-45376575D01*
X73472565Y-45269954D01*
X73199306Y-45215600D01*
X72920694Y-45215600D01*
X72647435Y-45269954D01*
X72390030Y-45376575D01*
X72158372Y-45531364D01*
X71961364Y-45728372D01*
X71806575Y-45960030D01*
X71790000Y-46000045D01*
X71773425Y-45960030D01*
X71618636Y-45728372D01*
X71421628Y-45531364D01*
X71189970Y-45376575D01*
X70932565Y-45269954D01*
X70659306Y-45215600D01*
X70517888Y-45215600D01*
X70935621Y-44797867D01*
X70964317Y-44774317D01*
X71058290Y-44659810D01*
X71128118Y-44529170D01*
X71171119Y-44387418D01*
X71182000Y-44276938D01*
X71182000Y-44276936D01*
X71185638Y-44240000D01*
X71182000Y-44203065D01*
X71182000Y-43922625D01*
X90262230Y-43922625D01*
X91570000Y-45230395D01*
X92877770Y-43922625D01*
X92721303Y-43609301D01*
X92347883Y-43419292D01*
X91944568Y-43305785D01*
X91526859Y-43273142D01*
X91110808Y-43322618D01*
X90712403Y-43452311D01*
X90418697Y-43609301D01*
X90262230Y-43922625D01*
X71182000Y-43922625D01*
X71182000Y-42013768D01*
X71339660Y-41908424D01*
X71538424Y-41709660D01*
X71694591Y-41475938D01*
X71802162Y-41216241D01*
X71857000Y-40940547D01*
X71857000Y-40659453D01*
X76623000Y-40659453D01*
X76623000Y-40940547D01*
X76677838Y-41216241D01*
X76785409Y-41475938D01*
X76941576Y-41709660D01*
X77140340Y-41908424D01*
X77374062Y-42064591D01*
X77633759Y-42172162D01*
X77909453Y-42227000D01*
X78190547Y-42227000D01*
X78466241Y-42172162D01*
X78725938Y-42064591D01*
X78959660Y-41908424D01*
X79158424Y-41709660D01*
X79314591Y-41475938D01*
X79422162Y-41216241D01*
X79477000Y-40940547D01*
X79477000Y-40659453D01*
X79422162Y-40383759D01*
X79314591Y-40124062D01*
X79158424Y-39890340D01*
X78959660Y-39691576D01*
X78725938Y-39535409D01*
X78466241Y-39427838D01*
X78190547Y-39373000D01*
X77909453Y-39373000D01*
X77633759Y-39427838D01*
X77374062Y-39535409D01*
X77140340Y-39691576D01*
X76941576Y-39890340D01*
X76785409Y-40124062D01*
X76677838Y-40383759D01*
X76623000Y-40659453D01*
X71857000Y-40659453D01*
X71802162Y-40383759D01*
X71694591Y-40124062D01*
X71538424Y-39890340D01*
X71339660Y-39691576D01*
X71105938Y-39535409D01*
X70846241Y-39427838D01*
X70570547Y-39373000D01*
X70289453Y-39373000D01*
X70013759Y-39427838D01*
X69754062Y-39535409D01*
X69520340Y-39691576D01*
X69321576Y-39890340D01*
X69165409Y-40124062D01*
X69057838Y-40383759D01*
X69003000Y-40659453D01*
X69003000Y-40940547D01*
X69057838Y-41216241D01*
X69165409Y-41475938D01*
X69321576Y-41709660D01*
X69520340Y-41908424D01*
X69678000Y-42013769D01*
X69678001Y-43928511D01*
X68764379Y-44842133D01*
X68735683Y-44865683D01*
X68682583Y-44930386D01*
X68641710Y-44980190D01*
X68619051Y-45022583D01*
X68571882Y-45110831D01*
X68528881Y-45252583D01*
X68522496Y-45317417D01*
X68521895Y-45323524D01*
X68392565Y-45269954D01*
X68119306Y-45215600D01*
X67840694Y-45215600D01*
X67567435Y-45269954D01*
X67310030Y-45376575D01*
X67078372Y-45531364D01*
X66881364Y-45728372D01*
X66726575Y-45960030D01*
X66710000Y-46000045D01*
X66693425Y-45960030D01*
X66538636Y-45728372D01*
X66341628Y-45531364D01*
X66109970Y-45376575D01*
X65852565Y-45269954D01*
X65579306Y-45215600D01*
X65300694Y-45215600D01*
X65027435Y-45269954D01*
X64770030Y-45376575D01*
X64538372Y-45531364D01*
X64341364Y-45728372D01*
X64186575Y-45960030D01*
X64170000Y-46000045D01*
X64153425Y-45960030D01*
X64004433Y-45737048D01*
X64044317Y-45704317D01*
X64067867Y-45675621D01*
X65933480Y-43810008D01*
X66119453Y-43847000D01*
X66400547Y-43847000D01*
X66676241Y-43792162D01*
X66935938Y-43684591D01*
X67169660Y-43528424D01*
X67368424Y-43329660D01*
X67524591Y-43095938D01*
X67632162Y-42836241D01*
X67687000Y-42560547D01*
X67687000Y-42279453D01*
X67632162Y-42003759D01*
X67524591Y-41744062D01*
X67368424Y-41510340D01*
X67169660Y-41311576D01*
X67012000Y-41206232D01*
X67012000Y-38886935D01*
X67015638Y-38849999D01*
X67012000Y-38813062D01*
X67009573Y-38788412D01*
X69621194Y-38788412D01*
X69693229Y-39030143D01*
X69947376Y-39150243D01*
X70220068Y-39218453D01*
X70500829Y-39232154D01*
X70778867Y-39190818D01*
X71043499Y-39096033D01*
X71166771Y-39030143D01*
X71238806Y-38788412D01*
X70430000Y-37979605D01*
X69621194Y-38788412D01*
X67009573Y-38788412D01*
X67001119Y-38702582D01*
X66958118Y-38560830D01*
X66888291Y-38430191D01*
X66888290Y-38430189D01*
X66817863Y-38344374D01*
X66794317Y-38315683D01*
X66765627Y-38292138D01*
X66344318Y-37870829D01*
X68997846Y-37870829D01*
X69039182Y-38148867D01*
X69133967Y-38413499D01*
X69199857Y-38536771D01*
X69441588Y-38608806D01*
X70250395Y-37800000D01*
X70609605Y-37800000D01*
X71418412Y-38608806D01*
X71660143Y-38536771D01*
X71780243Y-38282624D01*
X71848453Y-38009932D01*
X71862154Y-37729171D01*
X71851790Y-37659453D01*
X76623000Y-37659453D01*
X76623000Y-37940547D01*
X76677838Y-38216241D01*
X76785409Y-38475938D01*
X76941576Y-38709660D01*
X77140340Y-38908424D01*
X77374062Y-39064591D01*
X77633759Y-39172162D01*
X77909453Y-39227000D01*
X78190547Y-39227000D01*
X78466241Y-39172162D01*
X78725938Y-39064591D01*
X78959660Y-38908424D01*
X79158424Y-38709660D01*
X79314591Y-38475938D01*
X79422162Y-38216241D01*
X79477000Y-37940547D01*
X79477000Y-37659453D01*
X79444289Y-37495000D01*
X81479966Y-37495000D01*
X81483000Y-37736250D01*
X81639750Y-37893000D01*
X82733000Y-37893000D01*
X82733000Y-37024750D01*
X82576250Y-36868000D01*
X82110000Y-36864966D01*
X81987086Y-36877072D01*
X81868896Y-36912924D01*
X81759972Y-36971146D01*
X81664499Y-37049499D01*
X81586146Y-37144972D01*
X81527924Y-37253896D01*
X81492072Y-37372086D01*
X81479966Y-37495000D01*
X79444289Y-37495000D01*
X79422162Y-37383759D01*
X79314591Y-37124062D01*
X79158424Y-36890340D01*
X78959660Y-36691576D01*
X78725938Y-36535409D01*
X78466241Y-36427838D01*
X78190547Y-36373000D01*
X77909453Y-36373000D01*
X77633759Y-36427838D01*
X77374062Y-36535409D01*
X77140340Y-36691576D01*
X76941576Y-36890340D01*
X76785409Y-37124062D01*
X76677838Y-37383759D01*
X76623000Y-37659453D01*
X71851790Y-37659453D01*
X71820818Y-37451133D01*
X71726033Y-37186501D01*
X71660143Y-37063229D01*
X71418412Y-36991194D01*
X70609605Y-37800000D01*
X70250395Y-37800000D01*
X69441588Y-36991194D01*
X69199857Y-37063229D01*
X69079757Y-37317376D01*
X69011547Y-37590068D01*
X68997846Y-37870829D01*
X66344318Y-37870829D01*
X65285077Y-36811588D01*
X69621194Y-36811588D01*
X70430000Y-37620395D01*
X71238806Y-36811588D01*
X71166771Y-36569857D01*
X70912624Y-36449757D01*
X70639932Y-36381547D01*
X70359171Y-36367846D01*
X70081133Y-36409182D01*
X69816501Y-36503967D01*
X69693229Y-36569857D01*
X69621194Y-36811588D01*
X65285077Y-36811588D01*
X64717867Y-36244379D01*
X64694317Y-36215683D01*
X64579810Y-36121710D01*
X64449170Y-36051882D01*
X64307418Y-36008881D01*
X64196938Y-35998000D01*
X64196935Y-35998000D01*
X64160000Y-35994362D01*
X64123065Y-35998000D01*
X64035599Y-35998000D01*
X64169660Y-35908424D01*
X64368424Y-35709660D01*
X64524591Y-35475938D01*
X64632162Y-35216241D01*
X64687000Y-34940547D01*
X64687000Y-34659453D01*
X64833000Y-34659453D01*
X64833000Y-34940547D01*
X64887838Y-35216241D01*
X64995409Y-35475938D01*
X65151576Y-35709660D01*
X65350340Y-35908424D01*
X65584062Y-36064591D01*
X65843759Y-36172162D01*
X66119453Y-36227000D01*
X66400547Y-36227000D01*
X66676241Y-36172162D01*
X66935938Y-36064591D01*
X67169660Y-35908424D01*
X67368424Y-35709660D01*
X67524591Y-35475938D01*
X67632162Y-35216241D01*
X67687000Y-34940547D01*
X67687000Y-34659453D01*
X67632162Y-34383759D01*
X67524591Y-34124062D01*
X67368424Y-33890340D01*
X67169660Y-33691576D01*
X66935938Y-33535409D01*
X66676241Y-33427838D01*
X66400547Y-33373000D01*
X66119453Y-33373000D01*
X65843759Y-33427838D01*
X65584062Y-33535409D01*
X65350340Y-33691576D01*
X65151576Y-33890340D01*
X64995409Y-34124062D01*
X64887838Y-34383759D01*
X64833000Y-34659453D01*
X64687000Y-34659453D01*
X64632162Y-34383759D01*
X64524591Y-34124062D01*
X64368424Y-33890340D01*
X64169660Y-33691576D01*
X63935938Y-33535409D01*
X63676241Y-33427838D01*
X63400547Y-33373000D01*
X63119453Y-33373000D01*
X62843759Y-33427838D01*
X62584062Y-33535409D01*
X62350340Y-33691576D01*
X62151576Y-33890340D01*
X61995409Y-34124062D01*
X61887838Y-34383759D01*
X61833000Y-34659453D01*
X61833000Y-34940547D01*
X61887838Y-35216241D01*
X61995409Y-35475938D01*
X62151576Y-35709660D01*
X62350340Y-35908424D01*
X62484401Y-35998000D01*
X61035599Y-35998000D01*
X61169660Y-35908424D01*
X61368424Y-35709660D01*
X61524591Y-35475938D01*
X61632162Y-35216241D01*
X61687000Y-34940547D01*
X61687000Y-34659453D01*
X61632162Y-34383759D01*
X61524591Y-34124062D01*
X61368424Y-33890340D01*
X61169660Y-33691576D01*
X60935938Y-33535409D01*
X60676241Y-33427838D01*
X60400547Y-33373000D01*
X60119453Y-33373000D01*
X59843759Y-33427838D01*
X59584062Y-33535409D01*
X59350340Y-33691576D01*
X59151576Y-33890340D01*
X58995409Y-34124062D01*
X58887838Y-34383759D01*
X58833000Y-34659453D01*
X58833000Y-34940547D01*
X58887838Y-35216241D01*
X58995409Y-35475938D01*
X59151576Y-35709660D01*
X59350340Y-35908424D01*
X59484401Y-35998000D01*
X58035599Y-35998000D01*
X58169660Y-35908424D01*
X58368424Y-35709660D01*
X58524591Y-35475938D01*
X58632162Y-35216241D01*
X58687000Y-34940547D01*
X58687000Y-34659453D01*
X58632162Y-34383759D01*
X58524591Y-34124062D01*
X58368424Y-33890340D01*
X58169660Y-33691576D01*
X57935938Y-33535409D01*
X57676241Y-33427838D01*
X57400547Y-33373000D01*
X57119453Y-33373000D01*
X56843759Y-33427838D01*
X56584062Y-33535409D01*
X56350340Y-33691576D01*
X56151576Y-33890340D01*
X55995409Y-34124062D01*
X55887838Y-34383759D01*
X55833000Y-34659453D01*
X55833000Y-34940547D01*
X55887838Y-35216241D01*
X55995409Y-35475938D01*
X56151576Y-35709660D01*
X56350340Y-35908424D01*
X56484401Y-35998000D01*
X54284362Y-35998000D01*
X54324459Y-35922984D01*
X54390332Y-35705831D01*
X54412574Y-35480000D01*
X54390332Y-35254169D01*
X54326290Y-35043052D01*
X54362075Y-34976103D01*
X54397927Y-34857913D01*
X54410033Y-34735000D01*
X54410033Y-33685000D01*
X54397927Y-33562087D01*
X54362075Y-33443897D01*
X54303853Y-33334972D01*
X54225501Y-33239499D01*
X54130028Y-33161147D01*
X54021103Y-33102925D01*
X53902913Y-33067073D01*
X53780000Y-33054967D01*
X52280000Y-33054967D01*
X52157087Y-33067073D01*
X52038897Y-33102925D01*
X51929972Y-33161147D01*
X51834499Y-33239499D01*
X51756147Y-33334972D01*
X51697925Y-33443897D01*
X51662073Y-33562087D01*
X51649967Y-33685000D01*
X51649967Y-34735000D01*
X51662073Y-34857913D01*
X51688097Y-34943702D01*
X51685683Y-34945683D01*
X51662137Y-34974374D01*
X51164379Y-35472133D01*
X51135683Y-35495683D01*
X51082583Y-35560386D01*
X51041710Y-35610190D01*
X51032502Y-35627418D01*
X50971882Y-35740831D01*
X50928881Y-35882583D01*
X50918000Y-35993062D01*
X50914362Y-36030000D01*
X50918000Y-36066936D01*
X50918001Y-40188000D01*
X38966935Y-40188000D01*
X38930000Y-40184362D01*
X38893064Y-40188000D01*
X38893062Y-40188000D01*
X38782582Y-40198881D01*
X38640830Y-40241882D01*
X38510190Y-40311710D01*
X38395683Y-40405683D01*
X38372137Y-40434374D01*
X37022000Y-41784512D01*
X37022000Y-41390033D01*
X37070000Y-41390033D01*
X37192913Y-41377927D01*
X37311103Y-41342075D01*
X37420028Y-41283853D01*
X37515501Y-41205501D01*
X37593853Y-41110028D01*
X37652075Y-41001103D01*
X37687927Y-40882913D01*
X37700033Y-40760000D01*
X37700033Y-39160000D01*
X37687927Y-39037087D01*
X37652075Y-38918897D01*
X37593853Y-38809972D01*
X37515501Y-38714499D01*
X37420028Y-38636147D01*
X37311103Y-38577925D01*
X37192913Y-38542073D01*
X37070000Y-38529967D01*
X35470000Y-38529967D01*
X35347087Y-38542073D01*
X35228897Y-38577925D01*
X35119972Y-38636147D01*
X35024499Y-38714499D01*
X35008136Y-38734438D01*
X35006771Y-38729857D01*
X34752624Y-38609757D01*
X34479932Y-38541547D01*
X34199171Y-38527846D01*
X33921133Y-38569182D01*
X33656501Y-38663967D01*
X33533229Y-38729857D01*
X33461194Y-38971588D01*
X34270000Y-39780395D01*
X34284142Y-39766252D01*
X34463748Y-39945858D01*
X34449605Y-39960000D01*
X34463748Y-39974143D01*
X34284142Y-40153748D01*
X34270000Y-40139605D01*
X33461194Y-40948412D01*
X33533229Y-41190143D01*
X33787376Y-41310243D01*
X34060068Y-41378453D01*
X34340829Y-41392154D01*
X34618867Y-41350818D01*
X34883499Y-41256033D01*
X35006771Y-41190143D01*
X35008136Y-41185562D01*
X35024499Y-41205501D01*
X35119972Y-41283853D01*
X35228897Y-41342075D01*
X35347087Y-41377927D01*
X35470000Y-41390033D01*
X35518000Y-41390033D01*
X35518001Y-66423054D01*
X35514362Y-66460000D01*
X35528882Y-66607417D01*
X35571882Y-66749169D01*
X35641710Y-66879810D01*
X35659831Y-66901890D01*
X35735684Y-66994317D01*
X35764375Y-67017863D01*
X39222999Y-70476488D01*
X39222999Y-71571236D01*
X38893750Y-71573000D01*
X38737000Y-71729750D01*
X38737000Y-72923000D01*
X38757000Y-72923000D01*
X38757000Y-73177000D01*
X38737000Y-73177000D01*
X38737000Y-74370250D01*
X38893750Y-74527000D01*
X39223000Y-74528764D01*
X39223000Y-75358054D01*
X39219361Y-75394999D01*
X39233881Y-75542416D01*
X39276881Y-75684168D01*
X39346709Y-75814809D01*
X39398569Y-75878000D01*
X39440683Y-75929316D01*
X39469374Y-75952862D01*
X40453500Y-76936988D01*
X40266501Y-77003967D01*
X40143229Y-77069857D01*
X40071194Y-77311588D01*
X40880000Y-78120395D01*
X40894143Y-78106253D01*
X41073748Y-78285858D01*
X41059605Y-78300000D01*
X41073748Y-78314143D01*
X40894142Y-78493748D01*
X40880000Y-78479605D01*
X40071194Y-79288412D01*
X40143229Y-79530143D01*
X40397376Y-79650243D01*
X40670068Y-79718453D01*
X40950829Y-79732154D01*
X41228867Y-79690818D01*
X41493499Y-79596033D01*
X41616771Y-79530143D01*
X41618136Y-79525562D01*
X41634499Y-79545501D01*
X41729972Y-79623853D01*
X41733002Y-79625472D01*
X41733002Y-79848204D01*
X41455472Y-79793000D01*
X41164528Y-79793000D01*
X40879175Y-79849760D01*
X40610378Y-79961099D01*
X40368467Y-80122739D01*
X40162739Y-80328467D01*
X40034442Y-80520476D01*
X39958333Y-80392840D01*
X39764374Y-80177862D01*
X39532202Y-80004854D01*
X39270739Y-79880465D01*
X39125634Y-79836454D01*
X38897000Y-79955873D01*
X38897000Y-81143000D01*
X38917000Y-81143000D01*
X38917000Y-81397000D01*
X38897000Y-81397000D01*
X38897000Y-81417000D01*
X38643000Y-81417000D01*
X38643000Y-81397000D01*
X37455215Y-81397000D01*
X37336449Y-81625635D01*
X37433375Y-81898473D01*
X37581667Y-82147160D01*
X37775626Y-82362138D01*
X38007798Y-82535146D01*
X38014588Y-82538376D01*
X37828467Y-82662739D01*
X37622739Y-82868467D01*
X37461099Y-83110378D01*
X37349760Y-83379175D01*
X37293000Y-83664528D01*
X37293000Y-83955472D01*
X37349760Y-84240825D01*
X37461099Y-84509622D01*
X37622739Y-84751533D01*
X37828467Y-84957261D01*
X38070378Y-85118901D01*
X38339175Y-85230240D01*
X38624528Y-85287000D01*
X38915472Y-85287000D01*
X39200825Y-85230240D01*
X39469622Y-85118901D01*
X39711533Y-84957261D01*
X39917261Y-84751533D01*
X40040000Y-84567841D01*
X40162739Y-84751533D01*
X40368467Y-84957261D01*
X40610378Y-85118901D01*
X40879175Y-85230240D01*
X41164528Y-85287000D01*
X41455472Y-85287000D01*
X41740825Y-85230240D01*
X42009622Y-85118901D01*
X42025083Y-85108570D01*
X42279513Y-85363000D01*
X35483528Y-85363000D01*
X35957093Y-85046575D01*
X36406575Y-84597093D01*
X36759730Y-84068558D01*
X37002988Y-83481281D01*
X37127000Y-82857832D01*
X37127000Y-82222168D01*
X37002988Y-81598719D01*
X36759730Y-81011442D01*
X36694866Y-80914365D01*
X37336449Y-80914365D01*
X37455215Y-81143000D01*
X38643000Y-81143000D01*
X38643000Y-79955873D01*
X38414366Y-79836454D01*
X38269261Y-79880465D01*
X38007798Y-80004854D01*
X37775626Y-80177862D01*
X37581667Y-80392840D01*
X37433375Y-80641527D01*
X37336449Y-80914365D01*
X36694866Y-80914365D01*
X36406575Y-80482907D01*
X35957093Y-80033425D01*
X35428558Y-79680270D01*
X34841281Y-79437012D01*
X34217832Y-79313000D01*
X33582168Y-79313000D01*
X32958719Y-79437012D01*
X32371442Y-79680270D01*
X31842907Y-80033425D01*
X31393425Y-80482907D01*
X31077000Y-80956472D01*
X31077000Y-78370829D01*
X39447846Y-78370829D01*
X39489182Y-78648867D01*
X39583967Y-78913499D01*
X39649857Y-79036771D01*
X39891588Y-79108806D01*
X40700395Y-78300000D01*
X39891588Y-77491194D01*
X39649857Y-77563229D01*
X39529757Y-77817376D01*
X39461547Y-78090068D01*
X39447846Y-78370829D01*
X31077000Y-78370829D01*
X31077000Y-73900000D01*
X37129966Y-73900000D01*
X37142072Y-74022914D01*
X37177924Y-74141104D01*
X37236146Y-74250028D01*
X37314499Y-74345501D01*
X37409972Y-74423854D01*
X37518896Y-74482076D01*
X37637086Y-74517928D01*
X37760000Y-74530034D01*
X38326250Y-74527000D01*
X38483000Y-74370250D01*
X38483000Y-73177000D01*
X37289750Y-73177000D01*
X37133000Y-73333750D01*
X37129966Y-73900000D01*
X31077000Y-73900000D01*
X31077000Y-72200000D01*
X37129966Y-72200000D01*
X37133000Y-72766250D01*
X37289750Y-72923000D01*
X38483000Y-72923000D01*
X38483000Y-71729750D01*
X38326250Y-71573000D01*
X37760000Y-71569966D01*
X37637086Y-71582072D01*
X37518896Y-71617924D01*
X37409972Y-71676146D01*
X37314499Y-71754499D01*
X37236146Y-71849972D01*
X37177924Y-71958896D01*
X37142072Y-72077086D01*
X37129966Y-72200000D01*
X31077000Y-72200000D01*
X31077000Y-40030829D01*
X32837846Y-40030829D01*
X32879182Y-40308867D01*
X32973967Y-40573499D01*
X33039857Y-40696771D01*
X33281588Y-40768806D01*
X34090395Y-39960000D01*
X33281588Y-39151194D01*
X33039857Y-39223229D01*
X32919757Y-39477376D01*
X32851547Y-39750068D01*
X32837846Y-40030829D01*
X31077000Y-40030829D01*
X31077000Y-35123528D01*
X31393425Y-35597093D01*
X31842907Y-36046575D01*
X32371442Y-36399730D01*
X32958719Y-36642988D01*
X33582168Y-36767000D01*
X34217832Y-36767000D01*
X34841281Y-36642988D01*
X35428558Y-36399730D01*
X35957093Y-36046575D01*
X36406575Y-35597093D01*
X36759730Y-35068558D01*
X37002988Y-34481281D01*
X37127000Y-33857832D01*
X37127000Y-33222168D01*
X37002988Y-32598719D01*
X36759730Y-32011442D01*
X36406575Y-31482907D01*
X35957093Y-31033425D01*
X35483528Y-30717000D01*
X39013984Y-30717000D01*
X38952647Y-30808798D01*
%TA.AperFunction,Conductor*%
D27*
G36*
X38952647Y-30808798D02*
G01*
X38860153Y-31032097D01*
X38813000Y-31269151D01*
X38813000Y-31510849D01*
X38860153Y-31747903D01*
X38952647Y-31971202D01*
X39086927Y-32172167D01*
X39257833Y-32343073D01*
X39458798Y-32477353D01*
X39682097Y-32569847D01*
X39919151Y-32617000D01*
X40160849Y-32617000D01*
X40397903Y-32569847D01*
X40621202Y-32477353D01*
X40822167Y-32343073D01*
X40993073Y-32172167D01*
X41127353Y-31971202D01*
X41212574Y-31765462D01*
X41219954Y-31802565D01*
X41326575Y-32059970D01*
X41481364Y-32291628D01*
X41678372Y-32488636D01*
X41910030Y-32643425D01*
X42167435Y-32750046D01*
X42440694Y-32804400D01*
X42719306Y-32804400D01*
X42992565Y-32750046D01*
X43249970Y-32643425D01*
X43481628Y-32488636D01*
X43678636Y-32291628D01*
X43833425Y-32059970D01*
X43850000Y-32019955D01*
X43866575Y-32059970D01*
X44021364Y-32291628D01*
X44218372Y-32488636D01*
X44450030Y-32643425D01*
X44707435Y-32750046D01*
X44980694Y-32804400D01*
X45259306Y-32804400D01*
X45532565Y-32750046D01*
X45789970Y-32643425D01*
X46021628Y-32488636D01*
X46218636Y-32291628D01*
X46373425Y-32059970D01*
X46390000Y-32019955D01*
X46406575Y-32059970D01*
X46561364Y-32291628D01*
X46758372Y-32488636D01*
X46990030Y-32643425D01*
X47247435Y-32750046D01*
X47520694Y-32804400D01*
X47799306Y-32804400D01*
X48072565Y-32750046D01*
X48329970Y-32643425D01*
X48561628Y-32488636D01*
X48680850Y-32369414D01*
X49400192Y-32369414D01*
X49470701Y-32609859D01*
X49722697Y-32728700D01*
X49993035Y-32796094D01*
X50271327Y-32809453D01*
X50546879Y-32768264D01*
X50809100Y-32674108D01*
X50929299Y-32609859D01*
X50999808Y-32369414D01*
X50200000Y-31569605D01*
X49400192Y-32369414D01*
X48680850Y-32369414D01*
X48758636Y-32291628D01*
X48913425Y-32059970D01*
X48928707Y-32023075D01*
X48980141Y-32119299D01*
X49220586Y-32189808D01*
X50020395Y-31390000D01*
X50006252Y-31375858D01*
X50185858Y-31196252D01*
X50200000Y-31210395D01*
X50214142Y-31196252D01*
X50393748Y-31375858D01*
X50379605Y-31390000D01*
X51179414Y-32189808D01*
X51419859Y-32119299D01*
X51468461Y-32016240D01*
X51486575Y-32059970D01*
X51641364Y-32291628D01*
X51838372Y-32488636D01*
X52070030Y-32643425D01*
X52327435Y-32750046D01*
X52600694Y-32804400D01*
X52879306Y-32804400D01*
X53152565Y-32750046D01*
X53409970Y-32643425D01*
X53641628Y-32488636D01*
X53838636Y-32291628D01*
X53993425Y-32059970D01*
X54010000Y-32019955D01*
X54026575Y-32059970D01*
X54181364Y-32291628D01*
X54378372Y-32488636D01*
X54610030Y-32643425D01*
X54867435Y-32750046D01*
X55140694Y-32804400D01*
X55419306Y-32804400D01*
X55692565Y-32750046D01*
X55949970Y-32643425D01*
X56181628Y-32488636D01*
X56378636Y-32291628D01*
X56533425Y-32059970D01*
X56550000Y-32019955D01*
X56566575Y-32059970D01*
X56721364Y-32291628D01*
X56918372Y-32488636D01*
X57150030Y-32643425D01*
X57407435Y-32750046D01*
X57680694Y-32804400D01*
X57959306Y-32804400D01*
X58232565Y-32750046D01*
X58489970Y-32643425D01*
X58721628Y-32488636D01*
X58918636Y-32291628D01*
X59073425Y-32059970D01*
X59090000Y-32019955D01*
X59106575Y-32059970D01*
X59261364Y-32291628D01*
X59458372Y-32488636D01*
X59690030Y-32643425D01*
X59947435Y-32750046D01*
X60220694Y-32804400D01*
X60499306Y-32804400D01*
X60772565Y-32750046D01*
X61029970Y-32643425D01*
X61261628Y-32488636D01*
X61458636Y-32291628D01*
X61613425Y-32059970D01*
X61630000Y-32019955D01*
X61646575Y-32059970D01*
X61801364Y-32291628D01*
X61998372Y-32488636D01*
X62230030Y-32643425D01*
X62487435Y-32750046D01*
X62760694Y-32804400D01*
X63039306Y-32804400D01*
X63312565Y-32750046D01*
X63569970Y-32643425D01*
X63801628Y-32488636D01*
X63998636Y-32291628D01*
X64153425Y-32059970D01*
X64170000Y-32019955D01*
X64186575Y-32059970D01*
X64341364Y-32291628D01*
X64538372Y-32488636D01*
X64770030Y-32643425D01*
X65027435Y-32750046D01*
X65300694Y-32804400D01*
X65579306Y-32804400D01*
X65852565Y-32750046D01*
X66109970Y-32643425D01*
X66341628Y-32488636D01*
X66538636Y-32291628D01*
X66693425Y-32059970D01*
X66710000Y-32019955D01*
X66726575Y-32059970D01*
X66881364Y-32291628D01*
X67078372Y-32488636D01*
X67310030Y-32643425D01*
X67567435Y-32750046D01*
X67840694Y-32804400D01*
X68119306Y-32804400D01*
X68392565Y-32750046D01*
X68649970Y-32643425D01*
X68881628Y-32488636D01*
X69078636Y-32291628D01*
X69233425Y-32059970D01*
X69250000Y-32019955D01*
X69266575Y-32059970D01*
X69421364Y-32291628D01*
X69618372Y-32488636D01*
X69850030Y-32643425D01*
X70107435Y-32750046D01*
X70380694Y-32804400D01*
X70659306Y-32804400D01*
X70932565Y-32750046D01*
X71189970Y-32643425D01*
X71421628Y-32488636D01*
X71618636Y-32291628D01*
X71773425Y-32059970D01*
X71790000Y-32019955D01*
X71806575Y-32059970D01*
X71961364Y-32291628D01*
X72158372Y-32488636D01*
X72390030Y-32643425D01*
X72647435Y-32750046D01*
X72920694Y-32804400D01*
X73199306Y-32804400D01*
X73472565Y-32750046D01*
X73729970Y-32643425D01*
X73961628Y-32488636D01*
X74158636Y-32291628D01*
X74313425Y-32059970D01*
X74330000Y-32019955D01*
X74346575Y-32059970D01*
X74501364Y-32291628D01*
X74698372Y-32488636D01*
X74930030Y-32643425D01*
X75187435Y-32750046D01*
X75460694Y-32804400D01*
X75739306Y-32804400D01*
X76012565Y-32750046D01*
X76269970Y-32643425D01*
X76501628Y-32488636D01*
X76698636Y-32291628D01*
X76853425Y-32059970D01*
X76870000Y-32019955D01*
X76886575Y-32059970D01*
X77041364Y-32291628D01*
X77238372Y-32488636D01*
X77470030Y-32643425D01*
X77727435Y-32750046D01*
X78000694Y-32804400D01*
X78279306Y-32804400D01*
X78552565Y-32750046D01*
X78809970Y-32643425D01*
X79041628Y-32488636D01*
X79238636Y-32291628D01*
X79393425Y-32059970D01*
X79410000Y-32019955D01*
X79426575Y-32059970D01*
X79581364Y-32291628D01*
X79778372Y-32488636D01*
X80010030Y-32643425D01*
X80267435Y-32750046D01*
X80540694Y-32804400D01*
X80819306Y-32804400D01*
X81092565Y-32750046D01*
X81349970Y-32643425D01*
X81581628Y-32488636D01*
X81778636Y-32291628D01*
X81933425Y-32059970D01*
X81950000Y-32019955D01*
X81966575Y-32059970D01*
X82121364Y-32291628D01*
X82318372Y-32488636D01*
X82550030Y-32643425D01*
X82807435Y-32750046D01*
X83080694Y-32804400D01*
X83359306Y-32804400D01*
X83535804Y-32769293D01*
X83888001Y-33121490D01*
X83888000Y-36932646D01*
X83851104Y-36912924D01*
X83732914Y-36877072D01*
X83610000Y-36864966D01*
X83143750Y-36868000D01*
X82987000Y-37024750D01*
X82987000Y-37893000D01*
X83007000Y-37893000D01*
X83007000Y-38138000D01*
X82578405Y-38138000D01*
X82487025Y-38147000D01*
X81639750Y-38147000D01*
X81483000Y-38303750D01*
X81479966Y-38545000D01*
X81492072Y-38667914D01*
X81527924Y-38786104D01*
X81563710Y-38853053D01*
X81499668Y-39064169D01*
X81477426Y-39290000D01*
X81499668Y-39515831D01*
X81565541Y-39732984D01*
X81668175Y-39925000D01*
X81565541Y-40117016D01*
X81499668Y-40334169D01*
X81477426Y-40560000D01*
X81499668Y-40785831D01*
X81565541Y-41002984D01*
X81672512Y-41203114D01*
X81816472Y-41378528D01*
X81991886Y-41522488D01*
X82192016Y-41629459D01*
X82409169Y-41695332D01*
X82578405Y-41712000D01*
X83141595Y-41712000D01*
X83310831Y-41695332D01*
X83527984Y-41629459D01*
X83728114Y-41522488D01*
X83903528Y-41378528D01*
X84047488Y-41203114D01*
X84154459Y-41002984D01*
X84220332Y-40785831D01*
X84242574Y-40560000D01*
X84220332Y-40334169D01*
X84154459Y-40117016D01*
X84118639Y-40050000D01*
X90419967Y-40050000D01*
X90419967Y-41750000D01*
X90432073Y-41872913D01*
X90467925Y-41991103D01*
X90526147Y-42100028D01*
X90604499Y-42195501D01*
X90699972Y-42273853D01*
X90808897Y-42332075D01*
X90927087Y-42367927D01*
X91050000Y-42380033D01*
X92750000Y-42380033D01*
X92872913Y-42367927D01*
X92991103Y-42332075D01*
X93100028Y-42273853D01*
X93195501Y-42195501D01*
X93273853Y-42100028D01*
X93332075Y-41991103D01*
X93367927Y-41872913D01*
X93380033Y-41750000D01*
X93380033Y-40050000D01*
X93367927Y-39927087D01*
X93332075Y-39808897D01*
X93273853Y-39699972D01*
X93195501Y-39604499D01*
X93100028Y-39526147D01*
X92991103Y-39467925D01*
X92906525Y-39442269D01*
X93047261Y-39301533D01*
X93208901Y-39059622D01*
X93320240Y-38790825D01*
X93377000Y-38505472D01*
X93377000Y-38214528D01*
X93320240Y-37929175D01*
X93208901Y-37660378D01*
X93047261Y-37418467D01*
X92841533Y-37212739D01*
X92599622Y-37051099D01*
X92330825Y-36939760D01*
X92045472Y-36883000D01*
X91754528Y-36883000D01*
X91469175Y-36939760D01*
X91200378Y-37051099D01*
X90958467Y-37212739D01*
X90752739Y-37418467D01*
X90591099Y-37660378D01*
X90479760Y-37929175D01*
X90423000Y-38214528D01*
X90423000Y-38505472D01*
X90479760Y-38790825D01*
X90591099Y-39059622D01*
X90752739Y-39301533D01*
X90893475Y-39442269D01*
X90808897Y-39467925D01*
X90699972Y-39526147D01*
X90604499Y-39604499D01*
X90526147Y-39699972D01*
X90467925Y-39808897D01*
X90432073Y-39927087D01*
X90419967Y-40050000D01*
X84118639Y-40050000D01*
X84114991Y-40043176D01*
X84126935Y-40042000D01*
X84126938Y-40042000D01*
X84237418Y-40031119D01*
X84379170Y-39988118D01*
X84509810Y-39918290D01*
X84624317Y-39824317D01*
X84647867Y-39795621D01*
X85145627Y-39297862D01*
X85174317Y-39274317D01*
X85220163Y-39218453D01*
X85268290Y-39159811D01*
X85305613Y-39089983D01*
X85338118Y-39029170D01*
X85381119Y-38887418D01*
X85392000Y-38776938D01*
X85392000Y-38776936D01*
X85395638Y-38740001D01*
X85392000Y-38703065D01*
X85392000Y-32846935D01*
X85395638Y-32809999D01*
X85390592Y-32758765D01*
X85381119Y-32662582D01*
X85345930Y-32546582D01*
X85402097Y-32569847D01*
X85639151Y-32617000D01*
X85880849Y-32617000D01*
X86117903Y-32569847D01*
X86341202Y-32477353D01*
X86542167Y-32343073D01*
X86713073Y-32172167D01*
X86847353Y-31971202D01*
X86939847Y-31747903D01*
X86987000Y-31510849D01*
X86987000Y-31269151D01*
X86939847Y-31032097D01*
X86847353Y-30808798D01*
X86786016Y-30717000D01*
X90316472Y-30717000D01*
X89842907Y-31033425D01*
X89393425Y-31482907D01*
X89040270Y-32011442D01*
X88797012Y-32598719D01*
X88673000Y-33222168D01*
X88673000Y-33857832D01*
X88797012Y-34481281D01*
X89040270Y-35068558D01*
X89393425Y-35597093D01*
X89842907Y-36046575D01*
X90371442Y-36399730D01*
X90958719Y-36642988D01*
X91582168Y-36767000D01*
X92217832Y-36767000D01*
X92841281Y-36642988D01*
X93428558Y-36399730D01*
X93957093Y-36046575D01*
X94406575Y-35597093D01*
X94723001Y-35123527D01*
X94723000Y-48363000D01*
X93100794Y-48363000D01*
X93070000Y-48359967D01*
X90070000Y-48359967D01*
X90039206Y-48363000D01*
X68943135Y-48363000D01*
X69048270Y-48276718D01*
X69071820Y-48248022D01*
X69604789Y-47715053D01*
X69618372Y-47728636D01*
X69850030Y-47883425D01*
X70107435Y-47990046D01*
X70380694Y-48044400D01*
X70659306Y-48044400D01*
X70932565Y-47990046D01*
X71189970Y-47883425D01*
X71421628Y-47728636D01*
X71618636Y-47531628D01*
X71773425Y-47299970D01*
X71790000Y-47259955D01*
X71806575Y-47299970D01*
X71961364Y-47531628D01*
X72158372Y-47728636D01*
X72390030Y-47883425D01*
X72647435Y-47990046D01*
X72920694Y-48044400D01*
X73199306Y-48044400D01*
X73472565Y-47990046D01*
X73729970Y-47883425D01*
X73961628Y-47728636D01*
X74158636Y-47531628D01*
X74313425Y-47299970D01*
X74330000Y-47259955D01*
X74346575Y-47299970D01*
X74501364Y-47531628D01*
X74698372Y-47728636D01*
X74930030Y-47883425D01*
X75187435Y-47990046D01*
X75460694Y-48044400D01*
X75739306Y-48044400D01*
X76012565Y-47990046D01*
X76269970Y-47883425D01*
X76501628Y-47728636D01*
X76698636Y-47531628D01*
X76853425Y-47299970D01*
X76870000Y-47259955D01*
X76886575Y-47299970D01*
X77041364Y-47531628D01*
X77238372Y-47728636D01*
X77470030Y-47883425D01*
X77727435Y-47990046D01*
X78000694Y-48044400D01*
X78279306Y-48044400D01*
X78552565Y-47990046D01*
X78809970Y-47883425D01*
X79041628Y-47728636D01*
X79238636Y-47531628D01*
X79393425Y-47299970D01*
X79410000Y-47259955D01*
X79426575Y-47299970D01*
X79581364Y-47531628D01*
X79778372Y-47728636D01*
X80010030Y-47883425D01*
X80267435Y-47990046D01*
X80540694Y-48044400D01*
X80819306Y-48044400D01*
X81092565Y-47990046D01*
X81349970Y-47883425D01*
X81581628Y-47728636D01*
X81778636Y-47531628D01*
X81933425Y-47299970D01*
X81950000Y-47259955D01*
X81966575Y-47299970D01*
X82121364Y-47531628D01*
X82318372Y-47728636D01*
X82550030Y-47883425D01*
X82807435Y-47990046D01*
X83080694Y-48044400D01*
X83359306Y-48044400D01*
X83632565Y-47990046D01*
X83889970Y-47883425D01*
X84121628Y-47728636D01*
X84318636Y-47531628D01*
X84473425Y-47299970D01*
X84580046Y-47042565D01*
X84587426Y-47005462D01*
X84672647Y-47211202D01*
X84806927Y-47412167D01*
X84977833Y-47583073D01*
X85178798Y-47717353D01*
X85402097Y-47809847D01*
X85639151Y-47857000D01*
X85880849Y-47857000D01*
X86117903Y-47809847D01*
X86341202Y-47717353D01*
X86542167Y-47583073D01*
X86713073Y-47412167D01*
X86847353Y-47211202D01*
X86939847Y-46987903D01*
X86957854Y-46897375D01*
X90262230Y-46897375D01*
X90418697Y-47210699D01*
X90792117Y-47400708D01*
X91195432Y-47514215D01*
X91613141Y-47546858D01*
X92029192Y-47497382D01*
X92427597Y-47367689D01*
X92721303Y-47210699D01*
X92877770Y-46897375D01*
X91570000Y-45589605D01*
X90262230Y-46897375D01*
X86957854Y-46897375D01*
X86987000Y-46750849D01*
X86987000Y-46509151D01*
X86939847Y-46272097D01*
X86847353Y-46048798D01*
X86713073Y-45847833D01*
X86542167Y-45676927D01*
X86341202Y-45542647D01*
X86125117Y-45453141D01*
X89433142Y-45453141D01*
X89482618Y-45869192D01*
X89612311Y-46267597D01*
X89769301Y-46561303D01*
X90082625Y-46717770D01*
X91390395Y-45410000D01*
X91749605Y-45410000D01*
X93057375Y-46717770D01*
X93370699Y-46561303D01*
X93560708Y-46187883D01*
X93674215Y-45784568D01*
X93706858Y-45366859D01*
X93657382Y-44950808D01*
X93527689Y-44552403D01*
X93370699Y-44258697D01*
X93057375Y-44102230D01*
X91749605Y-45410000D01*
X91390395Y-45410000D01*
X90082625Y-44102230D01*
X89769301Y-44258697D01*
X89579292Y-44632117D01*
X89465785Y-45035432D01*
X89433142Y-45453141D01*
X86125117Y-45453141D01*
X86117903Y-45450153D01*
X85880849Y-45403000D01*
X85639151Y-45403000D01*
X85402097Y-45450153D01*
X85178798Y-45542647D01*
X84977833Y-45676927D01*
X84806927Y-45847833D01*
X84672647Y-46048798D01*
X84587426Y-46254538D01*
X84580046Y-46217435D01*
X84473425Y-45960030D01*
X84318636Y-45728372D01*
X84121628Y-45531364D01*
X83889970Y-45376575D01*
X83632565Y-45269954D01*
X83359306Y-45215600D01*
X83080694Y-45215600D01*
X82807435Y-45269954D01*
X82550030Y-45376575D01*
X82318372Y-45531364D01*
X82121364Y-45728372D01*
X81966575Y-45960030D01*
X81950000Y-46000045D01*
X81933425Y-45960030D01*
X81778636Y-45728372D01*
X81581628Y-45531364D01*
X81349970Y-45376575D01*
X81092565Y-45269954D01*
X80819306Y-45215600D01*
X80540694Y-45215600D01*
X80267435Y-45269954D01*
X80010030Y-45376575D01*
X79778372Y-45531364D01*
X79581364Y-45728372D01*
X79426575Y-45960030D01*
X79410000Y-46000045D01*
X79393425Y-45960030D01*
X79238636Y-45728372D01*
X79041628Y-45531364D01*
X78809970Y-45376575D01*
X78552565Y-45269954D01*
X78279306Y-45215600D01*
X78000694Y-45215600D01*
X77727435Y-45269954D01*
X77470030Y-45376575D01*
X77238372Y-45531364D01*
X77041364Y-45728372D01*
X76886575Y-45960030D01*
X76870000Y-46000045D01*
X76853425Y-45960030D01*
X76698636Y-45728372D01*
X76501628Y-45531364D01*
X76269970Y-45376575D01*
X76012565Y-45269954D01*
X75739306Y-45215600D01*
X75460694Y-45215600D01*
X75187435Y-45269954D01*
X74930030Y-45376575D01*
X74698372Y-45531364D01*
X74501364Y-45728372D01*
X74346575Y-45960030D01*
X74330000Y-46000045D01*
X74313425Y-45960030D01*
X74158636Y-45728372D01*
X73961628Y-45531364D01*
X73729970Y-45376575D01*
X73472565Y-45269954D01*
X73199306Y-45215600D01*
X72920694Y-45215600D01*
X72647435Y-45269954D01*
X72390030Y-45376575D01*
X72158372Y-45531364D01*
X71961364Y-45728372D01*
X71806575Y-45960030D01*
X71790000Y-46000045D01*
X71773425Y-45960030D01*
X71618636Y-45728372D01*
X71421628Y-45531364D01*
X71189970Y-45376575D01*
X70932565Y-45269954D01*
X70659306Y-45215600D01*
X70517888Y-45215600D01*
X70935621Y-44797867D01*
X70964317Y-44774317D01*
X71058290Y-44659810D01*
X71128118Y-44529170D01*
X71171119Y-44387418D01*
X71182000Y-44276938D01*
X71182000Y-44276936D01*
X71185638Y-44240000D01*
X71182000Y-44203065D01*
X71182000Y-43922625D01*
X90262230Y-43922625D01*
X91570000Y-45230395D01*
X92877770Y-43922625D01*
X92721303Y-43609301D01*
X92347883Y-43419292D01*
X91944568Y-43305785D01*
X91526859Y-43273142D01*
X91110808Y-43322618D01*
X90712403Y-43452311D01*
X90418697Y-43609301D01*
X90262230Y-43922625D01*
X71182000Y-43922625D01*
X71182000Y-42013768D01*
X71339660Y-41908424D01*
X71538424Y-41709660D01*
X71694591Y-41475938D01*
X71802162Y-41216241D01*
X71857000Y-40940547D01*
X71857000Y-40659453D01*
X76623000Y-40659453D01*
X76623000Y-40940547D01*
X76677838Y-41216241D01*
X76785409Y-41475938D01*
X76941576Y-41709660D01*
X77140340Y-41908424D01*
X77374062Y-42064591D01*
X77633759Y-42172162D01*
X77909453Y-42227000D01*
X78190547Y-42227000D01*
X78466241Y-42172162D01*
X78725938Y-42064591D01*
X78959660Y-41908424D01*
X79158424Y-41709660D01*
X79314591Y-41475938D01*
X79422162Y-41216241D01*
X79477000Y-40940547D01*
X79477000Y-40659453D01*
X79422162Y-40383759D01*
X79314591Y-40124062D01*
X79158424Y-39890340D01*
X78959660Y-39691576D01*
X78725938Y-39535409D01*
X78466241Y-39427838D01*
X78190547Y-39373000D01*
X77909453Y-39373000D01*
X77633759Y-39427838D01*
X77374062Y-39535409D01*
X77140340Y-39691576D01*
X76941576Y-39890340D01*
X76785409Y-40124062D01*
X76677838Y-40383759D01*
X76623000Y-40659453D01*
X71857000Y-40659453D01*
X71802162Y-40383759D01*
X71694591Y-40124062D01*
X71538424Y-39890340D01*
X71339660Y-39691576D01*
X71105938Y-39535409D01*
X70846241Y-39427838D01*
X70570547Y-39373000D01*
X70289453Y-39373000D01*
X70013759Y-39427838D01*
X69754062Y-39535409D01*
X69520340Y-39691576D01*
X69321576Y-39890340D01*
X69165409Y-40124062D01*
X69057838Y-40383759D01*
X69003000Y-40659453D01*
X69003000Y-40940547D01*
X69057838Y-41216241D01*
X69165409Y-41475938D01*
X69321576Y-41709660D01*
X69520340Y-41908424D01*
X69678000Y-42013769D01*
X69678001Y-43928511D01*
X68764379Y-44842133D01*
X68735683Y-44865683D01*
X68682583Y-44930386D01*
X68641710Y-44980190D01*
X68619051Y-45022583D01*
X68571882Y-45110831D01*
X68528881Y-45252583D01*
X68522496Y-45317417D01*
X68521895Y-45323524D01*
X68392565Y-45269954D01*
X68119306Y-45215600D01*
X67840694Y-45215600D01*
X67567435Y-45269954D01*
X67310030Y-45376575D01*
X67078372Y-45531364D01*
X66881364Y-45728372D01*
X66726575Y-45960030D01*
X66710000Y-46000045D01*
X66693425Y-45960030D01*
X66538636Y-45728372D01*
X66341628Y-45531364D01*
X66109970Y-45376575D01*
X65852565Y-45269954D01*
X65579306Y-45215600D01*
X65300694Y-45215600D01*
X65027435Y-45269954D01*
X64770030Y-45376575D01*
X64538372Y-45531364D01*
X64341364Y-45728372D01*
X64186575Y-45960030D01*
X64170000Y-46000045D01*
X64153425Y-45960030D01*
X64004433Y-45737048D01*
X64044317Y-45704317D01*
X64067867Y-45675621D01*
X65933480Y-43810008D01*
X66119453Y-43847000D01*
X66400547Y-43847000D01*
X66676241Y-43792162D01*
X66935938Y-43684591D01*
X67169660Y-43528424D01*
X67368424Y-43329660D01*
X67524591Y-43095938D01*
X67632162Y-42836241D01*
X67687000Y-42560547D01*
X67687000Y-42279453D01*
X67632162Y-42003759D01*
X67524591Y-41744062D01*
X67368424Y-41510340D01*
X67169660Y-41311576D01*
X67012000Y-41206232D01*
X67012000Y-38886935D01*
X67015638Y-38849999D01*
X67012000Y-38813062D01*
X67009573Y-38788412D01*
X69621194Y-38788412D01*
X69693229Y-39030143D01*
X69947376Y-39150243D01*
X70220068Y-39218453D01*
X70500829Y-39232154D01*
X70778867Y-39190818D01*
X71043499Y-39096033D01*
X71166771Y-39030143D01*
X71238806Y-38788412D01*
X70430000Y-37979605D01*
X69621194Y-38788412D01*
X67009573Y-38788412D01*
X67001119Y-38702582D01*
X66958118Y-38560830D01*
X66888291Y-38430191D01*
X66888290Y-38430189D01*
X66817863Y-38344374D01*
X66794317Y-38315683D01*
X66765627Y-38292138D01*
X66344318Y-37870829D01*
X68997846Y-37870829D01*
X69039182Y-38148867D01*
X69133967Y-38413499D01*
X69199857Y-38536771D01*
X69441588Y-38608806D01*
X70250395Y-37800000D01*
X70609605Y-37800000D01*
X71418412Y-38608806D01*
X71660143Y-38536771D01*
X71780243Y-38282624D01*
X71848453Y-38009932D01*
X71862154Y-37729171D01*
X71851790Y-37659453D01*
X76623000Y-37659453D01*
X76623000Y-37940547D01*
X76677838Y-38216241D01*
X76785409Y-38475938D01*
X76941576Y-38709660D01*
X77140340Y-38908424D01*
X77374062Y-39064591D01*
X77633759Y-39172162D01*
X77909453Y-39227000D01*
X78190547Y-39227000D01*
X78466241Y-39172162D01*
X78725938Y-39064591D01*
X78959660Y-38908424D01*
X79158424Y-38709660D01*
X79314591Y-38475938D01*
X79422162Y-38216241D01*
X79477000Y-37940547D01*
X79477000Y-37659453D01*
X79444289Y-37495000D01*
X81479966Y-37495000D01*
X81483000Y-37736250D01*
X81639750Y-37893000D01*
X82733000Y-37893000D01*
X82733000Y-37024750D01*
X82576250Y-36868000D01*
X82110000Y-36864966D01*
X81987086Y-36877072D01*
X81868896Y-36912924D01*
X81759972Y-36971146D01*
X81664499Y-37049499D01*
X81586146Y-37144972D01*
X81527924Y-37253896D01*
X81492072Y-37372086D01*
X81479966Y-37495000D01*
X79444289Y-37495000D01*
X79422162Y-37383759D01*
X79314591Y-37124062D01*
X79158424Y-36890340D01*
X78959660Y-36691576D01*
X78725938Y-36535409D01*
X78466241Y-36427838D01*
X78190547Y-36373000D01*
X77909453Y-36373000D01*
X77633759Y-36427838D01*
X77374062Y-36535409D01*
X77140340Y-36691576D01*
X76941576Y-36890340D01*
X76785409Y-37124062D01*
X76677838Y-37383759D01*
X76623000Y-37659453D01*
X71851790Y-37659453D01*
X71820818Y-37451133D01*
X71726033Y-37186501D01*
X71660143Y-37063229D01*
X71418412Y-36991194D01*
X70609605Y-37800000D01*
X70250395Y-37800000D01*
X69441588Y-36991194D01*
X69199857Y-37063229D01*
X69079757Y-37317376D01*
X69011547Y-37590068D01*
X68997846Y-37870829D01*
X66344318Y-37870829D01*
X65285077Y-36811588D01*
X69621194Y-36811588D01*
X70430000Y-37620395D01*
X71238806Y-36811588D01*
X71166771Y-36569857D01*
X70912624Y-36449757D01*
X70639932Y-36381547D01*
X70359171Y-36367846D01*
X70081133Y-36409182D01*
X69816501Y-36503967D01*
X69693229Y-36569857D01*
X69621194Y-36811588D01*
X65285077Y-36811588D01*
X64717867Y-36244379D01*
X64694317Y-36215683D01*
X64579810Y-36121710D01*
X64449170Y-36051882D01*
X64307418Y-36008881D01*
X64196938Y-35998000D01*
X64196935Y-35998000D01*
X64160000Y-35994362D01*
X64123065Y-35998000D01*
X64035599Y-35998000D01*
X64169660Y-35908424D01*
X64368424Y-35709660D01*
X64524591Y-35475938D01*
X64632162Y-35216241D01*
X64687000Y-34940547D01*
X64687000Y-34659453D01*
X64833000Y-34659453D01*
X64833000Y-34940547D01*
X64887838Y-35216241D01*
X64995409Y-35475938D01*
X65151576Y-35709660D01*
X65350340Y-35908424D01*
X65584062Y-36064591D01*
X65843759Y-36172162D01*
X66119453Y-36227000D01*
X66400547Y-36227000D01*
X66676241Y-36172162D01*
X66935938Y-36064591D01*
X67169660Y-35908424D01*
X67368424Y-35709660D01*
X67524591Y-35475938D01*
X67632162Y-35216241D01*
X67687000Y-34940547D01*
X67687000Y-34659453D01*
X67632162Y-34383759D01*
X67524591Y-34124062D01*
X67368424Y-33890340D01*
X67169660Y-33691576D01*
X66935938Y-33535409D01*
X66676241Y-33427838D01*
X66400547Y-33373000D01*
X66119453Y-33373000D01*
X65843759Y-33427838D01*
X65584062Y-33535409D01*
X65350340Y-33691576D01*
X65151576Y-33890340D01*
X64995409Y-34124062D01*
X64887838Y-34383759D01*
X64833000Y-34659453D01*
X64687000Y-34659453D01*
X64632162Y-34383759D01*
X64524591Y-34124062D01*
X64368424Y-33890340D01*
X64169660Y-33691576D01*
X63935938Y-33535409D01*
X63676241Y-33427838D01*
X63400547Y-33373000D01*
X63119453Y-33373000D01*
X62843759Y-33427838D01*
X62584062Y-33535409D01*
X62350340Y-33691576D01*
X62151576Y-33890340D01*
X61995409Y-34124062D01*
X61887838Y-34383759D01*
X61833000Y-34659453D01*
X61833000Y-34940547D01*
X61887838Y-35216241D01*
X61995409Y-35475938D01*
X62151576Y-35709660D01*
X62350340Y-35908424D01*
X62484401Y-35998000D01*
X61035599Y-35998000D01*
X61169660Y-35908424D01*
X61368424Y-35709660D01*
X61524591Y-35475938D01*
X61632162Y-35216241D01*
X61687000Y-34940547D01*
X61687000Y-34659453D01*
X61632162Y-34383759D01*
X61524591Y-34124062D01*
X61368424Y-33890340D01*
X61169660Y-33691576D01*
X60935938Y-33535409D01*
X60676241Y-33427838D01*
X60400547Y-33373000D01*
X60119453Y-33373000D01*
X59843759Y-33427838D01*
X59584062Y-33535409D01*
X59350340Y-33691576D01*
X59151576Y-33890340D01*
X58995409Y-34124062D01*
X58887838Y-34383759D01*
X58833000Y-34659453D01*
X58833000Y-34940547D01*
X58887838Y-35216241D01*
X58995409Y-35475938D01*
X59151576Y-35709660D01*
X59350340Y-35908424D01*
X59484401Y-35998000D01*
X58035599Y-35998000D01*
X58169660Y-35908424D01*
X58368424Y-35709660D01*
X58524591Y-35475938D01*
X58632162Y-35216241D01*
X58687000Y-34940547D01*
X58687000Y-34659453D01*
X58632162Y-34383759D01*
X58524591Y-34124062D01*
X58368424Y-33890340D01*
X58169660Y-33691576D01*
X57935938Y-33535409D01*
X57676241Y-33427838D01*
X57400547Y-33373000D01*
X57119453Y-33373000D01*
X56843759Y-33427838D01*
X56584062Y-33535409D01*
X56350340Y-33691576D01*
X56151576Y-33890340D01*
X55995409Y-34124062D01*
X55887838Y-34383759D01*
X55833000Y-34659453D01*
X55833000Y-34940547D01*
X55887838Y-35216241D01*
X55995409Y-35475938D01*
X56151576Y-35709660D01*
X56350340Y-35908424D01*
X56484401Y-35998000D01*
X54284362Y-35998000D01*
X54324459Y-35922984D01*
X54390332Y-35705831D01*
X54412574Y-35480000D01*
X54390332Y-35254169D01*
X54326290Y-35043052D01*
X54362075Y-34976103D01*
X54397927Y-34857913D01*
X54410033Y-34735000D01*
X54410033Y-33685000D01*
X54397927Y-33562087D01*
X54362075Y-33443897D01*
X54303853Y-33334972D01*
X54225501Y-33239499D01*
X54130028Y-33161147D01*
X54021103Y-33102925D01*
X53902913Y-33067073D01*
X53780000Y-33054967D01*
X52280000Y-33054967D01*
X52157087Y-33067073D01*
X52038897Y-33102925D01*
X51929972Y-33161147D01*
X51834499Y-33239499D01*
X51756147Y-33334972D01*
X51697925Y-33443897D01*
X51662073Y-33562087D01*
X51649967Y-33685000D01*
X51649967Y-34735000D01*
X51662073Y-34857913D01*
X51688097Y-34943702D01*
X51685683Y-34945683D01*
X51662137Y-34974374D01*
X51164379Y-35472133D01*
X51135683Y-35495683D01*
X51082583Y-35560386D01*
X51041710Y-35610190D01*
X51032502Y-35627418D01*
X50971882Y-35740831D01*
X50928881Y-35882583D01*
X50918000Y-35993062D01*
X50914362Y-36030000D01*
X50918000Y-36066936D01*
X50918001Y-40188000D01*
X38966935Y-40188000D01*
X38930000Y-40184362D01*
X38893064Y-40188000D01*
X38893062Y-40188000D01*
X38782582Y-40198881D01*
X38640830Y-40241882D01*
X38510190Y-40311710D01*
X38395683Y-40405683D01*
X38372137Y-40434374D01*
X37022000Y-41784512D01*
X37022000Y-41390033D01*
X37070000Y-41390033D01*
X37192913Y-41377927D01*
X37311103Y-41342075D01*
X37420028Y-41283853D01*
X37515501Y-41205501D01*
X37593853Y-41110028D01*
X37652075Y-41001103D01*
X37687927Y-40882913D01*
X37700033Y-40760000D01*
X37700033Y-39160000D01*
X37687927Y-39037087D01*
X37652075Y-38918897D01*
X37593853Y-38809972D01*
X37515501Y-38714499D01*
X37420028Y-38636147D01*
X37311103Y-38577925D01*
X37192913Y-38542073D01*
X37070000Y-38529967D01*
X35470000Y-38529967D01*
X35347087Y-38542073D01*
X35228897Y-38577925D01*
X35119972Y-38636147D01*
X35024499Y-38714499D01*
X35008136Y-38734438D01*
X35006771Y-38729857D01*
X34752624Y-38609757D01*
X34479932Y-38541547D01*
X34199171Y-38527846D01*
X33921133Y-38569182D01*
X33656501Y-38663967D01*
X33533229Y-38729857D01*
X33461194Y-38971588D01*
X34270000Y-39780395D01*
X34284142Y-39766252D01*
X34463748Y-39945858D01*
X34449605Y-39960000D01*
X34463748Y-39974143D01*
X34284142Y-40153748D01*
X34270000Y-40139605D01*
X33461194Y-40948412D01*
X33533229Y-41190143D01*
X33787376Y-41310243D01*
X34060068Y-41378453D01*
X34340829Y-41392154D01*
X34618867Y-41350818D01*
X34883499Y-41256033D01*
X35006771Y-41190143D01*
X35008136Y-41185562D01*
X35024499Y-41205501D01*
X35119972Y-41283853D01*
X35228897Y-41342075D01*
X35347087Y-41377927D01*
X35470000Y-41390033D01*
X35518000Y-41390033D01*
X35518001Y-66423054D01*
X35514362Y-66460000D01*
X35528882Y-66607417D01*
X35571882Y-66749169D01*
X35641710Y-66879810D01*
X35659831Y-66901890D01*
X35735684Y-66994317D01*
X35764375Y-67017863D01*
X39222999Y-70476488D01*
X39222999Y-71571236D01*
X38893750Y-71573000D01*
X38737000Y-71729750D01*
X38737000Y-72923000D01*
X38757000Y-72923000D01*
X38757000Y-73177000D01*
X38737000Y-73177000D01*
X38737000Y-74370250D01*
X38893750Y-74527000D01*
X39223000Y-74528764D01*
X39223000Y-75358054D01*
X39219361Y-75394999D01*
X39233881Y-75542416D01*
X39276881Y-75684168D01*
X39346709Y-75814809D01*
X39398569Y-75878000D01*
X39440683Y-75929316D01*
X39469374Y-75952862D01*
X40453500Y-76936988D01*
X40266501Y-77003967D01*
X40143229Y-77069857D01*
X40071194Y-77311588D01*
X40880000Y-78120395D01*
X40894143Y-78106253D01*
X41073748Y-78285858D01*
X41059605Y-78300000D01*
X41073748Y-78314143D01*
X40894142Y-78493748D01*
X40880000Y-78479605D01*
X40071194Y-79288412D01*
X40143229Y-79530143D01*
X40397376Y-79650243D01*
X40670068Y-79718453D01*
X40950829Y-79732154D01*
X41228867Y-79690818D01*
X41493499Y-79596033D01*
X41616771Y-79530143D01*
X41618136Y-79525562D01*
X41634499Y-79545501D01*
X41729972Y-79623853D01*
X41733002Y-79625472D01*
X41733002Y-79848204D01*
X41455472Y-79793000D01*
X41164528Y-79793000D01*
X40879175Y-79849760D01*
X40610378Y-79961099D01*
X40368467Y-80122739D01*
X40162739Y-80328467D01*
X40034442Y-80520476D01*
X39958333Y-80392840D01*
X39764374Y-80177862D01*
X39532202Y-80004854D01*
X39270739Y-79880465D01*
X39125634Y-79836454D01*
X38897000Y-79955873D01*
X38897000Y-81143000D01*
X38917000Y-81143000D01*
X38917000Y-81397000D01*
X38897000Y-81397000D01*
X38897000Y-81417000D01*
X38643000Y-81417000D01*
X38643000Y-81397000D01*
X37455215Y-81397000D01*
X37336449Y-81625635D01*
X37433375Y-81898473D01*
X37581667Y-82147160D01*
X37775626Y-82362138D01*
X38007798Y-82535146D01*
X38014588Y-82538376D01*
X37828467Y-82662739D01*
X37622739Y-82868467D01*
X37461099Y-83110378D01*
X37349760Y-83379175D01*
X37293000Y-83664528D01*
X37293000Y-83955472D01*
X37349760Y-84240825D01*
X37461099Y-84509622D01*
X37622739Y-84751533D01*
X37828467Y-84957261D01*
X38070378Y-85118901D01*
X38339175Y-85230240D01*
X38624528Y-85287000D01*
X38915472Y-85287000D01*
X39200825Y-85230240D01*
X39469622Y-85118901D01*
X39711533Y-84957261D01*
X39917261Y-84751533D01*
X40040000Y-84567841D01*
X40162739Y-84751533D01*
X40368467Y-84957261D01*
X40610378Y-85118901D01*
X40879175Y-85230240D01*
X41164528Y-85287000D01*
X41455472Y-85287000D01*
X41740825Y-85230240D01*
X42009622Y-85118901D01*
X42025083Y-85108570D01*
X42279513Y-85363000D01*
X35483528Y-85363000D01*
X35957093Y-85046575D01*
X36406575Y-84597093D01*
X36759730Y-84068558D01*
X37002988Y-83481281D01*
X37127000Y-82857832D01*
X37127000Y-82222168D01*
X37002988Y-81598719D01*
X36759730Y-81011442D01*
X36694866Y-80914365D01*
X37336449Y-80914365D01*
X37455215Y-81143000D01*
X38643000Y-81143000D01*
X38643000Y-79955873D01*
X38414366Y-79836454D01*
X38269261Y-79880465D01*
X38007798Y-80004854D01*
X37775626Y-80177862D01*
X37581667Y-80392840D01*
X37433375Y-80641527D01*
X37336449Y-80914365D01*
X36694866Y-80914365D01*
X36406575Y-80482907D01*
X35957093Y-80033425D01*
X35428558Y-79680270D01*
X34841281Y-79437012D01*
X34217832Y-79313000D01*
X33582168Y-79313000D01*
X32958719Y-79437012D01*
X32371442Y-79680270D01*
X31842907Y-80033425D01*
X31393425Y-80482907D01*
X31077000Y-80956472D01*
X31077000Y-78370829D01*
X39447846Y-78370829D01*
X39489182Y-78648867D01*
X39583967Y-78913499D01*
X39649857Y-79036771D01*
X39891588Y-79108806D01*
X40700395Y-78300000D01*
X39891588Y-77491194D01*
X39649857Y-77563229D01*
X39529757Y-77817376D01*
X39461547Y-78090068D01*
X39447846Y-78370829D01*
X31077000Y-78370829D01*
X31077000Y-73900000D01*
X37129966Y-73900000D01*
X37142072Y-74022914D01*
X37177924Y-74141104D01*
X37236146Y-74250028D01*
X37314499Y-74345501D01*
X37409972Y-74423854D01*
X37518896Y-74482076D01*
X37637086Y-74517928D01*
X37760000Y-74530034D01*
X38326250Y-74527000D01*
X38483000Y-74370250D01*
X38483000Y-73177000D01*
X37289750Y-73177000D01*
X37133000Y-73333750D01*
X37129966Y-73900000D01*
X31077000Y-73900000D01*
X31077000Y-72200000D01*
X37129966Y-72200000D01*
X37133000Y-72766250D01*
X37289750Y-72923000D01*
X38483000Y-72923000D01*
X38483000Y-71729750D01*
X38326250Y-71573000D01*
X37760000Y-71569966D01*
X37637086Y-71582072D01*
X37518896Y-71617924D01*
X37409972Y-71676146D01*
X37314499Y-71754499D01*
X37236146Y-71849972D01*
X37177924Y-71958896D01*
X37142072Y-72077086D01*
X37129966Y-72200000D01*
X31077000Y-72200000D01*
X31077000Y-40030829D01*
X32837846Y-40030829D01*
X32879182Y-40308867D01*
X32973967Y-40573499D01*
X33039857Y-40696771D01*
X33281588Y-40768806D01*
X34090395Y-39960000D01*
X33281588Y-39151194D01*
X33039857Y-39223229D01*
X32919757Y-39477376D01*
X32851547Y-39750068D01*
X32837846Y-40030829D01*
X31077000Y-40030829D01*
X31077000Y-35123528D01*
X31393425Y-35597093D01*
X31842907Y-36046575D01*
X32371442Y-36399730D01*
X32958719Y-36642988D01*
X33582168Y-36767000D01*
X34217832Y-36767000D01*
X34841281Y-36642988D01*
X35428558Y-36399730D01*
X35957093Y-36046575D01*
X36406575Y-35597093D01*
X36759730Y-35068558D01*
X37002988Y-34481281D01*
X37127000Y-33857832D01*
X37127000Y-33222168D01*
X37002988Y-32598719D01*
X36759730Y-32011442D01*
X36406575Y-31482907D01*
X35957093Y-31033425D01*
X35483528Y-30717000D01*
X39013984Y-30717000D01*
X38952647Y-30808798D01*
G37*
%TD.AperFunction*%
D26*
X71917000Y-83683000D02*
X71937000Y-83683000D01*
X71937000Y-83937000D01*
X71917000Y-83937000D01*
X71917000Y-83957000D01*
X71663000Y-83957000D01*
X71663000Y-83937000D01*
X71643000Y-83937000D01*
X71643000Y-83683000D01*
X71663000Y-83683000D01*
X71663000Y-83663000D01*
X71917000Y-83663000D01*
X71917000Y-83683000D01*
%TA.AperFunction,Conductor*%
D27*
G36*
X71917000Y-83683000D02*
G01*
X71937000Y-83683000D01*
X71937000Y-83937000D01*
X71917000Y-83937000D01*
X71917000Y-83957000D01*
X71663000Y-83957000D01*
X71663000Y-83937000D01*
X71643000Y-83937000D01*
X71643000Y-83683000D01*
X71663000Y-83683000D01*
X71663000Y-83663000D01*
X71917000Y-83663000D01*
X71917000Y-83683000D01*
G37*
%TD.AperFunction*%
D26*
X46517000Y-83683000D02*
X46537000Y-83683000D01*
X46537000Y-83937000D01*
X46517000Y-83937000D01*
X46517000Y-83957000D01*
X46263000Y-83957000D01*
X46263000Y-83937000D01*
X46243000Y-83937000D01*
X46243000Y-83683000D01*
X46263000Y-83683000D01*
X46263000Y-83663000D01*
X46517000Y-83663000D01*
X46517000Y-83683000D01*
%TA.AperFunction,Conductor*%
D27*
G36*
X46517000Y-83683000D02*
G01*
X46537000Y-83683000D01*
X46537000Y-83937000D01*
X46517000Y-83937000D01*
X46517000Y-83957000D01*
X46263000Y-83957000D01*
X46263000Y-83937000D01*
X46243000Y-83937000D01*
X46243000Y-83683000D01*
X46263000Y-83683000D01*
X46263000Y-83663000D01*
X46517000Y-83663000D01*
X46517000Y-83683000D01*
G37*
%TD.AperFunction*%
D26*
X51597000Y-83683000D02*
X51617000Y-83683000D01*
X51617000Y-83937000D01*
X51597000Y-83937000D01*
X51597000Y-83957000D01*
X51343000Y-83957000D01*
X51343000Y-83937000D01*
X51323000Y-83937000D01*
X51323000Y-83683000D01*
X51343000Y-83683000D01*
X51343000Y-83663000D01*
X51597000Y-83663000D01*
X51597000Y-83683000D01*
%TA.AperFunction,Conductor*%
D27*
G36*
X51597000Y-83683000D02*
G01*
X51617000Y-83683000D01*
X51617000Y-83937000D01*
X51597000Y-83937000D01*
X51597000Y-83957000D01*
X51343000Y-83957000D01*
X51343000Y-83937000D01*
X51323000Y-83937000D01*
X51323000Y-83683000D01*
X51343000Y-83683000D01*
X51343000Y-83663000D01*
X51597000Y-83663000D01*
X51597000Y-83683000D01*
G37*
%TD.AperFunction*%
D26*
X64297000Y-83683000D02*
X64317000Y-83683000D01*
X64317000Y-83937000D01*
X64297000Y-83937000D01*
X64297000Y-83957000D01*
X64043000Y-83957000D01*
X64043000Y-83937000D01*
X64023000Y-83937000D01*
X64023000Y-83683000D01*
X64043000Y-83683000D01*
X64043000Y-83663000D01*
X64297000Y-83663000D01*
X64297000Y-83683000D01*
%TA.AperFunction,Conductor*%
D27*
G36*
X64297000Y-83683000D02*
G01*
X64317000Y-83683000D01*
X64317000Y-83937000D01*
X64297000Y-83937000D01*
X64297000Y-83957000D01*
X64043000Y-83957000D01*
X64043000Y-83937000D01*
X64023000Y-83937000D01*
X64023000Y-83683000D01*
X64043000Y-83683000D01*
X64043000Y-83663000D01*
X64297000Y-83663000D01*
X64297000Y-83683000D01*
G37*
%TD.AperFunction*%
D26*
X82077000Y-83683000D02*
X82097000Y-83683000D01*
X82097000Y-83937000D01*
X82077000Y-83937000D01*
X82077000Y-83957000D01*
X81823000Y-83957000D01*
X81823000Y-83937000D01*
X81803000Y-83937000D01*
X81803000Y-83683000D01*
X81823000Y-83683000D01*
X81823000Y-83663000D01*
X82077000Y-83663000D01*
X82077000Y-83683000D01*
%TA.AperFunction,Conductor*%
D27*
G36*
X82077000Y-83683000D02*
G01*
X82097000Y-83683000D01*
X82097000Y-83937000D01*
X82077000Y-83937000D01*
X82077000Y-83957000D01*
X81823000Y-83957000D01*
X81823000Y-83937000D01*
X81803000Y-83937000D01*
X81803000Y-83683000D01*
X81823000Y-83683000D01*
X81823000Y-83663000D01*
X82077000Y-83663000D01*
X82077000Y-83683000D01*
G37*
%TD.AperFunction*%
D26*
X56677000Y-81143000D02*
X56697000Y-81143000D01*
X56697000Y-81397000D01*
X56677000Y-81397000D01*
X56677000Y-81417000D01*
X56423000Y-81417000D01*
X56423000Y-81397000D01*
X56403000Y-81397000D01*
X56403000Y-81143000D01*
X56423000Y-81143000D01*
X56423000Y-81123000D01*
X56677000Y-81123000D01*
X56677000Y-81143000D01*
%TA.AperFunction,Conductor*%
D27*
G36*
X56677000Y-81143000D02*
G01*
X56697000Y-81143000D01*
X56697000Y-81397000D01*
X56677000Y-81397000D01*
X56677000Y-81417000D01*
X56423000Y-81417000D01*
X56423000Y-81397000D01*
X56403000Y-81397000D01*
X56403000Y-81143000D01*
X56423000Y-81143000D01*
X56423000Y-81123000D01*
X56677000Y-81123000D01*
X56677000Y-81143000D01*
G37*
%TD.AperFunction*%
D26*
X76997000Y-81143000D02*
X77017000Y-81143000D01*
X77017000Y-81397000D01*
X76997000Y-81397000D01*
X76997000Y-81417000D01*
X76743000Y-81417000D01*
X76743000Y-81397000D01*
X76723000Y-81397000D01*
X76723000Y-81143000D01*
X76743000Y-81143000D01*
X76743000Y-81123000D01*
X76997000Y-81123000D01*
X76997000Y-81143000D01*
%TA.AperFunction,Conductor*%
D27*
G36*
X76997000Y-81143000D02*
G01*
X77017000Y-81143000D01*
X77017000Y-81397000D01*
X76997000Y-81397000D01*
X76997000Y-81417000D01*
X76743000Y-81417000D01*
X76743000Y-81397000D01*
X76723000Y-81397000D01*
X76723000Y-81143000D01*
X76743000Y-81143000D01*
X76743000Y-81123000D01*
X76997000Y-81123000D01*
X76997000Y-81143000D01*
G37*
%TD.AperFunction*%
D26*
X56843759Y-41047838D02*
X56584062Y-41155409D01*
X56350340Y-41311576D01*
X56151576Y-41510340D01*
X55995409Y-41744062D01*
X55887838Y-42003759D01*
X55833000Y-42279453D01*
X55833000Y-42560547D01*
X55887838Y-42836241D01*
X55995409Y-43095938D01*
X56151576Y-43329660D01*
X56350340Y-43528424D01*
X56584062Y-43684591D01*
X56843759Y-43792162D01*
X57119453Y-43847000D01*
X57400547Y-43847000D01*
X57676241Y-43792162D01*
X57935938Y-43684591D01*
X58169660Y-43528424D01*
X58368424Y-43329660D01*
X58524591Y-43095938D01*
X58632162Y-42836241D01*
X58687000Y-42560547D01*
X58687000Y-42279453D01*
X58632162Y-42003759D01*
X58524591Y-41744062D01*
X58368424Y-41510340D01*
X58169660Y-41311576D01*
X57935938Y-41155409D01*
X57676241Y-41047838D01*
X57496068Y-41012000D01*
X60023932Y-41012000D01*
X59843759Y-41047838D01*
X59584062Y-41155409D01*
X59350340Y-41311576D01*
X59151576Y-41510340D01*
X58995409Y-41744062D01*
X58887838Y-42003759D01*
X58833000Y-42279453D01*
X58833000Y-42560547D01*
X58887838Y-42836241D01*
X58995409Y-43095938D01*
X59151576Y-43329660D01*
X59350340Y-43528424D01*
X59584062Y-43684591D01*
X59843759Y-43792162D01*
X60119453Y-43847000D01*
X60400547Y-43847000D01*
X60676241Y-43792162D01*
X60929080Y-43687432D01*
X60648522Y-43967990D01*
X49606945Y-43967990D01*
X49570009Y-43964352D01*
X49533074Y-43967990D01*
X49533072Y-43967990D01*
X49422592Y-43978871D01*
X49280840Y-44021872D01*
X49150199Y-44091700D01*
X49064384Y-44162127D01*
X49035693Y-44185673D01*
X49012147Y-44214364D01*
X47975804Y-45250707D01*
X47799306Y-45215600D01*
X47520694Y-45215600D01*
X47247435Y-45269954D01*
X46990030Y-45376575D01*
X46758372Y-45531364D01*
X46561364Y-45728372D01*
X46406575Y-45960030D01*
X46390000Y-46000045D01*
X46373425Y-45960030D01*
X46218636Y-45728372D01*
X46021628Y-45531364D01*
X45789970Y-45376575D01*
X45532565Y-45269954D01*
X45259306Y-45215600D01*
X44980694Y-45215600D01*
X44707435Y-45269954D01*
X44450030Y-45376575D01*
X44218372Y-45531364D01*
X44021364Y-45728372D01*
X43990702Y-45774261D01*
X43985327Y-45719687D01*
X43949475Y-45601497D01*
X43891253Y-45492572D01*
X43812901Y-45397099D01*
X43717428Y-45318747D01*
X43608503Y-45260525D01*
X43490313Y-45224673D01*
X43367400Y-45212567D01*
X41792600Y-45212567D01*
X41669687Y-45224673D01*
X41551497Y-45260525D01*
X41442572Y-45318747D01*
X41347099Y-45397099D01*
X41268747Y-45492572D01*
X41210525Y-45601497D01*
X41174673Y-45719687D01*
X41162567Y-45842600D01*
X41162567Y-46133812D01*
X41127353Y-46048798D01*
X40993073Y-45847833D01*
X40822167Y-45676927D01*
X40621202Y-45542647D01*
X40397903Y-45450153D01*
X40160849Y-45403000D01*
X39919151Y-45403000D01*
X39682097Y-45450153D01*
X39458798Y-45542647D01*
X39257833Y-45676927D01*
X39086927Y-45847833D01*
X38952647Y-46048798D01*
X38860153Y-46272097D01*
X38813000Y-46509151D01*
X38813000Y-46750849D01*
X38860153Y-46987903D01*
X38952647Y-47211202D01*
X39086927Y-47412167D01*
X39257833Y-47583073D01*
X39458798Y-47717353D01*
X39682097Y-47809847D01*
X39919151Y-47857000D01*
X40160849Y-47857000D01*
X40397903Y-47809847D01*
X40621202Y-47717353D01*
X40822167Y-47583073D01*
X40993073Y-47412167D01*
X41127353Y-47211202D01*
X41162567Y-47126188D01*
X41162567Y-47417400D01*
X41174673Y-47540313D01*
X41210525Y-47658503D01*
X41268747Y-47767428D01*
X41347099Y-47862901D01*
X41442572Y-47941253D01*
X41551497Y-47999475D01*
X41669687Y-48035327D01*
X41792600Y-48047433D01*
X43367400Y-48047433D01*
X43490313Y-48035327D01*
X43608503Y-47999475D01*
X43717428Y-47941253D01*
X43812901Y-47862901D01*
X43891253Y-47767428D01*
X43949475Y-47658503D01*
X43985327Y-47540313D01*
X43990702Y-47485739D01*
X44021364Y-47531628D01*
X44218372Y-47728636D01*
X44450030Y-47883425D01*
X44707435Y-47990046D01*
X44980694Y-48044400D01*
X45259306Y-48044400D01*
X45532565Y-47990046D01*
X45789970Y-47883425D01*
X46021628Y-47728636D01*
X46218636Y-47531628D01*
X46373425Y-47299970D01*
X46390000Y-47259955D01*
X46406575Y-47299970D01*
X46561364Y-47531628D01*
X46758372Y-47728636D01*
X46990030Y-47883425D01*
X47247435Y-47990046D01*
X47520694Y-48044400D01*
X47799306Y-48044400D01*
X48072565Y-47990046D01*
X48329970Y-47883425D01*
X48561628Y-47728636D01*
X48758636Y-47531628D01*
X48913425Y-47299970D01*
X48930000Y-47259955D01*
X48946575Y-47299970D01*
X49101364Y-47531628D01*
X49298372Y-47728636D01*
X49530030Y-47883425D01*
X49787435Y-47990046D01*
X50060694Y-48044400D01*
X50339306Y-48044400D01*
X50612565Y-47990046D01*
X50869970Y-47883425D01*
X51101628Y-47728636D01*
X51298636Y-47531628D01*
X51453425Y-47299970D01*
X51470000Y-47259955D01*
X51486575Y-47299970D01*
X51641364Y-47531628D01*
X51838372Y-47728636D01*
X52070030Y-47883425D01*
X52327435Y-47990046D01*
X52600694Y-48044400D01*
X52879306Y-48044400D01*
X53152565Y-47990046D01*
X53409970Y-47883425D01*
X53641628Y-47728636D01*
X53838636Y-47531628D01*
X53993425Y-47299970D01*
X54008707Y-47263075D01*
X54060141Y-47359299D01*
X54300586Y-47429808D01*
X55100395Y-46630000D01*
X55086252Y-46615858D01*
X55265858Y-46436252D01*
X55280000Y-46450395D01*
X55294142Y-46436252D01*
X55473748Y-46615858D01*
X55459605Y-46630000D01*
X55473748Y-46644142D01*
X55294143Y-46823748D01*
X55280000Y-46809605D01*
X54480192Y-47609414D01*
X54550701Y-47849859D01*
X54802697Y-47968700D01*
X54994868Y-48016607D01*
X54176422Y-48835054D01*
X54053734Y-48859458D01*
X53885031Y-48929338D01*
X53733202Y-49030786D01*
X53604082Y-49159906D01*
X53502634Y-49311735D01*
X53432754Y-49480438D01*
X53397130Y-49659533D01*
X53397130Y-49842135D01*
X53432754Y-50021230D01*
X53502634Y-50189933D01*
X53604082Y-50341762D01*
X53733202Y-50470882D01*
X53885031Y-50572330D01*
X54053734Y-50642210D01*
X54232829Y-50677834D01*
X54415431Y-50677834D01*
X54594526Y-50642210D01*
X54763229Y-50572330D01*
X54915058Y-50470882D01*
X55044178Y-50341762D01*
X55145626Y-50189933D01*
X55215506Y-50021230D01*
X55239910Y-49898542D01*
X56644052Y-48494401D01*
X56753000Y-48494401D01*
X56753000Y-66333181D01*
X53252237Y-69833945D01*
X53209236Y-69869235D01*
X53173946Y-69912236D01*
X53173942Y-69912240D01*
X53068400Y-70040844D01*
X52963750Y-70236630D01*
X52945913Y-70295432D01*
X52899308Y-70449069D01*
X52891939Y-70523883D01*
X52877548Y-70670000D01*
X52883001Y-70725364D01*
X52883000Y-77768206D01*
X52862739Y-77788467D01*
X52734442Y-77980476D01*
X52658333Y-77852840D01*
X52464374Y-77637862D01*
X52232202Y-77464854D01*
X51970739Y-77340465D01*
X51825634Y-77296454D01*
X51597000Y-77415873D01*
X51597000Y-78603000D01*
X51617000Y-78603000D01*
X51617000Y-78857000D01*
X51597000Y-78857000D01*
X51597000Y-78877000D01*
X51343000Y-78877000D01*
X51343000Y-78857000D01*
X49057000Y-78857000D01*
X49057000Y-78877000D01*
X48803000Y-78877000D01*
X48803000Y-78857000D01*
X48783000Y-78857000D01*
X48783000Y-78603000D01*
X48803000Y-78603000D01*
X48803000Y-77415873D01*
X49057000Y-77415873D01*
X49057000Y-78603000D01*
X51343000Y-78603000D01*
X51343000Y-77415873D01*
X51114366Y-77296454D01*
X50969261Y-77340465D01*
X50707798Y-77464854D01*
X50475626Y-77637862D01*
X50281667Y-77852840D01*
X50200000Y-77989796D01*
X50118333Y-77852840D01*
X49924374Y-77637862D01*
X49692202Y-77464854D01*
X49430739Y-77340465D01*
X49285634Y-77296454D01*
X49057000Y-77415873D01*
X48803000Y-77415873D01*
X48574366Y-77296454D01*
X48429261Y-77340465D01*
X48167798Y-77464854D01*
X48030016Y-77567525D01*
X44645642Y-74183152D01*
X44837261Y-73991533D01*
X44960000Y-73807841D01*
X45082739Y-73991533D01*
X45288467Y-74197261D01*
X45530378Y-74358901D01*
X45799175Y-74470240D01*
X46084528Y-74527000D01*
X46375472Y-74527000D01*
X46660825Y-74470240D01*
X46929622Y-74358901D01*
X47171533Y-74197261D01*
X47377261Y-73991533D01*
X47500000Y-73807841D01*
X47622739Y-73991533D01*
X47828467Y-74197261D01*
X48070378Y-74358901D01*
X48339175Y-74470240D01*
X48624528Y-74527000D01*
X48915472Y-74527000D01*
X49200825Y-74470240D01*
X49469622Y-74358901D01*
X49711533Y-74197261D01*
X49917261Y-73991533D01*
X50040000Y-73807841D01*
X50162739Y-73991533D01*
X50368467Y-74197261D01*
X50610378Y-74358901D01*
X50879175Y-74470240D01*
X51164528Y-74527000D01*
X51455472Y-74527000D01*
X51740825Y-74470240D01*
X52009622Y-74358901D01*
X52251533Y-74197261D01*
X52457261Y-73991533D01*
X52618901Y-73749622D01*
X52730240Y-73480825D01*
X52787000Y-73195472D01*
X52787000Y-72904528D01*
X52730240Y-72619175D01*
X52618901Y-72350378D01*
X52457261Y-72108467D01*
X52251533Y-71902739D01*
X52009622Y-71741099D01*
X51740825Y-71629760D01*
X51455472Y-71573000D01*
X51164528Y-71573000D01*
X50879175Y-71629760D01*
X50610378Y-71741099D01*
X50368467Y-71902739D01*
X50162739Y-72108467D01*
X50040000Y-72292159D01*
X49917261Y-72108467D01*
X49711533Y-71902739D01*
X49469622Y-71741099D01*
X49200825Y-71629760D01*
X48915472Y-71573000D01*
X48624528Y-71573000D01*
X48339175Y-71629760D01*
X48070378Y-71741099D01*
X47828467Y-71902739D01*
X47622739Y-72108467D01*
X47500000Y-72292159D01*
X47377261Y-72108467D01*
X47171533Y-71902739D01*
X46929622Y-71741099D01*
X46660825Y-71629760D01*
X46375472Y-71573000D01*
X46084528Y-71573000D01*
X45799175Y-71629760D01*
X45530378Y-71741099D01*
X45288467Y-71902739D01*
X45082739Y-72108467D01*
X44960000Y-72292159D01*
X44837261Y-72108467D01*
X44631533Y-71902739D01*
X44389622Y-71741099D01*
X44120825Y-71629760D01*
X43835472Y-71573000D01*
X43544528Y-71573000D01*
X43259175Y-71629760D01*
X42990378Y-71741099D01*
X42748467Y-71902739D01*
X42542739Y-72108467D01*
X42420000Y-72292159D01*
X42297261Y-72108467D01*
X42091533Y-71902739D01*
X41902000Y-71776097D01*
X41902000Y-70740525D01*
X41905638Y-70703590D01*
X41899051Y-70636711D01*
X41891119Y-70556172D01*
X41848118Y-70414420D01*
X41778290Y-70283780D01*
X41684317Y-70169273D01*
X41655627Y-70145728D01*
X37472010Y-65962112D01*
X37472010Y-43461478D01*
X39241489Y-41692000D01*
X51775638Y-41692000D01*
X51735541Y-41767016D01*
X51669668Y-41984169D01*
X51647426Y-42210000D01*
X51669668Y-42435831D01*
X51735541Y-42652984D01*
X51842512Y-42853114D01*
X51986472Y-43028528D01*
X52161886Y-43172488D01*
X52362016Y-43279459D01*
X52579169Y-43345332D01*
X52748405Y-43362000D01*
X53311595Y-43362000D01*
X53480831Y-43345332D01*
X53697984Y-43279459D01*
X53898114Y-43172488D01*
X54073528Y-43028528D01*
X54128127Y-42962000D01*
X54213065Y-42962000D01*
X54250000Y-42965638D01*
X54286935Y-42962000D01*
X54286938Y-42962000D01*
X54397418Y-42951119D01*
X54539170Y-42908118D01*
X54669810Y-42838290D01*
X54784317Y-42744317D01*
X54807867Y-42715621D01*
X56511489Y-41012000D01*
X57023932Y-41012000D01*
X56843759Y-41047838D01*
%TA.AperFunction,Conductor*%
D27*
G36*
X56843759Y-41047838D02*
G01*
X56584062Y-41155409D01*
X56350340Y-41311576D01*
X56151576Y-41510340D01*
X55995409Y-41744062D01*
X55887838Y-42003759D01*
X55833000Y-42279453D01*
X55833000Y-42560547D01*
X55887838Y-42836241D01*
X55995409Y-43095938D01*
X56151576Y-43329660D01*
X56350340Y-43528424D01*
X56584062Y-43684591D01*
X56843759Y-43792162D01*
X57119453Y-43847000D01*
X57400547Y-43847000D01*
X57676241Y-43792162D01*
X57935938Y-43684591D01*
X58169660Y-43528424D01*
X58368424Y-43329660D01*
X58524591Y-43095938D01*
X58632162Y-42836241D01*
X58687000Y-42560547D01*
X58687000Y-42279453D01*
X58632162Y-42003759D01*
X58524591Y-41744062D01*
X58368424Y-41510340D01*
X58169660Y-41311576D01*
X57935938Y-41155409D01*
X57676241Y-41047838D01*
X57496068Y-41012000D01*
X60023932Y-41012000D01*
X59843759Y-41047838D01*
X59584062Y-41155409D01*
X59350340Y-41311576D01*
X59151576Y-41510340D01*
X58995409Y-41744062D01*
X58887838Y-42003759D01*
X58833000Y-42279453D01*
X58833000Y-42560547D01*
X58887838Y-42836241D01*
X58995409Y-43095938D01*
X59151576Y-43329660D01*
X59350340Y-43528424D01*
X59584062Y-43684591D01*
X59843759Y-43792162D01*
X60119453Y-43847000D01*
X60400547Y-43847000D01*
X60676241Y-43792162D01*
X60929080Y-43687432D01*
X60648522Y-43967990D01*
X49606945Y-43967990D01*
X49570009Y-43964352D01*
X49533074Y-43967990D01*
X49533072Y-43967990D01*
X49422592Y-43978871D01*
X49280840Y-44021872D01*
X49150199Y-44091700D01*
X49064384Y-44162127D01*
X49035693Y-44185673D01*
X49012147Y-44214364D01*
X47975804Y-45250707D01*
X47799306Y-45215600D01*
X47520694Y-45215600D01*
X47247435Y-45269954D01*
X46990030Y-45376575D01*
X46758372Y-45531364D01*
X46561364Y-45728372D01*
X46406575Y-45960030D01*
X46390000Y-46000045D01*
X46373425Y-45960030D01*
X46218636Y-45728372D01*
X46021628Y-45531364D01*
X45789970Y-45376575D01*
X45532565Y-45269954D01*
X45259306Y-45215600D01*
X44980694Y-45215600D01*
X44707435Y-45269954D01*
X44450030Y-45376575D01*
X44218372Y-45531364D01*
X44021364Y-45728372D01*
X43990702Y-45774261D01*
X43985327Y-45719687D01*
X43949475Y-45601497D01*
X43891253Y-45492572D01*
X43812901Y-45397099D01*
X43717428Y-45318747D01*
X43608503Y-45260525D01*
X43490313Y-45224673D01*
X43367400Y-45212567D01*
X41792600Y-45212567D01*
X41669687Y-45224673D01*
X41551497Y-45260525D01*
X41442572Y-45318747D01*
X41347099Y-45397099D01*
X41268747Y-45492572D01*
X41210525Y-45601497D01*
X41174673Y-45719687D01*
X41162567Y-45842600D01*
X41162567Y-46133812D01*
X41127353Y-46048798D01*
X40993073Y-45847833D01*
X40822167Y-45676927D01*
X40621202Y-45542647D01*
X40397903Y-45450153D01*
X40160849Y-45403000D01*
X39919151Y-45403000D01*
X39682097Y-45450153D01*
X39458798Y-45542647D01*
X39257833Y-45676927D01*
X39086927Y-45847833D01*
X38952647Y-46048798D01*
X38860153Y-46272097D01*
X38813000Y-46509151D01*
X38813000Y-46750849D01*
X38860153Y-46987903D01*
X38952647Y-47211202D01*
X39086927Y-47412167D01*
X39257833Y-47583073D01*
X39458798Y-47717353D01*
X39682097Y-47809847D01*
X39919151Y-47857000D01*
X40160849Y-47857000D01*
X40397903Y-47809847D01*
X40621202Y-47717353D01*
X40822167Y-47583073D01*
X40993073Y-47412167D01*
X41127353Y-47211202D01*
X41162567Y-47126188D01*
X41162567Y-47417400D01*
X41174673Y-47540313D01*
X41210525Y-47658503D01*
X41268747Y-47767428D01*
X41347099Y-47862901D01*
X41442572Y-47941253D01*
X41551497Y-47999475D01*
X41669687Y-48035327D01*
X41792600Y-48047433D01*
X43367400Y-48047433D01*
X43490313Y-48035327D01*
X43608503Y-47999475D01*
X43717428Y-47941253D01*
X43812901Y-47862901D01*
X43891253Y-47767428D01*
X43949475Y-47658503D01*
X43985327Y-47540313D01*
X43990702Y-47485739D01*
X44021364Y-47531628D01*
X44218372Y-47728636D01*
X44450030Y-47883425D01*
X44707435Y-47990046D01*
X44980694Y-48044400D01*
X45259306Y-48044400D01*
X45532565Y-47990046D01*
X45789970Y-47883425D01*
X46021628Y-47728636D01*
X46218636Y-47531628D01*
X46373425Y-47299970D01*
X46390000Y-47259955D01*
X46406575Y-47299970D01*
X46561364Y-47531628D01*
X46758372Y-47728636D01*
X46990030Y-47883425D01*
X47247435Y-47990046D01*
X47520694Y-48044400D01*
X47799306Y-48044400D01*
X48072565Y-47990046D01*
X48329970Y-47883425D01*
X48561628Y-47728636D01*
X48758636Y-47531628D01*
X48913425Y-47299970D01*
X48930000Y-47259955D01*
X48946575Y-47299970D01*
X49101364Y-47531628D01*
X49298372Y-47728636D01*
X49530030Y-47883425D01*
X49787435Y-47990046D01*
X50060694Y-48044400D01*
X50339306Y-48044400D01*
X50612565Y-47990046D01*
X50869970Y-47883425D01*
X51101628Y-47728636D01*
X51298636Y-47531628D01*
X51453425Y-47299970D01*
X51470000Y-47259955D01*
X51486575Y-47299970D01*
X51641364Y-47531628D01*
X51838372Y-47728636D01*
X52070030Y-47883425D01*
X52327435Y-47990046D01*
X52600694Y-48044400D01*
X52879306Y-48044400D01*
X53152565Y-47990046D01*
X53409970Y-47883425D01*
X53641628Y-47728636D01*
X53838636Y-47531628D01*
X53993425Y-47299970D01*
X54008707Y-47263075D01*
X54060141Y-47359299D01*
X54300586Y-47429808D01*
X55100395Y-46630000D01*
X55086252Y-46615858D01*
X55265858Y-46436252D01*
X55280000Y-46450395D01*
X55294142Y-46436252D01*
X55473748Y-46615858D01*
X55459605Y-46630000D01*
X55473748Y-46644142D01*
X55294143Y-46823748D01*
X55280000Y-46809605D01*
X54480192Y-47609414D01*
X54550701Y-47849859D01*
X54802697Y-47968700D01*
X54994868Y-48016607D01*
X54176422Y-48835054D01*
X54053734Y-48859458D01*
X53885031Y-48929338D01*
X53733202Y-49030786D01*
X53604082Y-49159906D01*
X53502634Y-49311735D01*
X53432754Y-49480438D01*
X53397130Y-49659533D01*
X53397130Y-49842135D01*
X53432754Y-50021230D01*
X53502634Y-50189933D01*
X53604082Y-50341762D01*
X53733202Y-50470882D01*
X53885031Y-50572330D01*
X54053734Y-50642210D01*
X54232829Y-50677834D01*
X54415431Y-50677834D01*
X54594526Y-50642210D01*
X54763229Y-50572330D01*
X54915058Y-50470882D01*
X55044178Y-50341762D01*
X55145626Y-50189933D01*
X55215506Y-50021230D01*
X55239910Y-49898542D01*
X56644052Y-48494401D01*
X56753000Y-48494401D01*
X56753000Y-66333181D01*
X53252237Y-69833945D01*
X53209236Y-69869235D01*
X53173946Y-69912236D01*
X53173942Y-69912240D01*
X53068400Y-70040844D01*
X52963750Y-70236630D01*
X52945913Y-70295432D01*
X52899308Y-70449069D01*
X52891939Y-70523883D01*
X52877548Y-70670000D01*
X52883001Y-70725364D01*
X52883000Y-77768206D01*
X52862739Y-77788467D01*
X52734442Y-77980476D01*
X52658333Y-77852840D01*
X52464374Y-77637862D01*
X52232202Y-77464854D01*
X51970739Y-77340465D01*
X51825634Y-77296454D01*
X51597000Y-77415873D01*
X51597000Y-78603000D01*
X51617000Y-78603000D01*
X51617000Y-78857000D01*
X51597000Y-78857000D01*
X51597000Y-78877000D01*
X51343000Y-78877000D01*
X51343000Y-78857000D01*
X49057000Y-78857000D01*
X49057000Y-78877000D01*
X48803000Y-78877000D01*
X48803000Y-78857000D01*
X48783000Y-78857000D01*
X48783000Y-78603000D01*
X48803000Y-78603000D01*
X48803000Y-77415873D01*
X49057000Y-77415873D01*
X49057000Y-78603000D01*
X51343000Y-78603000D01*
X51343000Y-77415873D01*
X51114366Y-77296454D01*
X50969261Y-77340465D01*
X50707798Y-77464854D01*
X50475626Y-77637862D01*
X50281667Y-77852840D01*
X50200000Y-77989796D01*
X50118333Y-77852840D01*
X49924374Y-77637862D01*
X49692202Y-77464854D01*
X49430739Y-77340465D01*
X49285634Y-77296454D01*
X49057000Y-77415873D01*
X48803000Y-77415873D01*
X48574366Y-77296454D01*
X48429261Y-77340465D01*
X48167798Y-77464854D01*
X48030016Y-77567525D01*
X44645642Y-74183152D01*
X44837261Y-73991533D01*
X44960000Y-73807841D01*
X45082739Y-73991533D01*
X45288467Y-74197261D01*
X45530378Y-74358901D01*
X45799175Y-74470240D01*
X46084528Y-74527000D01*
X46375472Y-74527000D01*
X46660825Y-74470240D01*
X46929622Y-74358901D01*
X47171533Y-74197261D01*
X47377261Y-73991533D01*
X47500000Y-73807841D01*
X47622739Y-73991533D01*
X47828467Y-74197261D01*
X48070378Y-74358901D01*
X48339175Y-74470240D01*
X48624528Y-74527000D01*
X48915472Y-74527000D01*
X49200825Y-74470240D01*
X49469622Y-74358901D01*
X49711533Y-74197261D01*
X49917261Y-73991533D01*
X50040000Y-73807841D01*
X50162739Y-73991533D01*
X50368467Y-74197261D01*
X50610378Y-74358901D01*
X50879175Y-74470240D01*
X51164528Y-74527000D01*
X51455472Y-74527000D01*
X51740825Y-74470240D01*
X52009622Y-74358901D01*
X52251533Y-74197261D01*
X52457261Y-73991533D01*
X52618901Y-73749622D01*
X52730240Y-73480825D01*
X52787000Y-73195472D01*
X52787000Y-72904528D01*
X52730240Y-72619175D01*
X52618901Y-72350378D01*
X52457261Y-72108467D01*
X52251533Y-71902739D01*
X52009622Y-71741099D01*
X51740825Y-71629760D01*
X51455472Y-71573000D01*
X51164528Y-71573000D01*
X50879175Y-71629760D01*
X50610378Y-71741099D01*
X50368467Y-71902739D01*
X50162739Y-72108467D01*
X50040000Y-72292159D01*
X49917261Y-72108467D01*
X49711533Y-71902739D01*
X49469622Y-71741099D01*
X49200825Y-71629760D01*
X48915472Y-71573000D01*
X48624528Y-71573000D01*
X48339175Y-71629760D01*
X48070378Y-71741099D01*
X47828467Y-71902739D01*
X47622739Y-72108467D01*
X47500000Y-72292159D01*
X47377261Y-72108467D01*
X47171533Y-71902739D01*
X46929622Y-71741099D01*
X46660825Y-71629760D01*
X46375472Y-71573000D01*
X46084528Y-71573000D01*
X45799175Y-71629760D01*
X45530378Y-71741099D01*
X45288467Y-71902739D01*
X45082739Y-72108467D01*
X44960000Y-72292159D01*
X44837261Y-72108467D01*
X44631533Y-71902739D01*
X44389622Y-71741099D01*
X44120825Y-71629760D01*
X43835472Y-71573000D01*
X43544528Y-71573000D01*
X43259175Y-71629760D01*
X42990378Y-71741099D01*
X42748467Y-71902739D01*
X42542739Y-72108467D01*
X42420000Y-72292159D01*
X42297261Y-72108467D01*
X42091533Y-71902739D01*
X41902000Y-71776097D01*
X41902000Y-70740525D01*
X41905638Y-70703590D01*
X41899051Y-70636711D01*
X41891119Y-70556172D01*
X41848118Y-70414420D01*
X41778290Y-70283780D01*
X41684317Y-70169273D01*
X41655627Y-70145728D01*
X37472010Y-65962112D01*
X37472010Y-43461478D01*
X39241489Y-41692000D01*
X51775638Y-41692000D01*
X51735541Y-41767016D01*
X51669668Y-41984169D01*
X51647426Y-42210000D01*
X51669668Y-42435831D01*
X51735541Y-42652984D01*
X51842512Y-42853114D01*
X51986472Y-43028528D01*
X52161886Y-43172488D01*
X52362016Y-43279459D01*
X52579169Y-43345332D01*
X52748405Y-43362000D01*
X53311595Y-43362000D01*
X53480831Y-43345332D01*
X53697984Y-43279459D01*
X53898114Y-43172488D01*
X54073528Y-43028528D01*
X54128127Y-42962000D01*
X54213065Y-42962000D01*
X54250000Y-42965638D01*
X54286935Y-42962000D01*
X54286938Y-42962000D01*
X54397418Y-42951119D01*
X54539170Y-42908118D01*
X54669810Y-42838290D01*
X54784317Y-42744317D01*
X54807867Y-42715621D01*
X56511489Y-41012000D01*
X57023932Y-41012000D01*
X56843759Y-41047838D01*
G37*
%TD.AperFunction*%
D26*
X61049440Y-74442929D02*
X61031099Y-74470378D01*
X60919760Y-74739175D01*
X60863000Y-75024528D01*
X60863000Y-75315472D01*
X60919760Y-75600825D01*
X61031099Y-75869622D01*
X61192739Y-76111533D01*
X61333474Y-76252268D01*
X61248896Y-76277924D01*
X61139972Y-76336146D01*
X61044499Y-76414499D01*
X60966146Y-76509972D01*
X60907924Y-76618896D01*
X60872072Y-76737086D01*
X60859966Y-76860000D01*
X60863000Y-77426250D01*
X61019750Y-77583000D01*
X62213000Y-77583000D01*
X62213000Y-77563000D01*
X62467000Y-77563000D01*
X62467000Y-77583000D01*
X63660250Y-77583000D01*
X63817000Y-77426250D01*
X63820034Y-76860000D01*
X63807928Y-76737086D01*
X63772076Y-76618896D01*
X63713854Y-76509972D01*
X63635501Y-76414499D01*
X63540028Y-76336146D01*
X63431104Y-76277924D01*
X63346526Y-76252268D01*
X63487261Y-76111533D01*
X63613903Y-75922000D01*
X64666097Y-75922000D01*
X64792739Y-76111533D01*
X64933474Y-76252268D01*
X64848896Y-76277924D01*
X64739972Y-76336146D01*
X64644499Y-76414499D01*
X64566146Y-76509972D01*
X64507924Y-76618896D01*
X64472072Y-76737086D01*
X64459966Y-76860000D01*
X64463000Y-77426250D01*
X64619750Y-77583000D01*
X65813000Y-77583000D01*
X65813000Y-77563000D01*
X66067000Y-77563000D01*
X66067000Y-77583000D01*
X67260250Y-77583000D01*
X67417000Y-77426250D01*
X67417982Y-77242888D01*
X67455829Y-77263117D01*
X67597581Y-77306118D01*
X67708061Y-77316999D01*
X67708063Y-77316999D01*
X67744999Y-77320637D01*
X67781934Y-77316999D01*
X68118204Y-77316999D01*
X68063000Y-77594528D01*
X68063000Y-77885472D01*
X68119760Y-78170825D01*
X68231099Y-78439622D01*
X68233342Y-78442979D01*
X67419407Y-78442979D01*
X67417000Y-77993750D01*
X67260250Y-77837000D01*
X66067000Y-77837000D01*
X66067000Y-77857000D01*
X65813000Y-77857000D01*
X65813000Y-77837000D01*
X64619750Y-77837000D01*
X64463000Y-77993750D01*
X64460593Y-78442979D01*
X63819407Y-78442979D01*
X63817000Y-77993750D01*
X63660250Y-77837000D01*
X62467000Y-77837000D01*
X62467000Y-77857000D01*
X62213000Y-77857000D01*
X62213000Y-77837000D01*
X61019750Y-77837000D01*
X60863000Y-77993750D01*
X60860593Y-78442979D01*
X59462020Y-78442979D01*
X59462020Y-74055703D01*
X59629099Y-73986496D01*
X59780928Y-73885048D01*
X59910048Y-73755928D01*
X60011496Y-73604099D01*
X60069816Y-73463304D01*
X61049440Y-74442929D01*
%TA.AperFunction,Conductor*%
D27*
G36*
X61049440Y-74442929D02*
G01*
X61031099Y-74470378D01*
X60919760Y-74739175D01*
X60863000Y-75024528D01*
X60863000Y-75315472D01*
X60919760Y-75600825D01*
X61031099Y-75869622D01*
X61192739Y-76111533D01*
X61333474Y-76252268D01*
X61248896Y-76277924D01*
X61139972Y-76336146D01*
X61044499Y-76414499D01*
X60966146Y-76509972D01*
X60907924Y-76618896D01*
X60872072Y-76737086D01*
X60859966Y-76860000D01*
X60863000Y-77426250D01*
X61019750Y-77583000D01*
X62213000Y-77583000D01*
X62213000Y-77563000D01*
X62467000Y-77563000D01*
X62467000Y-77583000D01*
X63660250Y-77583000D01*
X63817000Y-77426250D01*
X63820034Y-76860000D01*
X63807928Y-76737086D01*
X63772076Y-76618896D01*
X63713854Y-76509972D01*
X63635501Y-76414499D01*
X63540028Y-76336146D01*
X63431104Y-76277924D01*
X63346526Y-76252268D01*
X63487261Y-76111533D01*
X63613903Y-75922000D01*
X64666097Y-75922000D01*
X64792739Y-76111533D01*
X64933474Y-76252268D01*
X64848896Y-76277924D01*
X64739972Y-76336146D01*
X64644499Y-76414499D01*
X64566146Y-76509972D01*
X64507924Y-76618896D01*
X64472072Y-76737086D01*
X64459966Y-76860000D01*
X64463000Y-77426250D01*
X64619750Y-77583000D01*
X65813000Y-77583000D01*
X65813000Y-77563000D01*
X66067000Y-77563000D01*
X66067000Y-77583000D01*
X67260250Y-77583000D01*
X67417000Y-77426250D01*
X67417982Y-77242888D01*
X67455829Y-77263117D01*
X67597581Y-77306118D01*
X67708061Y-77316999D01*
X67708063Y-77316999D01*
X67744999Y-77320637D01*
X67781934Y-77316999D01*
X68118204Y-77316999D01*
X68063000Y-77594528D01*
X68063000Y-77885472D01*
X68119760Y-78170825D01*
X68231099Y-78439622D01*
X68233342Y-78442979D01*
X67419407Y-78442979D01*
X67417000Y-77993750D01*
X67260250Y-77837000D01*
X66067000Y-77837000D01*
X66067000Y-77857000D01*
X65813000Y-77857000D01*
X65813000Y-77837000D01*
X64619750Y-77837000D01*
X64463000Y-77993750D01*
X64460593Y-78442979D01*
X63819407Y-78442979D01*
X63817000Y-77993750D01*
X63660250Y-77837000D01*
X62467000Y-77837000D01*
X62467000Y-77857000D01*
X62213000Y-77857000D01*
X62213000Y-77837000D01*
X61019750Y-77837000D01*
X60863000Y-77993750D01*
X60860593Y-78442979D01*
X59462020Y-78442979D01*
X59462020Y-74055703D01*
X59629099Y-73986496D01*
X59780928Y-73885048D01*
X59910048Y-73755928D01*
X60011496Y-73604099D01*
X60069816Y-73463304D01*
X61049440Y-74442929D01*
G37*
%TD.AperFunction*%
D26*
X83607087Y-67707927D02*
X83730000Y-67720033D01*
X86730000Y-67720033D01*
X86852913Y-67707927D01*
X86855969Y-67707000D01*
X89954031Y-67707000D01*
X89957087Y-67707927D01*
X90080000Y-67720033D01*
X92156215Y-67720033D01*
X93223000Y-68786819D01*
X93223000Y-69439946D01*
X93067375Y-69362230D01*
X91759605Y-70670000D01*
X93067375Y-71977770D01*
X93223001Y-71900054D01*
X93223001Y-73676165D01*
X93090378Y-73731099D01*
X92848467Y-73892739D01*
X92642739Y-74098467D01*
X92481099Y-74340378D01*
X92369760Y-74609175D01*
X92313000Y-74894528D01*
X92313000Y-75185472D01*
X92369760Y-75470825D01*
X92481099Y-75739622D01*
X92642739Y-75981533D01*
X92783475Y-76122269D01*
X92698897Y-76147925D01*
X92589972Y-76206147D01*
X92494499Y-76284499D01*
X92416147Y-76379972D01*
X92357925Y-76488897D01*
X92322073Y-76607087D01*
X92309967Y-76730000D01*
X92309967Y-77303000D01*
X90728433Y-77303000D01*
X90731358Y-77297671D01*
X90824460Y-77002609D01*
X90699553Y-76757000D01*
X89407000Y-76757000D01*
X89407000Y-76777000D01*
X89153000Y-76777000D01*
X89153000Y-76757000D01*
X89133000Y-76757000D01*
X89133000Y-76503000D01*
X89153000Y-76503000D01*
X89153000Y-75165430D01*
X89407000Y-75165430D01*
X89407000Y-76503000D01*
X90699553Y-76503000D01*
X90824460Y-76257391D01*
X90731358Y-75962329D01*
X90582481Y-75691100D01*
X90383551Y-75454127D01*
X90142212Y-75260516D01*
X89867739Y-75117708D01*
X89651725Y-75047364D01*
X89407000Y-75165430D01*
X89153000Y-75165430D01*
X88908275Y-75047364D01*
X88692261Y-75117708D01*
X88417788Y-75260516D01*
X88176449Y-75454127D01*
X88015058Y-75646383D01*
X87862279Y-75460221D01*
X87621768Y-75262840D01*
X87347372Y-75116172D01*
X87049635Y-75025854D01*
X86740000Y-74995358D01*
X86430364Y-75025854D01*
X86132627Y-75116172D01*
X85858231Y-75262840D01*
X85725444Y-75371815D01*
X85676353Y-75279972D01*
X85598001Y-75184499D01*
X85502528Y-75106147D01*
X85393603Y-75047925D01*
X85275413Y-75012073D01*
X85152500Y-74999967D01*
X83247500Y-74999967D01*
X83124587Y-75012073D01*
X83006397Y-75047925D01*
X82897472Y-75106147D01*
X82801999Y-75184499D01*
X82723647Y-75279972D01*
X82665425Y-75388897D01*
X82629573Y-75507087D01*
X82617467Y-75630000D01*
X82617467Y-76249044D01*
X80423533Y-78442979D01*
X78056658Y-78442979D01*
X78058901Y-78439622D01*
X78170240Y-78170825D01*
X78227000Y-77885472D01*
X78227000Y-77594528D01*
X78170240Y-77309175D01*
X78058901Y-77040378D01*
X77897261Y-76798467D01*
X77691533Y-76592739D01*
X77507841Y-76470000D01*
X77691533Y-76347261D01*
X77897261Y-76141533D01*
X78058901Y-75899622D01*
X78170240Y-75630825D01*
X78227000Y-75345472D01*
X78227000Y-75054528D01*
X78170240Y-74769175D01*
X78058901Y-74500378D01*
X77897261Y-74258467D01*
X77756526Y-74117732D01*
X77841104Y-74092076D01*
X77950028Y-74033854D01*
X78045501Y-73955501D01*
X78123854Y-73860028D01*
X78182076Y-73751104D01*
X78217928Y-73632914D01*
X78230034Y-73510000D01*
X78227000Y-72943750D01*
X78070250Y-72787000D01*
X76877000Y-72787000D01*
X76877000Y-72807000D01*
X76623000Y-72807000D01*
X76623000Y-72787000D01*
X75429750Y-72787000D01*
X75273000Y-72943750D01*
X75269966Y-73510000D01*
X75282072Y-73632914D01*
X75317924Y-73751104D01*
X75376146Y-73860028D01*
X75454499Y-73955501D01*
X75549972Y-74033854D01*
X75623208Y-74073000D01*
X74266792Y-74073000D01*
X74340028Y-74033854D01*
X74435501Y-73955501D01*
X74513854Y-73860028D01*
X74572076Y-73751104D01*
X74607928Y-73632914D01*
X74620034Y-73510000D01*
X74617000Y-72943750D01*
X74460250Y-72787000D01*
X73267000Y-72787000D01*
X73267000Y-72807000D01*
X73013000Y-72807000D01*
X73013000Y-72787000D01*
X71819750Y-72787000D01*
X71663000Y-72943750D01*
X71659966Y-73510000D01*
X71672072Y-73632914D01*
X71707924Y-73751104D01*
X71766146Y-73860028D01*
X71844499Y-73955501D01*
X71939972Y-74033854D01*
X72013208Y-74073000D01*
X70666792Y-74073000D01*
X70740028Y-74033854D01*
X70835501Y-73955501D01*
X70913854Y-73860028D01*
X70972076Y-73751104D01*
X71007928Y-73632914D01*
X71020034Y-73510000D01*
X71017000Y-72943750D01*
X70860250Y-72787000D01*
X69667000Y-72787000D01*
X69667000Y-72807000D01*
X69413000Y-72807000D01*
X69413000Y-72787000D01*
X68219750Y-72787000D01*
X68063000Y-72943750D01*
X68059966Y-73510000D01*
X68072072Y-73632914D01*
X68107924Y-73751104D01*
X68166146Y-73860028D01*
X68244499Y-73955501D01*
X68339972Y-74033854D01*
X68448896Y-74092076D01*
X68533474Y-74117732D01*
X68392739Y-74258467D01*
X68231099Y-74500378D01*
X68119760Y-74769175D01*
X68063000Y-75054528D01*
X68063000Y-75345472D01*
X68119760Y-75630825D01*
X68195219Y-75812999D01*
X68056487Y-75812999D01*
X67867001Y-75623513D01*
X67867001Y-71810000D01*
X68059966Y-71810000D01*
X68063000Y-72376250D01*
X68219750Y-72533000D01*
X69413000Y-72533000D01*
X69413000Y-71339750D01*
X69667000Y-71339750D01*
X69667000Y-72533000D01*
X70860250Y-72533000D01*
X71017000Y-72376250D01*
X71020034Y-71810000D01*
X71659966Y-71810000D01*
X71663000Y-72376250D01*
X71819750Y-72533000D01*
X73013000Y-72533000D01*
X73013000Y-71339750D01*
X73267000Y-71339750D01*
X73267000Y-72533000D01*
X74460250Y-72533000D01*
X74617000Y-72376250D01*
X74620034Y-71810000D01*
X75269966Y-71810000D01*
X75273000Y-72376250D01*
X75429750Y-72533000D01*
X76623000Y-72533000D01*
X76623000Y-71339750D01*
X76877000Y-71339750D01*
X76877000Y-72533000D01*
X78070250Y-72533000D01*
X78227000Y-72376250D01*
X78228172Y-72157375D01*
X83922230Y-72157375D01*
X84078697Y-72470699D01*
X84452117Y-72660708D01*
X84855432Y-72774215D01*
X85273141Y-72806858D01*
X85689192Y-72757382D01*
X86087597Y-72627689D01*
X86381303Y-72470699D01*
X86537770Y-72157375D01*
X90272230Y-72157375D01*
X90428697Y-72470699D01*
X90802117Y-72660708D01*
X91205432Y-72774215D01*
X91623141Y-72806858D01*
X92039192Y-72757382D01*
X92437597Y-72627689D01*
X92731303Y-72470699D01*
X92887770Y-72157375D01*
X91580000Y-70849605D01*
X90272230Y-72157375D01*
X86537770Y-72157375D01*
X85230000Y-70849605D01*
X83922230Y-72157375D01*
X78228172Y-72157375D01*
X78230034Y-71810000D01*
X78217928Y-71687086D01*
X78182076Y-71568896D01*
X78123854Y-71459972D01*
X78045501Y-71364499D01*
X77950028Y-71286146D01*
X77841104Y-71227924D01*
X77722914Y-71192072D01*
X77600000Y-71179966D01*
X77033750Y-71183000D01*
X76877000Y-71339750D01*
X76623000Y-71339750D01*
X76466250Y-71183000D01*
X75900000Y-71179966D01*
X75777086Y-71192072D01*
X75658896Y-71227924D01*
X75549972Y-71286146D01*
X75454499Y-71364499D01*
X75376146Y-71459972D01*
X75317924Y-71568896D01*
X75282072Y-71687086D01*
X75269966Y-71810000D01*
X74620034Y-71810000D01*
X74607928Y-71687086D01*
X74572076Y-71568896D01*
X74513854Y-71459972D01*
X74435501Y-71364499D01*
X74340028Y-71286146D01*
X74231104Y-71227924D01*
X74112914Y-71192072D01*
X73990000Y-71179966D01*
X73423750Y-71183000D01*
X73267000Y-71339750D01*
X73013000Y-71339750D01*
X72856250Y-71183000D01*
X72290000Y-71179966D01*
X72167086Y-71192072D01*
X72048896Y-71227924D01*
X71939972Y-71286146D01*
X71844499Y-71364499D01*
X71766146Y-71459972D01*
X71707924Y-71568896D01*
X71672072Y-71687086D01*
X71659966Y-71810000D01*
X71020034Y-71810000D01*
X71007928Y-71687086D01*
X70972076Y-71568896D01*
X70913854Y-71459972D01*
X70835501Y-71364499D01*
X70740028Y-71286146D01*
X70631104Y-71227924D01*
X70512914Y-71192072D01*
X70390000Y-71179966D01*
X69823750Y-71183000D01*
X69667000Y-71339750D01*
X69413000Y-71339750D01*
X69256250Y-71183000D01*
X68690000Y-71179966D01*
X68567086Y-71192072D01*
X68448896Y-71227924D01*
X68339972Y-71286146D01*
X68244499Y-71364499D01*
X68166146Y-71459972D01*
X68107924Y-71568896D01*
X68072072Y-71687086D01*
X68059966Y-71810000D01*
X67867001Y-71810000D01*
X67867001Y-71751936D01*
X67870639Y-71715000D01*
X67866812Y-71676146D01*
X67856120Y-71567583D01*
X67813119Y-71425831D01*
X67757139Y-71321099D01*
X67743291Y-71295190D01*
X67707607Y-71251709D01*
X67649318Y-71180684D01*
X67620623Y-71157135D01*
X67250134Y-70786646D01*
X67280580Y-70713141D01*
X83093142Y-70713141D01*
X83142618Y-71129192D01*
X83272311Y-71527597D01*
X83429301Y-71821303D01*
X83742625Y-71977770D01*
X85050395Y-70670000D01*
X85409605Y-70670000D01*
X86717375Y-71977770D01*
X87030699Y-71821303D01*
X87220708Y-71447883D01*
X87334215Y-71044568D01*
X87360115Y-70713141D01*
X89443142Y-70713141D01*
X89492618Y-71129192D01*
X89622311Y-71527597D01*
X89779301Y-71821303D01*
X90092625Y-71977770D01*
X91400395Y-70670000D01*
X90092625Y-69362230D01*
X89779301Y-69518697D01*
X89589292Y-69892117D01*
X89475785Y-70295432D01*
X89443142Y-70713141D01*
X87360115Y-70713141D01*
X87366858Y-70626859D01*
X87317382Y-70210808D01*
X87187689Y-69812403D01*
X87030699Y-69518697D01*
X86717375Y-69362230D01*
X85409605Y-70670000D01*
X85050395Y-70670000D01*
X83742625Y-69362230D01*
X83429301Y-69518697D01*
X83239292Y-69892117D01*
X83125785Y-70295432D01*
X83093142Y-70713141D01*
X67280580Y-70713141D01*
X67360240Y-70520825D01*
X67417000Y-70235472D01*
X67417000Y-69944528D01*
X67360240Y-69659175D01*
X67248901Y-69390378D01*
X67110085Y-69182625D01*
X83922230Y-69182625D01*
X85230000Y-70490395D01*
X86537770Y-69182625D01*
X90272230Y-69182625D01*
X91580000Y-70490395D01*
X92887770Y-69182625D01*
X92731303Y-68869301D01*
X92357883Y-68679292D01*
X91954568Y-68565785D01*
X91536859Y-68533142D01*
X91120808Y-68582618D01*
X90722403Y-68712311D01*
X90428697Y-68869301D01*
X90272230Y-69182625D01*
X86537770Y-69182625D01*
X86381303Y-68869301D01*
X86007883Y-68679292D01*
X85604568Y-68565785D01*
X85186859Y-68533142D01*
X84770808Y-68582618D01*
X84372403Y-68712311D01*
X84078697Y-68869301D01*
X83922230Y-69182625D01*
X67110085Y-69182625D01*
X67087261Y-69148467D01*
X66881533Y-68942739D01*
X66639622Y-68781099D01*
X66370825Y-68669760D01*
X66085472Y-68613000D01*
X65794528Y-68613000D01*
X65509175Y-68669760D01*
X65240378Y-68781099D01*
X64998467Y-68942739D01*
X64792739Y-69148467D01*
X64631099Y-69390378D01*
X64519760Y-69659175D01*
X64463000Y-69944528D01*
X64463000Y-70235472D01*
X64518204Y-70513001D01*
X63761796Y-70513001D01*
X63817000Y-70235472D01*
X63817000Y-69944528D01*
X63760240Y-69659175D01*
X63648901Y-69390378D01*
X63487261Y-69148467D01*
X63281533Y-68942739D01*
X63039622Y-68781099D01*
X62770825Y-68669760D01*
X62485472Y-68613000D01*
X62194528Y-68613000D01*
X61909175Y-68669760D01*
X61640378Y-68781099D01*
X61398467Y-68942739D01*
X61192739Y-69148467D01*
X61031099Y-69390378D01*
X60919760Y-69659175D01*
X60863000Y-69944528D01*
X60863000Y-70235472D01*
X60918204Y-70513001D01*
X57313375Y-70513001D01*
X56831330Y-70030956D01*
X56806926Y-69908268D01*
X56737046Y-69739565D01*
X56655819Y-69617999D01*
X58566819Y-67707000D01*
X83604031Y-67707000D01*
X83607087Y-67707927D01*
%TA.AperFunction,Conductor*%
D27*
G36*
X83607087Y-67707927D02*
G01*
X83730000Y-67720033D01*
X86730000Y-67720033D01*
X86852913Y-67707927D01*
X86855969Y-67707000D01*
X89954031Y-67707000D01*
X89957087Y-67707927D01*
X90080000Y-67720033D01*
X92156215Y-67720033D01*
X93223000Y-68786819D01*
X93223000Y-69439946D01*
X93067375Y-69362230D01*
X91759605Y-70670000D01*
X93067375Y-71977770D01*
X93223001Y-71900054D01*
X93223001Y-73676165D01*
X93090378Y-73731099D01*
X92848467Y-73892739D01*
X92642739Y-74098467D01*
X92481099Y-74340378D01*
X92369760Y-74609175D01*
X92313000Y-74894528D01*
X92313000Y-75185472D01*
X92369760Y-75470825D01*
X92481099Y-75739622D01*
X92642739Y-75981533D01*
X92783475Y-76122269D01*
X92698897Y-76147925D01*
X92589972Y-76206147D01*
X92494499Y-76284499D01*
X92416147Y-76379972D01*
X92357925Y-76488897D01*
X92322073Y-76607087D01*
X92309967Y-76730000D01*
X92309967Y-77303000D01*
X90728433Y-77303000D01*
X90731358Y-77297671D01*
X90824460Y-77002609D01*
X90699553Y-76757000D01*
X89407000Y-76757000D01*
X89407000Y-76777000D01*
X89153000Y-76777000D01*
X89153000Y-76757000D01*
X89133000Y-76757000D01*
X89133000Y-76503000D01*
X89153000Y-76503000D01*
X89153000Y-75165430D01*
X89407000Y-75165430D01*
X89407000Y-76503000D01*
X90699553Y-76503000D01*
X90824460Y-76257391D01*
X90731358Y-75962329D01*
X90582481Y-75691100D01*
X90383551Y-75454127D01*
X90142212Y-75260516D01*
X89867739Y-75117708D01*
X89651725Y-75047364D01*
X89407000Y-75165430D01*
X89153000Y-75165430D01*
X88908275Y-75047364D01*
X88692261Y-75117708D01*
X88417788Y-75260516D01*
X88176449Y-75454127D01*
X88015058Y-75646383D01*
X87862279Y-75460221D01*
X87621768Y-75262840D01*
X87347372Y-75116172D01*
X87049635Y-75025854D01*
X86740000Y-74995358D01*
X86430364Y-75025854D01*
X86132627Y-75116172D01*
X85858231Y-75262840D01*
X85725444Y-75371815D01*
X85676353Y-75279972D01*
X85598001Y-75184499D01*
X85502528Y-75106147D01*
X85393603Y-75047925D01*
X85275413Y-75012073D01*
X85152500Y-74999967D01*
X83247500Y-74999967D01*
X83124587Y-75012073D01*
X83006397Y-75047925D01*
X82897472Y-75106147D01*
X82801999Y-75184499D01*
X82723647Y-75279972D01*
X82665425Y-75388897D01*
X82629573Y-75507087D01*
X82617467Y-75630000D01*
X82617467Y-76249044D01*
X80423533Y-78442979D01*
X78056658Y-78442979D01*
X78058901Y-78439622D01*
X78170240Y-78170825D01*
X78227000Y-77885472D01*
X78227000Y-77594528D01*
X78170240Y-77309175D01*
X78058901Y-77040378D01*
X77897261Y-76798467D01*
X77691533Y-76592739D01*
X77507841Y-76470000D01*
X77691533Y-76347261D01*
X77897261Y-76141533D01*
X78058901Y-75899622D01*
X78170240Y-75630825D01*
X78227000Y-75345472D01*
X78227000Y-75054528D01*
X78170240Y-74769175D01*
X78058901Y-74500378D01*
X77897261Y-74258467D01*
X77756526Y-74117732D01*
X77841104Y-74092076D01*
X77950028Y-74033854D01*
X78045501Y-73955501D01*
X78123854Y-73860028D01*
X78182076Y-73751104D01*
X78217928Y-73632914D01*
X78230034Y-73510000D01*
X78227000Y-72943750D01*
X78070250Y-72787000D01*
X76877000Y-72787000D01*
X76877000Y-72807000D01*
X76623000Y-72807000D01*
X76623000Y-72787000D01*
X75429750Y-72787000D01*
X75273000Y-72943750D01*
X75269966Y-73510000D01*
X75282072Y-73632914D01*
X75317924Y-73751104D01*
X75376146Y-73860028D01*
X75454499Y-73955501D01*
X75549972Y-74033854D01*
X75623208Y-74073000D01*
X74266792Y-74073000D01*
X74340028Y-74033854D01*
X74435501Y-73955501D01*
X74513854Y-73860028D01*
X74572076Y-73751104D01*
X74607928Y-73632914D01*
X74620034Y-73510000D01*
X74617000Y-72943750D01*
X74460250Y-72787000D01*
X73267000Y-72787000D01*
X73267000Y-72807000D01*
X73013000Y-72807000D01*
X73013000Y-72787000D01*
X71819750Y-72787000D01*
X71663000Y-72943750D01*
X71659966Y-73510000D01*
X71672072Y-73632914D01*
X71707924Y-73751104D01*
X71766146Y-73860028D01*
X71844499Y-73955501D01*
X71939972Y-74033854D01*
X72013208Y-74073000D01*
X70666792Y-74073000D01*
X70740028Y-74033854D01*
X70835501Y-73955501D01*
X70913854Y-73860028D01*
X70972076Y-73751104D01*
X71007928Y-73632914D01*
X71020034Y-73510000D01*
X71017000Y-72943750D01*
X70860250Y-72787000D01*
X69667000Y-72787000D01*
X69667000Y-72807000D01*
X69413000Y-72807000D01*
X69413000Y-72787000D01*
X68219750Y-72787000D01*
X68063000Y-72943750D01*
X68059966Y-73510000D01*
X68072072Y-73632914D01*
X68107924Y-73751104D01*
X68166146Y-73860028D01*
X68244499Y-73955501D01*
X68339972Y-74033854D01*
X68448896Y-74092076D01*
X68533474Y-74117732D01*
X68392739Y-74258467D01*
X68231099Y-74500378D01*
X68119760Y-74769175D01*
X68063000Y-75054528D01*
X68063000Y-75345472D01*
X68119760Y-75630825D01*
X68195219Y-75812999D01*
X68056487Y-75812999D01*
X67867001Y-75623513D01*
X67867001Y-71810000D01*
X68059966Y-71810000D01*
X68063000Y-72376250D01*
X68219750Y-72533000D01*
X69413000Y-72533000D01*
X69413000Y-71339750D01*
X69667000Y-71339750D01*
X69667000Y-72533000D01*
X70860250Y-72533000D01*
X71017000Y-72376250D01*
X71020034Y-71810000D01*
X71659966Y-71810000D01*
X71663000Y-72376250D01*
X71819750Y-72533000D01*
X73013000Y-72533000D01*
X73013000Y-71339750D01*
X73267000Y-71339750D01*
X73267000Y-72533000D01*
X74460250Y-72533000D01*
X74617000Y-72376250D01*
X74620034Y-71810000D01*
X75269966Y-71810000D01*
X75273000Y-72376250D01*
X75429750Y-72533000D01*
X76623000Y-72533000D01*
X76623000Y-71339750D01*
X76877000Y-71339750D01*
X76877000Y-72533000D01*
X78070250Y-72533000D01*
X78227000Y-72376250D01*
X78228172Y-72157375D01*
X83922230Y-72157375D01*
X84078697Y-72470699D01*
X84452117Y-72660708D01*
X84855432Y-72774215D01*
X85273141Y-72806858D01*
X85689192Y-72757382D01*
X86087597Y-72627689D01*
X86381303Y-72470699D01*
X86537770Y-72157375D01*
X90272230Y-72157375D01*
X90428697Y-72470699D01*
X90802117Y-72660708D01*
X91205432Y-72774215D01*
X91623141Y-72806858D01*
X92039192Y-72757382D01*
X92437597Y-72627689D01*
X92731303Y-72470699D01*
X92887770Y-72157375D01*
X91580000Y-70849605D01*
X90272230Y-72157375D01*
X86537770Y-72157375D01*
X85230000Y-70849605D01*
X83922230Y-72157375D01*
X78228172Y-72157375D01*
X78230034Y-71810000D01*
X78217928Y-71687086D01*
X78182076Y-71568896D01*
X78123854Y-71459972D01*
X78045501Y-71364499D01*
X77950028Y-71286146D01*
X77841104Y-71227924D01*
X77722914Y-71192072D01*
X77600000Y-71179966D01*
X77033750Y-71183000D01*
X76877000Y-71339750D01*
X76623000Y-71339750D01*
X76466250Y-71183000D01*
X75900000Y-71179966D01*
X75777086Y-71192072D01*
X75658896Y-71227924D01*
X75549972Y-71286146D01*
X75454499Y-71364499D01*
X75376146Y-71459972D01*
X75317924Y-71568896D01*
X75282072Y-71687086D01*
X75269966Y-71810000D01*
X74620034Y-71810000D01*
X74607928Y-71687086D01*
X74572076Y-71568896D01*
X74513854Y-71459972D01*
X74435501Y-71364499D01*
X74340028Y-71286146D01*
X74231104Y-71227924D01*
X74112914Y-71192072D01*
X73990000Y-71179966D01*
X73423750Y-71183000D01*
X73267000Y-71339750D01*
X73013000Y-71339750D01*
X72856250Y-71183000D01*
X72290000Y-71179966D01*
X72167086Y-71192072D01*
X72048896Y-71227924D01*
X71939972Y-71286146D01*
X71844499Y-71364499D01*
X71766146Y-71459972D01*
X71707924Y-71568896D01*
X71672072Y-71687086D01*
X71659966Y-71810000D01*
X71020034Y-71810000D01*
X71007928Y-71687086D01*
X70972076Y-71568896D01*
X70913854Y-71459972D01*
X70835501Y-71364499D01*
X70740028Y-71286146D01*
X70631104Y-71227924D01*
X70512914Y-71192072D01*
X70390000Y-71179966D01*
X69823750Y-71183000D01*
X69667000Y-71339750D01*
X69413000Y-71339750D01*
X69256250Y-71183000D01*
X68690000Y-71179966D01*
X68567086Y-71192072D01*
X68448896Y-71227924D01*
X68339972Y-71286146D01*
X68244499Y-71364499D01*
X68166146Y-71459972D01*
X68107924Y-71568896D01*
X68072072Y-71687086D01*
X68059966Y-71810000D01*
X67867001Y-71810000D01*
X67867001Y-71751936D01*
X67870639Y-71715000D01*
X67866812Y-71676146D01*
X67856120Y-71567583D01*
X67813119Y-71425831D01*
X67757139Y-71321099D01*
X67743291Y-71295190D01*
X67707607Y-71251709D01*
X67649318Y-71180684D01*
X67620623Y-71157135D01*
X67250134Y-70786646D01*
X67280580Y-70713141D01*
X83093142Y-70713141D01*
X83142618Y-71129192D01*
X83272311Y-71527597D01*
X83429301Y-71821303D01*
X83742625Y-71977770D01*
X85050395Y-70670000D01*
X85409605Y-70670000D01*
X86717375Y-71977770D01*
X87030699Y-71821303D01*
X87220708Y-71447883D01*
X87334215Y-71044568D01*
X87360115Y-70713141D01*
X89443142Y-70713141D01*
X89492618Y-71129192D01*
X89622311Y-71527597D01*
X89779301Y-71821303D01*
X90092625Y-71977770D01*
X91400395Y-70670000D01*
X90092625Y-69362230D01*
X89779301Y-69518697D01*
X89589292Y-69892117D01*
X89475785Y-70295432D01*
X89443142Y-70713141D01*
X87360115Y-70713141D01*
X87366858Y-70626859D01*
X87317382Y-70210808D01*
X87187689Y-69812403D01*
X87030699Y-69518697D01*
X86717375Y-69362230D01*
X85409605Y-70670000D01*
X85050395Y-70670000D01*
X83742625Y-69362230D01*
X83429301Y-69518697D01*
X83239292Y-69892117D01*
X83125785Y-70295432D01*
X83093142Y-70713141D01*
X67280580Y-70713141D01*
X67360240Y-70520825D01*
X67417000Y-70235472D01*
X67417000Y-69944528D01*
X67360240Y-69659175D01*
X67248901Y-69390378D01*
X67110085Y-69182625D01*
X83922230Y-69182625D01*
X85230000Y-70490395D01*
X86537770Y-69182625D01*
X90272230Y-69182625D01*
X91580000Y-70490395D01*
X92887770Y-69182625D01*
X92731303Y-68869301D01*
X92357883Y-68679292D01*
X91954568Y-68565785D01*
X91536859Y-68533142D01*
X91120808Y-68582618D01*
X90722403Y-68712311D01*
X90428697Y-68869301D01*
X90272230Y-69182625D01*
X86537770Y-69182625D01*
X86381303Y-68869301D01*
X86007883Y-68679292D01*
X85604568Y-68565785D01*
X85186859Y-68533142D01*
X84770808Y-68582618D01*
X84372403Y-68712311D01*
X84078697Y-68869301D01*
X83922230Y-69182625D01*
X67110085Y-69182625D01*
X67087261Y-69148467D01*
X66881533Y-68942739D01*
X66639622Y-68781099D01*
X66370825Y-68669760D01*
X66085472Y-68613000D01*
X65794528Y-68613000D01*
X65509175Y-68669760D01*
X65240378Y-68781099D01*
X64998467Y-68942739D01*
X64792739Y-69148467D01*
X64631099Y-69390378D01*
X64519760Y-69659175D01*
X64463000Y-69944528D01*
X64463000Y-70235472D01*
X64518204Y-70513001D01*
X63761796Y-70513001D01*
X63817000Y-70235472D01*
X63817000Y-69944528D01*
X63760240Y-69659175D01*
X63648901Y-69390378D01*
X63487261Y-69148467D01*
X63281533Y-68942739D01*
X63039622Y-68781099D01*
X62770825Y-68669760D01*
X62485472Y-68613000D01*
X62194528Y-68613000D01*
X61909175Y-68669760D01*
X61640378Y-68781099D01*
X61398467Y-68942739D01*
X61192739Y-69148467D01*
X61031099Y-69390378D01*
X60919760Y-69659175D01*
X60863000Y-69944528D01*
X60863000Y-70235472D01*
X60918204Y-70513001D01*
X57313375Y-70513001D01*
X56831330Y-70030956D01*
X56806926Y-69908268D01*
X56737046Y-69739565D01*
X56655819Y-69617999D01*
X58566819Y-67707000D01*
X83604031Y-67707000D01*
X83607087Y-67707927D01*
G37*
%TD.AperFunction*%
%TD*%
M02*
