M48
; DRILL file {KiCad (5.1.8)-1} date 09/15/21 23:56:32
; FORMAT={-:-/ absolute / inch / decimal}
; #@! TF.CreationDate,2021-09-15T23:56:32-04:00
; #@! TF.GenerationSoftware,Kicad,Pcbnew,(5.1.8)-1
; #@! TF.FileFunction,Plated,1,2,PTH
FMAT,2
INCH
T1C0.0157
T2C0.0295
T3C0.0315
T4C0.0360
T5C0.0394
T6C0.0433
T7C0.0598
%
G90
G05
T1
X1.9756Y-3.1488
X2.1387Y-1.9587
X2.2014Y-2.7629
X2.2587Y-2.8805
X2.2941Y-2.8805
X2.3303Y-2.8805
T2
X2.0878Y-1.3469
X2.0878Y-1.3969
X2.0878Y-1.4469
X3.2622Y-1.4969
X3.2622Y-1.5469
X3.2622Y-1.5969
X2.0878Y-1.5618
X2.0878Y-1.6118
X2.0878Y-1.6618
T3
X2.2543Y-1.3701
X2.2543Y-1.6701
X2.7728Y-1.6063
X3.0728Y-1.6063
X2.4906Y-1.3701
X2.4906Y-1.6701
X2.7728Y-1.4882
X3.0728Y-1.4882
X1.3492Y-1.5732
X1.428Y-1.5732
X2.3724Y-1.3701
X2.3724Y-1.6701
X2.6087Y-1.3701
X2.6087Y-1.6701
X1.6094Y-3.0827
X1.6882Y-3.0827
T4
X1.6764Y-1.2358
X1.6764Y-1.8358
X1.7764Y-1.2358
X1.7764Y-1.8358
X1.8764Y-1.2358
X1.8764Y-1.8358
X1.9764Y-1.2358
X1.9764Y-1.8358
X2.0764Y-1.2358
X2.0764Y-1.8358
X2.1764Y-1.2358
X2.1764Y-1.8358
X2.2764Y-1.2358
X2.2764Y-1.8358
X2.3764Y-1.2358
X2.3764Y-1.8358
X2.4764Y-1.2358
X2.4764Y-1.8358
X2.5764Y-1.2358
X2.5764Y-1.8358
X2.6764Y-1.2358
X2.6764Y-1.8358
X2.7764Y-1.2358
X2.7764Y-1.8358
X2.8764Y-1.2358
X2.8764Y-1.8358
X2.9764Y-1.2358
X2.9764Y-1.8358
X3.0764Y-1.2358
X3.0764Y-1.8358
X3.1764Y-1.2358
X3.1764Y-1.8358
X3.2764Y-1.2358
X3.2764Y-1.8358
T5
X2.7378Y-2.8606
X2.7378Y-2.9606
X2.7378Y-3.0606
X1.8264Y-3.0996
X1.9264Y-3.0996
X2.0264Y-3.0996
X2.1264Y-3.0996
X2.2264Y-3.0996
X3.6181Y-1.5102
X3.6181Y-1.6102
X2.5961Y-2.7594
X2.5961Y-2.8594
X2.5961Y-2.9594
X2.5961Y-3.0594
X3.0217Y-2.8606
X3.0217Y-2.9606
X3.0217Y-3.0606
X3.6925Y-2.9543
X3.6925Y-3.0543
X2.4543Y-2.7594
X2.4543Y-2.8594
X2.4543Y-2.9594
X2.4543Y-3.0594
X2.8795Y-2.8606
X2.8795Y-2.9606
X2.8795Y-3.0606
X1.5201Y-2.876
X1.6201Y-2.876
X1.7201Y-2.876
X1.8201Y-2.876
X1.9201Y-2.876
X2.0201Y-2.876
X1.5264Y-3.1996
X1.5264Y-3.2996
X1.6264Y-3.1996
X1.6264Y-3.2996
X1.7264Y-3.1996
X1.7264Y-3.2996
X1.8264Y-3.1996
X1.8264Y-3.2996
X1.9264Y-3.1996
X1.9264Y-3.2996
X2.0264Y-3.1996
X2.0264Y-3.2996
X2.1264Y-3.1996
X2.1264Y-3.2996
X2.2264Y-3.1996
X2.2264Y-3.2996
X2.3264Y-3.1996
X2.3264Y-3.2996
X2.4264Y-3.1996
X2.4264Y-3.2996
X2.5264Y-3.1996
X2.5264Y-3.2996
X2.6264Y-3.1996
X2.6264Y-3.2996
X2.7264Y-3.1996
X2.7264Y-3.2996
X2.8264Y-3.1996
X2.8264Y-3.2996
X2.9264Y-3.1996
X2.9264Y-3.2996
X3.0264Y-3.1996
X3.0264Y-3.2996
X3.1264Y-3.1996
X3.1264Y-3.2996
X3.2264Y-3.1996
X3.2264Y-3.2996
X3.3264Y-3.1996
X3.3264Y-3.2996
X3.4264Y-3.1996
X3.4264Y-3.2996
T6
X3.315Y-3.0169
X3.415Y-3.0169
X3.515Y-3.0169
T7
X3.6051Y-1.7878
X3.6051Y-1.9878
X3.6055Y-2.5823
X3.6055Y-2.7823
X3.3555Y-2.5823
X3.3555Y-2.7823
T0
M30
