%TF.GenerationSoftware,KiCad,Pcbnew,(5.1.8)-1*%
%TF.CreationDate,2021-12-28T16:16:16-05:00*%
%TF.ProjectId,PiRaceHat,50695261-6365-4486-9174-2e6b69636164,rev?*%
%TF.SameCoordinates,Original*%
%TF.FileFunction,Legend,Bot*%
%TF.FilePolarity,Positive*%
%FSLAX46Y46*%
G04 Gerber Fmt 4.6, Leading zero omitted, Abs format (unit mm)*
G04 Created by KiCad (PCBNEW (5.1.8)-1) date 2021-12-28 16:16:16*
%MOMM*%
%LPD*%
G01*
G04 APERTURE LIST*
%ADD10C,0.150000*%
%ADD11C,0.120000*%
%ADD12R,4.000000X4.000000*%
%ADD13C,4.000000*%
%ADD14R,1.700000X1.700000*%
%ADD15O,1.700000X1.700000*%
%ADD16C,6.200000*%
%ADD17R,1.500000X1.050000*%
%ADD18O,1.500000X1.050000*%
%ADD19R,1.905000X2.000000*%
%ADD20O,1.905000X2.000000*%
%ADD21R,1.574800X1.574800*%
%ADD22C,1.574800*%
%ADD23C,1.200000*%
%ADD24R,1.600000X1.600000*%
%ADD25C,1.600000*%
%ADD26O,1.600000X1.600000*%
G04 APERTURE END LIST*
D10*
X93409048Y-72968571D02*
X94170953Y-72968571D01*
X93790001Y-72587619D02*
X93790001Y-73349523D01*
X92082380Y-74257380D02*
X91606190Y-73924047D01*
X92082380Y-73685952D02*
X91082380Y-73685952D01*
X91082380Y-74066904D01*
X91130000Y-74162142D01*
X91177619Y-74209761D01*
X91272857Y-74257380D01*
X91415714Y-74257380D01*
X91510952Y-74209761D01*
X91558571Y-74162142D01*
X91606190Y-74066904D01*
X91606190Y-73685952D01*
X91082380Y-74876428D02*
X91082380Y-75066904D01*
X91130000Y-75162142D01*
X91225238Y-75257380D01*
X91415714Y-75305000D01*
X91749047Y-75305000D01*
X91939523Y-75257380D01*
X92034761Y-75162142D01*
X92082380Y-75066904D01*
X92082380Y-74876428D01*
X92034761Y-74781190D01*
X91939523Y-74685952D01*
X91749047Y-74638333D01*
X91415714Y-74638333D01*
X91225238Y-74685952D01*
X91130000Y-74781190D01*
X91082380Y-74876428D01*
X91987142Y-76305000D02*
X92034761Y-76257380D01*
X92082380Y-76114523D01*
X92082380Y-76019285D01*
X92034761Y-75876428D01*
X91939523Y-75781190D01*
X91844285Y-75733571D01*
X91653809Y-75685952D01*
X91510952Y-75685952D01*
X91320476Y-75733571D01*
X91225238Y-75781190D01*
X91130000Y-75876428D01*
X91082380Y-76019285D01*
X91082380Y-76114523D01*
X91130000Y-76257380D01*
X91177619Y-76305000D01*
X92082380Y-76733571D02*
X91082380Y-76733571D01*
X92082380Y-77305000D02*
X91510952Y-76876428D01*
X91082380Y-77305000D02*
X91653809Y-76733571D01*
X91558571Y-77733571D02*
X91558571Y-78066904D01*
X92082380Y-78209761D02*
X92082380Y-77733571D01*
X91082380Y-77733571D01*
X91082380Y-78209761D01*
X91082380Y-78495476D02*
X91082380Y-79066904D01*
X92082380Y-78781190D02*
X91082380Y-78781190D01*
D11*
%TO.C,J1*%
X88360000Y-85140000D02*
X88360000Y-82540000D01*
X88360000Y-85140000D02*
X37440000Y-85140000D01*
X37440000Y-85140000D02*
X37440000Y-79940000D01*
X85760000Y-79940000D02*
X37440000Y-79940000D01*
X85760000Y-82540000D02*
X85760000Y-79940000D01*
X88360000Y-82540000D02*
X85760000Y-82540000D01*
X88360000Y-79940000D02*
X87030000Y-79940000D01*
X88360000Y-81270000D02*
X88360000Y-79940000D01*
%TO.C,J13*%
X92460000Y-78910000D02*
X93790000Y-78910000D01*
X92460000Y-77580000D02*
X92460000Y-78910000D01*
X92460000Y-76310000D02*
X95120000Y-76310000D01*
X95120000Y-76310000D02*
X95120000Y-73710000D01*
X92460000Y-76310000D02*
X92460000Y-73710000D01*
X92460000Y-73710000D02*
X95120000Y-73710000D01*
%TD*%
%LPC*%
D12*
%TO.C,J7*%
X91580000Y-65190000D03*
D13*
X91580000Y-70270000D03*
%TD*%
D12*
%TO.C,J8*%
X91570000Y-50490000D03*
D13*
X91570000Y-45410000D03*
%TD*%
D12*
%TO.C,J9*%
X85230000Y-65190000D03*
D13*
X85230000Y-70270000D03*
%TD*%
D14*
%TO.C,J3*%
X50860000Y-66420000D03*
D15*
X48320000Y-66420000D03*
X45780000Y-66420000D03*
X43240000Y-66420000D03*
X40700000Y-66420000D03*
%TD*%
D16*
%TO.C,*%
X33900000Y-82540000D03*
%TD*%
%TO.C,*%
X33900000Y-33540000D03*
%TD*%
%TO.C,*%
X91900000Y-33540000D03*
%TD*%
%TO.C,*%
X91900000Y-82540000D03*
%TD*%
D14*
%TO.C,J1*%
X87030000Y-81270000D03*
D15*
X87030000Y-83810000D03*
X84490000Y-81270000D03*
X84490000Y-83810000D03*
X81950000Y-81270000D03*
X81950000Y-83810000D03*
X79410000Y-81270000D03*
X79410000Y-83810000D03*
X76870000Y-81270000D03*
X76870000Y-83810000D03*
X74330000Y-81270000D03*
X74330000Y-83810000D03*
X71790000Y-81270000D03*
X71790000Y-83810000D03*
X69250000Y-81270000D03*
X69250000Y-83810000D03*
X66710000Y-81270000D03*
X66710000Y-83810000D03*
X64170000Y-81270000D03*
X64170000Y-83810000D03*
X61630000Y-81270000D03*
X61630000Y-83810000D03*
X59090000Y-81270000D03*
X59090000Y-83810000D03*
X56550000Y-81270000D03*
X56550000Y-83810000D03*
X54010000Y-81270000D03*
X54010000Y-83810000D03*
X51470000Y-81270000D03*
X51470000Y-83810000D03*
X48930000Y-81270000D03*
X48930000Y-83810000D03*
X46390000Y-81270000D03*
X46390000Y-83810000D03*
X43850000Y-81270000D03*
X43850000Y-83810000D03*
X41310000Y-81270000D03*
X41310000Y-83810000D03*
X38770000Y-81270000D03*
X38770000Y-83810000D03*
%TD*%
D14*
%TO.C,J4*%
X76750000Y-72660000D03*
D15*
X76750000Y-75200000D03*
X76750000Y-77740000D03*
%TD*%
D14*
%TO.C,J5*%
X73140000Y-72660000D03*
D15*
X73140000Y-75200000D03*
X73140000Y-77740000D03*
%TD*%
%TO.C,J6*%
X69540000Y-77740000D03*
X69540000Y-75200000D03*
D14*
X69540000Y-72660000D03*
%TD*%
%TO.C,J10*%
X62340000Y-77710000D03*
D15*
X62340000Y-75170000D03*
X62340000Y-72630000D03*
X62340000Y-70090000D03*
%TD*%
%TO.C,J11*%
X65940000Y-70090000D03*
X65940000Y-72630000D03*
X65940000Y-75170000D03*
D14*
X65940000Y-77710000D03*
%TD*%
%TO.C,J12*%
X91900000Y-40900000D03*
D15*
X91900000Y-38360000D03*
%TD*%
%TO.C,J13*%
X93790000Y-75040000D03*
D14*
X93790000Y-77580000D03*
%TD*%
D17*
%TO.C,Q1*%
X53030000Y-34210000D03*
D18*
X53030000Y-36750000D03*
X53030000Y-35480000D03*
%TD*%
%TO.C,Q2*%
X53030000Y-40940000D03*
X53030000Y-42210000D03*
D17*
X53030000Y-39670000D03*
%TD*%
D18*
%TO.C,Q3*%
X82860000Y-39290000D03*
X82860000Y-40560000D03*
D17*
X82860000Y-38020000D03*
%TD*%
D19*
%TO.C,Q4*%
X84200000Y-76630000D03*
D20*
X86740000Y-76630000D03*
X89280000Y-76630000D03*
%TD*%
D21*
%TO.C,U1*%
X42580000Y-46630000D03*
D22*
X45120000Y-46630000D03*
X47660000Y-46630000D03*
X50200000Y-46630000D03*
X52740000Y-46630000D03*
X55280000Y-46630000D03*
X57820000Y-46630000D03*
X60360000Y-46630000D03*
X62900000Y-46630000D03*
X65440000Y-46630000D03*
X67980000Y-46630000D03*
X70520000Y-46630000D03*
X73060000Y-46630000D03*
X75600000Y-46630000D03*
X78140000Y-46630000D03*
X80680000Y-46630000D03*
X83220000Y-46630000D03*
X83220000Y-31390000D03*
X80680000Y-31390000D03*
X78140000Y-31390000D03*
X75600000Y-31390000D03*
X73060000Y-31390000D03*
X70520000Y-31390000D03*
X67980000Y-31390000D03*
X65440000Y-31390000D03*
X62900000Y-31390000D03*
X60360000Y-31390000D03*
X57820000Y-31390000D03*
X55280000Y-31390000D03*
X52740000Y-31390000D03*
X50200000Y-31390000D03*
X47660000Y-31390000D03*
X45120000Y-31390000D03*
X42580000Y-31390000D03*
D23*
X85760000Y-46630000D03*
X85760000Y-31390000D03*
X40040000Y-46630000D03*
X40040000Y-31390000D03*
%TD*%
D24*
%TO.C,C1*%
X36300000Y-67770000D03*
D25*
X34300000Y-67770000D03*
%TD*%
%TO.C,C2*%
X34270000Y-39960000D03*
D24*
X36270000Y-39960000D03*
%TD*%
D26*
%TO.C,R1*%
X60260000Y-42420000D03*
D25*
X60260000Y-34800000D03*
%TD*%
%TO.C,R2*%
X57260000Y-34800000D03*
D26*
X57260000Y-42420000D03*
%TD*%
D25*
%TO.C,R3*%
X66260000Y-34800000D03*
D26*
X66260000Y-42420000D03*
%TD*%
%TO.C,R4*%
X63260000Y-42420000D03*
D25*
X63260000Y-34800000D03*
%TD*%
%TO.C,R5*%
X70430000Y-37800000D03*
D26*
X78050000Y-37800000D03*
%TD*%
%TO.C,R6*%
X78050000Y-40800000D03*
D25*
X70430000Y-40800000D03*
%TD*%
D14*
%TO.C,J14*%
X32680000Y-50340000D03*
D15*
X35220000Y-50340000D03*
X37760000Y-50340000D03*
X40300000Y-50340000D03*
X42840000Y-50340000D03*
X45380000Y-50340000D03*
X47920000Y-50340000D03*
X50460000Y-50340000D03*
X53000000Y-50340000D03*
X55540000Y-50340000D03*
%TD*%
M02*
