%TF.GenerationSoftware,KiCad,Pcbnew,(5.1.8)-1*%
%TF.CreationDate,2021-12-28T16:16:16-05:00*%
%TF.ProjectId,PiRaceHat,50695261-6365-4486-9174-2e6b69636164,rev?*%
%TF.SameCoordinates,Original*%
%TF.FileFunction,Copper,L2,Bot*%
%TF.FilePolarity,Positive*%
%FSLAX46Y46*%
G04 Gerber Fmt 4.6, Leading zero omitted, Abs format (unit mm)*
G04 Created by KiCad (PCBNEW (5.1.8)-1) date 2021-12-28 16:16:16*
%MOMM*%
%LPD*%
G01*
G04 APERTURE LIST*
%TA.AperFunction,ComponentPad*%
%ADD10R,4.000000X4.000000*%
%TD*%
%TA.AperFunction,ComponentPad*%
%ADD11C,4.000000*%
%TD*%
%TA.AperFunction,ComponentPad*%
%ADD12R,1.700000X1.700000*%
%TD*%
%TA.AperFunction,ComponentPad*%
%ADD13O,1.700000X1.700000*%
%TD*%
%TA.AperFunction,ComponentPad*%
%ADD14R,1.500000X1.050000*%
%TD*%
%TA.AperFunction,ComponentPad*%
%ADD15O,1.500000X1.050000*%
%TD*%
%TA.AperFunction,ComponentPad*%
%ADD16R,1.905000X2.000000*%
%TD*%
%TA.AperFunction,ComponentPad*%
%ADD17O,1.905000X2.000000*%
%TD*%
%TA.AperFunction,ComponentPad*%
%ADD18R,1.574800X1.574800*%
%TD*%
%TA.AperFunction,ComponentPad*%
%ADD19C,1.574800*%
%TD*%
%TA.AperFunction,ComponentPad*%
%ADD20R,1.600000X1.600000*%
%TD*%
%TA.AperFunction,ComponentPad*%
%ADD21C,1.600000*%
%TD*%
%TA.AperFunction,ComponentPad*%
%ADD22O,1.600000X1.600000*%
%TD*%
%TA.AperFunction,ViaPad*%
%ADD23C,0.600000*%
%TD*%
%TA.AperFunction,Conductor*%
%ADD24C,0.250000*%
%TD*%
%TA.AperFunction,Conductor*%
%ADD25C,0.254000*%
%TD*%
%TA.AperFunction,Conductor*%
%ADD26C,0.100000*%
%TD*%
G04 APERTURE END LIST*
D10*
%TO.P,J7,1*%
%TO.N,VDD*%
X91580000Y-65190000D03*
D11*
%TO.P,J7,2*%
%TO.N,GND*%
X91580000Y-70270000D03*
%TD*%
D10*
%TO.P,J8,1*%
%TO.N,VDD*%
X91570000Y-50490000D03*
D11*
%TO.P,J8,2*%
%TO.N,GND*%
X91570000Y-45410000D03*
%TD*%
D10*
%TO.P,J9,1*%
%TO.N,VDD*%
X85230000Y-65190000D03*
D11*
%TO.P,J9,2*%
%TO.N,GND*%
X85230000Y-70270000D03*
%TD*%
D12*
%TO.P,J3,1*%
%TO.N,Net-(J3-Pad1)*%
X50860000Y-66420000D03*
D13*
%TO.P,J3,2*%
%TO.N,VDD*%
X48320000Y-66420000D03*
%TO.P,J3,3*%
%TO.N,GND*%
X45780000Y-66420000D03*
%TO.P,J3,4*%
X43240000Y-66420000D03*
%TO.P,J3,5*%
%TO.N,VBUS*%
X40700000Y-66420000D03*
%TD*%
D12*
%TO.P,J1,1*%
%TO.N,Net-(J1-Pad1)*%
X87030000Y-81270000D03*
D13*
%TO.P,J1,2*%
%TO.N,VBUS*%
X87030000Y-83810000D03*
%TO.P,J1,3*%
%TO.N,PI_SDA*%
X84490000Y-81270000D03*
%TO.P,J1,4*%
%TO.N,VBUS*%
X84490000Y-83810000D03*
%TO.P,J1,5*%
%TO.N,PI_SCL*%
X81950000Y-81270000D03*
%TO.P,J1,6*%
%TO.N,GND*%
X81950000Y-83810000D03*
%TO.P,J1,7*%
%TO.N,Net-(J1-Pad7)*%
X79410000Y-81270000D03*
%TO.P,J1,8*%
%TO.N,TX*%
X79410000Y-83810000D03*
%TO.P,J1,9*%
%TO.N,GND*%
X76870000Y-81270000D03*
%TO.P,J1,10*%
%TO.N,RX*%
X76870000Y-83810000D03*
%TO.P,J1,11*%
%TO.N,Net-(J1-Pad11)*%
X74330000Y-81270000D03*
%TO.P,J1,12*%
%TO.N,Net-(J1-Pad12)*%
X74330000Y-83810000D03*
%TO.P,J1,13*%
%TO.N,Net-(J1-Pad13)*%
X71790000Y-81270000D03*
%TO.P,J1,14*%
%TO.N,GND*%
X71790000Y-83810000D03*
%TO.P,J1,15*%
%TO.N,Net-(J1-Pad15)*%
X69250000Y-81270000D03*
%TO.P,J1,16*%
%TO.N,Net-(J1-Pad16)*%
X69250000Y-83810000D03*
%TO.P,J1,17*%
%TO.N,+3V3*%
X66710000Y-81270000D03*
%TO.P,J1,18*%
%TO.N,Net-(J1-Pad18)*%
X66710000Y-83810000D03*
%TO.P,J1,19*%
%TO.N,Net-(J1-Pad19)*%
X64170000Y-81270000D03*
%TO.P,J1,20*%
%TO.N,GND*%
X64170000Y-83810000D03*
%TO.P,J1,21*%
%TO.N,Net-(J1-Pad21)*%
X61630000Y-81270000D03*
%TO.P,J1,22*%
%TO.N,Net-(J1-Pad22)*%
X61630000Y-83810000D03*
%TO.P,J1,23*%
%TO.N,Net-(J1-Pad23)*%
X59090000Y-81270000D03*
%TO.P,J1,24*%
%TO.N,Net-(J1-Pad24)*%
X59090000Y-83810000D03*
%TO.P,J1,25*%
%TO.N,GND*%
X56550000Y-81270000D03*
%TO.P,J1,26*%
%TO.N,Net-(J1-Pad26)*%
X56550000Y-83810000D03*
%TO.P,J1,27*%
%TO.N,Net-(J1-Pad27)*%
X54010000Y-81270000D03*
%TO.P,J1,28*%
%TO.N,Net-(J1-Pad28)*%
X54010000Y-83810000D03*
%TO.P,J1,29*%
%TO.N,Net-(J1-Pad29)*%
X51470000Y-81270000D03*
%TO.P,J1,30*%
%TO.N,GND*%
X51470000Y-83810000D03*
%TO.P,J1,31*%
%TO.N,Net-(J1-Pad31)*%
X48930000Y-81270000D03*
%TO.P,J1,32*%
%TO.N,Net-(J1-Pad32)*%
X48930000Y-83810000D03*
%TO.P,J1,33*%
%TO.N,Net-(J1-Pad33)*%
X46390000Y-81270000D03*
%TO.P,J1,34*%
%TO.N,GND*%
X46390000Y-83810000D03*
%TO.P,J1,35*%
%TO.N,Net-(J1-Pad35)*%
X43850000Y-81270000D03*
%TO.P,J1,36*%
%TO.N,Net-(J1-Pad36)*%
X43850000Y-83810000D03*
%TO.P,J1,37*%
%TO.N,Net-(J1-Pad37)*%
X41310000Y-81270000D03*
%TO.P,J1,38*%
%TO.N,Net-(J1-Pad38)*%
X41310000Y-83810000D03*
%TO.P,J1,39*%
%TO.N,GND*%
X38770000Y-81270000D03*
%TO.P,J1,40*%
%TO.N,Net-(J1-Pad40)*%
X38770000Y-83810000D03*
%TD*%
D12*
%TO.P,J4,1*%
%TO.N,GND*%
X76750000Y-72660000D03*
D13*
%TO.P,J4,2*%
%TO.N,+5V*%
X76750000Y-75200000D03*
%TO.P,J4,3*%
%TO.N,ESC_PWM*%
X76750000Y-77740000D03*
%TD*%
D12*
%TO.P,J5,1*%
%TO.N,GND*%
X73140000Y-72660000D03*
D13*
%TO.P,J5,2*%
%TO.N,+5V*%
X73140000Y-75200000D03*
%TO.P,J5,3*%
%TO.N,SERVO1_PWM*%
X73140000Y-77740000D03*
%TD*%
%TO.P,J6,3*%
%TO.N,SERVO2_PWM*%
X69540000Y-77740000D03*
%TO.P,J6,2*%
%TO.N,+5V*%
X69540000Y-75200000D03*
D12*
%TO.P,J6,1*%
%TO.N,GND*%
X69540000Y-72660000D03*
%TD*%
%TO.P,J10,1*%
%TO.N,GND*%
X62340000Y-77710000D03*
D13*
%TO.P,J10,2*%
%TO.N,VBUS*%
X62340000Y-75170000D03*
%TO.P,J10,3*%
%TO.N,SCL*%
X62340000Y-72630000D03*
%TO.P,J10,4*%
%TO.N,SDA*%
X62340000Y-70090000D03*
%TD*%
%TO.P,J11,4*%
%TO.N,SDA*%
X65940000Y-70090000D03*
%TO.P,J11,3*%
%TO.N,SCL*%
X65940000Y-72630000D03*
%TO.P,J11,2*%
%TO.N,VBUS*%
X65940000Y-75170000D03*
D12*
%TO.P,J11,1*%
%TO.N,GND*%
X65940000Y-77710000D03*
%TD*%
%TO.P,J12,1*%
%TO.N,Net-(J12-Pad1)*%
X91900000Y-40900000D03*
D13*
%TO.P,J12,2*%
%TO.N,VBUS*%
X91900000Y-38360000D03*
%TD*%
%TO.P,J13,2*%
%TO.N,VDD*%
X93790000Y-75040000D03*
D12*
%TO.P,J13,1*%
%TO.N,Net-(J13-Pad1)*%
X93790000Y-77580000D03*
%TD*%
D14*
%TO.P,Q1,1*%
%TO.N,TX*%
X53030000Y-34210000D03*
D15*
%TO.P,Q1,3*%
%TO.N,Net-(Q1-Pad3)*%
X53030000Y-36750000D03*
%TO.P,Q1,2*%
%TO.N,+3V3*%
X53030000Y-35480000D03*
%TD*%
%TO.P,Q2,2*%
%TO.N,+3V3*%
X53030000Y-40940000D03*
%TO.P,Q2,3*%
%TO.N,Net-(Q2-Pad3)*%
X53030000Y-42210000D03*
D14*
%TO.P,Q2,1*%
%TO.N,RX*%
X53030000Y-39670000D03*
%TD*%
D15*
%TO.P,Q3,2*%
%TO.N,GPIO_LED*%
X82860000Y-39290000D03*
%TO.P,Q3,3*%
%TO.N,Net-(J12-Pad1)*%
X82860000Y-40560000D03*
D14*
%TO.P,Q3,1*%
%TO.N,GND*%
X82860000Y-38020000D03*
%TD*%
D16*
%TO.P,Q4,1*%
%TO.N,Net-(Q4-Pad1)*%
X84200000Y-76630000D03*
D17*
%TO.P,Q4,2*%
%TO.N,Net-(J13-Pad1)*%
X86740000Y-76630000D03*
%TO.P,Q4,3*%
%TO.N,GND*%
X89280000Y-76630000D03*
%TD*%
D18*
%TO.P,U1,1*%
%TO.N,Net-(U1-Pad1)*%
X42580000Y-46630000D03*
D19*
%TO.P,U1,2*%
%TO.N,Net-(U1-Pad2)*%
X45120000Y-46630000D03*
%TO.P,U1,3*%
%TO.N,Net-(Q2-Pad3)*%
X47660000Y-46630000D03*
%TO.P,U1,4*%
%TO.N,Net-(Q1-Pad3)*%
X50200000Y-46630000D03*
%TO.P,U1,5*%
%TO.N,Net-(U1-Pad30)*%
X52740000Y-46630000D03*
%TO.P,U1,6*%
%TO.N,GND*%
X55280000Y-46630000D03*
%TO.P,U1,7*%
%TO.N,SDA*%
X57820000Y-46630000D03*
%TO.P,U1,8*%
%TO.N,SCL*%
X60360000Y-46630000D03*
%TO.P,U1,9*%
%TO.N,Net-(U1-Pad9)*%
X62900000Y-46630000D03*
%TO.P,U1,10*%
%TO.N,Net-(U1-Pad10)*%
X65440000Y-46630000D03*
%TO.P,U1,11*%
%TO.N,Net-(U1-Pad11)*%
X67980000Y-46630000D03*
%TO.P,U1,12*%
%TO.N,Net-(U1-Pad12)*%
X70520000Y-46630000D03*
%TO.P,U1,13*%
%TO.N,Net-(U1-Pad13)*%
X73060000Y-46630000D03*
%TO.P,U1,14*%
%TO.N,SERVO1_PWM*%
X75600000Y-46630000D03*
%TO.P,U1,15*%
%TO.N,SERVO2_PWM*%
X78140000Y-46630000D03*
%TO.P,U1,16*%
%TO.N,ESC_PWM*%
X80680000Y-46630000D03*
%TO.P,U1,17*%
%TO.N,GPIO_ROCKET*%
X83220000Y-46630000D03*
%TO.P,U1,18*%
%TO.N,GPIO_LED*%
X83220000Y-31390000D03*
%TO.P,U1,19*%
%TO.N,Net-(U1-Pad19)*%
X80680000Y-31390000D03*
%TO.P,U1,20*%
%TO.N,Net-(U1-Pad20)*%
X78140000Y-31390000D03*
%TO.P,U1,21*%
%TO.N,Net-(U1-Pad21)*%
X75600000Y-31390000D03*
%TO.P,U1,22*%
%TO.N,Net-(U1-Pad22)*%
X73060000Y-31390000D03*
%TO.P,U1,23*%
%TO.N,Net-(U1-Pad23)*%
X70520000Y-31390000D03*
%TO.P,U1,24*%
%TO.N,Net-(U1-Pad24)*%
X67980000Y-31390000D03*
%TO.P,U1,25*%
%TO.N,Net-(U1-Pad25)*%
X65440000Y-31390000D03*
%TO.P,U1,26*%
%TO.N,Net-(U1-Pad26)*%
X62900000Y-31390000D03*
%TO.P,U1,27*%
%TO.N,N/C*%
X60360000Y-31390000D03*
%TO.P,U1,28*%
X57820000Y-31390000D03*
%TO.P,U1,29*%
%TO.N,VBUS*%
X55280000Y-31390000D03*
%TO.P,U1,30*%
%TO.N,Net-(U1-Pad30)*%
X52740000Y-31390000D03*
%TO.P,U1,31*%
%TO.N,GND*%
X50200000Y-31390000D03*
%TO.P,U1,32*%
%TO.N,Net-(U1-Pad32)*%
X47660000Y-31390000D03*
%TO.P,U1,33*%
%TO.N,Net-(U1-Pad33)*%
X45120000Y-31390000D03*
%TO.P,U1,34*%
%TO.N,Net-(U1-Pad34)*%
X42580000Y-31390000D03*
%TD*%
D20*
%TO.P,C1,1*%
%TO.N,VBUS*%
X36300000Y-67770000D03*
D21*
%TO.P,C1,2*%
%TO.N,GND*%
X34300000Y-67770000D03*
%TD*%
%TO.P,C2,2*%
%TO.N,GND*%
X34270000Y-39960000D03*
D20*
%TO.P,C2,1*%
%TO.N,VBUS*%
X36270000Y-39960000D03*
%TD*%
D22*
%TO.P,R1,2*%
%TO.N,TX*%
X60260000Y-42420000D03*
D21*
%TO.P,R1,1*%
%TO.N,+3V3*%
X60260000Y-34800000D03*
%TD*%
%TO.P,R2,1*%
%TO.N,+3V3*%
X57260000Y-34800000D03*
D22*
%TO.P,R2,2*%
%TO.N,RX*%
X57260000Y-42420000D03*
%TD*%
D21*
%TO.P,R3,1*%
%TO.N,VBUS*%
X66260000Y-34800000D03*
D22*
%TO.P,R3,2*%
%TO.N,Net-(Q1-Pad3)*%
X66260000Y-42420000D03*
%TD*%
%TO.P,R4,2*%
%TO.N,Net-(Q2-Pad3)*%
X63260000Y-42420000D03*
D21*
%TO.P,R4,1*%
%TO.N,VBUS*%
X63260000Y-34800000D03*
%TD*%
%TO.P,R5,1*%
%TO.N,GND*%
X70430000Y-37800000D03*
D22*
%TO.P,R5,2*%
%TO.N,GPIO_ROCKET*%
X78050000Y-37800000D03*
%TD*%
%TO.P,R6,2*%
%TO.N,GPIO_ROCKET*%
X78050000Y-40800000D03*
D21*
%TO.P,R6,1*%
%TO.N,Net-(Q4-Pad1)*%
X70430000Y-40800000D03*
%TD*%
D12*
%TO.P,J14,1*%
%TO.N,+3V3*%
X32680000Y-50340000D03*
D13*
%TO.P,J14,2*%
%TO.N,GND*%
X35220000Y-50340000D03*
%TO.P,J14,3*%
%TO.N,Net-(J14-Pad3)*%
X37760000Y-50340000D03*
%TO.P,J14,4*%
%TO.N,Net-(J14-Pad4)*%
X40300000Y-50340000D03*
%TO.P,J14,5*%
%TO.N,PI_SCL*%
X42840000Y-50340000D03*
%TO.P,J14,6*%
%TO.N,PI_SDA*%
X45380000Y-50340000D03*
%TO.P,J14,7*%
%TO.N,+3V3*%
X47920000Y-50340000D03*
%TO.P,J14,8*%
%TO.N,Net-(J14-Pad8)*%
X50460000Y-50340000D03*
%TO.P,J14,9*%
%TO.N,Net-(J14-Pad9)*%
X53000000Y-50340000D03*
%TO.P,J14,10*%
%TO.N,Net-(J14-Pad10)*%
X55540000Y-50340000D03*
%TD*%
D23*
%TO.N,VBUS*%
X51910000Y-70535040D03*
X43110000Y-70535040D03*
%TO.N,+3V3*%
X37125000Y-47930000D03*
%TO.N,PI_SDA*%
X45390000Y-55025050D03*
%TO.N,PI_SCL*%
X42850000Y-55025050D03*
%TO.N,TX*%
X58270000Y-73165000D03*
%TO.N,RX*%
X57370000Y-73165000D03*
%TO.N,ESC_PWM*%
X54268443Y-68531557D03*
%TO.N,SERVO1_PWM*%
X64120000Y-71060000D03*
X67255000Y-71350000D03*
%TO.N,SERVO2_PWM*%
X64030000Y-73180001D03*
%TO.N,Net-(Q4-Pad1)*%
X59190000Y-73165000D03*
X51844128Y-54660832D03*
%TD*%
D24*
%TO.N,VBUS*%
X55280000Y-31390000D02*
X53680000Y-32990000D01*
X53680000Y-32990000D02*
X39890000Y-32990000D01*
X36270000Y-36610000D02*
X36270000Y-39960000D01*
X39890000Y-32990000D02*
X36270000Y-36610000D01*
X89950000Y-38360000D02*
X91900000Y-38360000D01*
X84580000Y-32990000D02*
X89950000Y-38360000D01*
X61450000Y-32990000D02*
X63260000Y-34800000D01*
X60580000Y-32990000D02*
X61450000Y-32990000D01*
X53680000Y-32990000D02*
X60580000Y-32990000D01*
X64450000Y-32990000D02*
X66260000Y-34800000D01*
X62850000Y-32990000D02*
X64450000Y-32990000D01*
X60580000Y-32990000D02*
X62850000Y-32990000D01*
X62850000Y-32990000D02*
X84580000Y-32990000D01*
X36500000Y-40190000D02*
X36270000Y-39960000D01*
X36500000Y-51860000D02*
X36500000Y-40190000D01*
X40740061Y-56100061D02*
X36500000Y-51860000D01*
X49594078Y-56680488D02*
X49013651Y-56100061D01*
X49594078Y-60593872D02*
X49594078Y-56680488D01*
X49013651Y-56100061D02*
X40740061Y-56100061D01*
X47327980Y-62859970D02*
X49594078Y-60593872D01*
X40160030Y-62859970D02*
X47327980Y-62859970D01*
X36300000Y-66720000D02*
X40160030Y-62859970D01*
X36300000Y-67770000D02*
X36300000Y-66720000D01*
X51910000Y-70535040D02*
X43110000Y-70535040D01*
%TO.N,GND*%
X55374999Y-82445001D02*
X56550000Y-81270000D01*
X52834999Y-82445001D02*
X55374999Y-82445001D01*
X51470000Y-83810000D02*
X52834999Y-82445001D01*
X73154999Y-82445001D02*
X75694999Y-82445001D01*
X75694999Y-82445001D02*
X76870000Y-81270000D01*
X71790000Y-83810000D02*
X73154999Y-82445001D01*
%TO.N,+3V3*%
X60260000Y-34800000D02*
X57260000Y-34800000D01*
X53030000Y-35480000D02*
X54870000Y-35480000D01*
X55550000Y-34800000D02*
X57260000Y-34800000D01*
X54870000Y-35480000D02*
X55550000Y-34800000D01*
X52030000Y-40940000D02*
X50290059Y-42679941D01*
X53030000Y-40940000D02*
X52030000Y-40940000D01*
X50290059Y-42679941D02*
X43203649Y-42679941D01*
X42375059Y-42679941D02*
X37125000Y-47930000D01*
X43203649Y-42679941D02*
X42375059Y-42679941D01*
%TO.N,PI_SDA*%
X82710010Y-79490010D02*
X84490000Y-81270000D01*
X68290010Y-79490010D02*
X82710010Y-79490010D01*
X67830000Y-74730000D02*
X67830000Y-79030000D01*
X45390000Y-55025050D02*
X49662230Y-55025050D01*
X67830000Y-79030000D02*
X68290010Y-79490010D01*
X43170010Y-63759990D02*
X41960000Y-64970000D01*
X49662230Y-55025050D02*
X50494098Y-55856918D01*
X50494098Y-55856918D02*
X50494098Y-60966672D01*
X66905001Y-73805001D02*
X67830000Y-74730000D01*
X50494098Y-60966672D02*
X47700780Y-63759990D01*
X47700780Y-63759990D02*
X43170010Y-63759990D01*
X56692655Y-73790001D02*
X61760999Y-73790001D01*
X52362684Y-69460030D02*
X56692655Y-73790001D01*
X41960000Y-64970000D02*
X41960000Y-66879002D01*
X61760999Y-73790001D02*
X61775999Y-73805001D01*
X41960000Y-66879002D02*
X44541028Y-69460030D01*
X44541028Y-69460030D02*
X52362684Y-69460030D01*
X61775999Y-73805001D02*
X66905001Y-73805001D01*
%TO.N,PI_SCL*%
X80620020Y-79940020D02*
X81950000Y-81270000D01*
X69390020Y-79940020D02*
X80620020Y-79940020D01*
X67379990Y-79216400D02*
X68103609Y-79940019D01*
X67379990Y-76760010D02*
X67379990Y-79216400D01*
X66964981Y-76345001D02*
X67379990Y-76760010D01*
X61235001Y-76345001D02*
X66964981Y-76345001D01*
X50044088Y-56494088D02*
X50044088Y-60780272D01*
X43475001Y-55650051D02*
X49200051Y-55650051D01*
X50044088Y-60780272D02*
X47514380Y-63309980D01*
X42850000Y-55025050D02*
X43475001Y-55650051D01*
X39320000Y-68080000D02*
X41150040Y-69910040D01*
X49200051Y-55650051D02*
X50044088Y-56494088D01*
X47514380Y-63309980D02*
X40700020Y-63309980D01*
X41150040Y-69910040D02*
X52176284Y-69910040D01*
X39320000Y-64690000D02*
X39320000Y-68080000D01*
X52176284Y-69910040D02*
X56506255Y-74240011D01*
X68103609Y-79940019D02*
X69390020Y-79940020D01*
X40700020Y-63309980D02*
X39320000Y-64690000D01*
X56506255Y-74240011D02*
X59130011Y-74240011D01*
X59130011Y-74240011D02*
X61235001Y-76345001D01*
%TO.N,TX*%
X53030000Y-34210000D02*
X54620000Y-34210000D01*
X54620000Y-34210000D02*
X55389990Y-33440010D01*
X55389990Y-33440010D02*
X60860010Y-33440010D01*
X60860010Y-33440010D02*
X61670000Y-34250000D01*
X61670000Y-41010000D02*
X60260000Y-42420000D01*
X61670000Y-34250000D02*
X61670000Y-41010000D01*
X57558244Y-72453244D02*
X58270000Y-73165000D01*
X56628718Y-72453244D02*
X57558244Y-72453244D01*
X48250010Y-68560010D02*
X52735484Y-68560010D01*
X47030000Y-67340000D02*
X48250010Y-68560010D01*
X52735484Y-68560010D02*
X56628718Y-72453244D01*
X47030000Y-65703590D02*
X47030000Y-67340000D01*
X60260000Y-42420000D02*
X59100039Y-43579961D01*
X59100039Y-43579961D02*
X45810039Y-43579961D01*
X45810039Y-43579961D02*
X43890000Y-45500000D01*
X42980000Y-48630000D02*
X42360000Y-48630000D01*
X49860040Y-53950040D02*
X51394118Y-55484118D01*
X43890000Y-45500000D02*
X43890000Y-47720000D01*
X42360000Y-48630000D02*
X41580000Y-49410000D01*
X43890000Y-47720000D02*
X42980000Y-48630000D01*
X41580000Y-49410000D02*
X41580000Y-51180000D01*
X41580000Y-51180000D02*
X44350040Y-53950040D01*
X44350040Y-53950040D02*
X49860040Y-53950040D01*
X51394118Y-55484118D02*
X51394118Y-61339472D01*
X51394118Y-61339472D02*
X47030000Y-65703590D01*
%TO.N,RX*%
X54510000Y-39670000D02*
X57260000Y-42420000D01*
X53030000Y-39670000D02*
X54510000Y-39670000D01*
X56704064Y-73165000D02*
X57370000Y-73165000D01*
X52549084Y-69010020D02*
X56704064Y-73165000D01*
X46631018Y-69010020D02*
X52549084Y-69010020D01*
X44490000Y-66869002D02*
X46631018Y-69010020D01*
X44490000Y-65380000D02*
X44490000Y-66869002D01*
X57260000Y-42420000D02*
X56550049Y-43129951D01*
X56550049Y-43129951D02*
X43390049Y-43129951D01*
X43390049Y-43129951D02*
X41200000Y-45320000D01*
X41200000Y-45320000D02*
X41200000Y-47080000D01*
X41200000Y-47080000D02*
X39020000Y-49260000D01*
X41900050Y-54400050D02*
X49673640Y-54400050D01*
X39020000Y-51520000D02*
X41900050Y-54400050D01*
X50944108Y-55670518D02*
X50944108Y-61153072D01*
X45660000Y-64210000D02*
X44490000Y-65380000D01*
X49673640Y-54400050D02*
X50944108Y-55670518D01*
X50944108Y-61153072D02*
X47887180Y-64210000D01*
X39020000Y-49260000D02*
X39020000Y-51520000D01*
X47887180Y-64210000D02*
X45660000Y-64210000D01*
%TO.N,ESC_PWM*%
X48240029Y-44029971D02*
X78079971Y-44029971D01*
X44110000Y-49650000D02*
X46390000Y-47370000D01*
X78079971Y-44029971D02*
X80680000Y-46630000D01*
X46390000Y-47370000D02*
X46390000Y-45880000D01*
X44110000Y-52650000D02*
X44110000Y-49650000D01*
X44960030Y-53500030D02*
X44110000Y-52650000D01*
X51567210Y-53500030D02*
X44960030Y-53500030D01*
X52469960Y-54402780D02*
X51567210Y-53500030D01*
X46390000Y-45880000D02*
X48240029Y-44029971D01*
X52469960Y-66733074D02*
X52469960Y-54402780D01*
X52469960Y-66733074D02*
X54268443Y-68531557D01*
%TO.N,SERVO1_PWM*%
X71370000Y-75970000D02*
X73140000Y-77740000D01*
X75600000Y-46630000D02*
X73899991Y-44929991D01*
X73899991Y-44929991D02*
X54830009Y-44929991D01*
X54000000Y-47760000D02*
X53700020Y-48059980D01*
X49170000Y-49040000D02*
X49170000Y-51760000D01*
X54830009Y-44929991D02*
X54000000Y-45760000D01*
X53369980Y-66112800D02*
X55977200Y-68720020D01*
X54000000Y-45760000D02*
X54000000Y-47760000D01*
X51940010Y-52600010D02*
X53369980Y-54029980D01*
X71370000Y-74510000D02*
X71370000Y-75970000D01*
X53700020Y-48059980D02*
X50150020Y-48059980D01*
X55977200Y-68720020D02*
X63297200Y-68720020D01*
X50150020Y-48059980D02*
X49170000Y-49040000D01*
X53369980Y-54029980D02*
X53369980Y-66112800D01*
X70740000Y-73880000D02*
X71370000Y-74510000D01*
X49170000Y-51760000D02*
X50010010Y-52600010D01*
X50010010Y-52600010D02*
X51940010Y-52600010D01*
X63297200Y-68720020D02*
X63768590Y-69191410D01*
X64120000Y-69542820D02*
X64120000Y-71060000D01*
X63768590Y-69191410D02*
X64120000Y-69542820D01*
X67255000Y-72815000D02*
X68320000Y-73880000D01*
X67255000Y-71350000D02*
X67255000Y-72815000D01*
X68320000Y-73880000D02*
X70740000Y-73880000D01*
%TO.N,SERVO2_PWM*%
X78140000Y-46630000D02*
X75989981Y-44479981D01*
X51753610Y-53050020D02*
X52919970Y-54216380D01*
X63290000Y-71340000D02*
X63844980Y-71894980D01*
X75989981Y-44479981D02*
X50130019Y-44479981D01*
X50130019Y-44479981D02*
X48930000Y-45680000D01*
X48930000Y-45680000D02*
X48930000Y-47340000D01*
X48930000Y-47340000D02*
X46650000Y-49620000D01*
X46650000Y-49620000D02*
X46650000Y-51980000D01*
X61160000Y-71340000D02*
X63290000Y-71340000D01*
X46650000Y-51980000D02*
X47720020Y-53050020D01*
X58990030Y-69170030D02*
X61160000Y-71340000D01*
X47720020Y-53050020D02*
X51753610Y-53050020D01*
X52919970Y-54216380D02*
X52919970Y-66299200D01*
X52919970Y-66299200D02*
X55790800Y-69170030D01*
X55790800Y-69170030D02*
X58990030Y-69170030D01*
X63844980Y-71894980D02*
X64030000Y-72080000D01*
X64030000Y-72080000D02*
X64030000Y-73180001D01*
%TO.N,SCL*%
X64745000Y-71435000D02*
X65940000Y-72630000D01*
X64745000Y-69531410D02*
X64745000Y-71435000D01*
X63483600Y-68270010D02*
X64745000Y-69531410D01*
X60360000Y-46630000D02*
X60260000Y-46630000D01*
X60260000Y-46630000D02*
X59010000Y-45380000D01*
X53819989Y-53843579D02*
X53819990Y-65926400D01*
X59010000Y-45380000D02*
X57190000Y-45380000D01*
X57190000Y-45380000D02*
X56570000Y-46000000D01*
X51730000Y-51753590D02*
X53819989Y-53843579D01*
X56163600Y-68270010D02*
X63483600Y-68270010D01*
X56570000Y-46000000D02*
X56570000Y-47243590D01*
X51730000Y-49140000D02*
X51730000Y-51753590D01*
X56570000Y-47243590D02*
X55303600Y-48509990D01*
X52360010Y-48509990D02*
X51730000Y-49140000D01*
X55303600Y-48509990D02*
X52360010Y-48509990D01*
X53819990Y-65926400D02*
X56163600Y-68270010D01*
%TO.N,SDA*%
X54880000Y-48960000D02*
X55490000Y-48960000D01*
X55490000Y-48960000D02*
X57820000Y-46630000D01*
X54270000Y-49570000D02*
X54880000Y-48960000D01*
X54270000Y-65740000D02*
X54270000Y-49570000D01*
X56350000Y-67820000D02*
X54270000Y-65740000D01*
X63670000Y-67820000D02*
X56350000Y-67820000D01*
X65940000Y-70090000D02*
X63670000Y-67820000D01*
%TO.N,Net-(J12-Pad1)*%
X91560000Y-40560000D02*
X91900000Y-40900000D01*
X82860000Y-40560000D02*
X91560000Y-40560000D01*
%TO.N,Net-(Q4-Pad1)*%
X59190000Y-72740736D02*
X59190000Y-73165000D01*
X52921884Y-68110000D02*
X56815119Y-72003235D01*
X58452500Y-72003236D02*
X59190000Y-72740736D01*
X56815119Y-72003235D02*
X58452500Y-72003236D01*
X50040000Y-68110000D02*
X52921884Y-68110000D01*
X49580000Y-67650000D02*
X50040000Y-68110000D01*
X49580000Y-63790000D02*
X49580000Y-67650000D01*
X51844128Y-61525872D02*
X49580000Y-63790000D01*
X51844128Y-54660832D02*
X51844128Y-61525872D01*
%TO.N,GPIO_ROCKET*%
X78050000Y-41460000D02*
X78050000Y-40800000D01*
X83220000Y-46630000D02*
X78050000Y-41460000D01*
X78050000Y-37800000D02*
X78050000Y-40800000D01*
%TD*%
D25*
%TO.N,VDD*%
X94723000Y-52006888D02*
X94713663Y-52102109D01*
X94695628Y-52161845D01*
X94666327Y-52216952D01*
X94626888Y-52265310D01*
X94578805Y-52305087D01*
X94523912Y-52334768D01*
X94464292Y-52353223D01*
X94371272Y-52363000D01*
X62366748Y-52363000D01*
X62337774Y-52365854D01*
X62331658Y-52365811D01*
X62322251Y-52366733D01*
X62128154Y-52387134D01*
X62068064Y-52399469D01*
X62007777Y-52410969D01*
X61998728Y-52413701D01*
X61812290Y-52471413D01*
X61755692Y-52495205D01*
X61698833Y-52518177D01*
X61690487Y-52522614D01*
X61518811Y-52615439D01*
X61467911Y-52649772D01*
X61416595Y-52683352D01*
X61409279Y-52689318D01*
X61409271Y-52689324D01*
X61409264Y-52689331D01*
X61258892Y-52813729D01*
X61215636Y-52857288D01*
X61171817Y-52900199D01*
X61165797Y-52907476D01*
X61165790Y-52907483D01*
X61165785Y-52907491D01*
X61042442Y-53058724D01*
X61008502Y-53109808D01*
X60973819Y-53160461D01*
X60969323Y-53168776D01*
X60877698Y-53341098D01*
X60854305Y-53397854D01*
X60830144Y-53454226D01*
X60827352Y-53463246D01*
X60827348Y-53463256D01*
X60827346Y-53463266D01*
X60770940Y-53650092D01*
X60759024Y-53710270D01*
X60746264Y-53770302D01*
X60745276Y-53779702D01*
X60726231Y-53973936D01*
X60726231Y-53973952D01*
X60723001Y-54006748D01*
X60723000Y-62073251D01*
X60725853Y-62102216D01*
X60725810Y-62108342D01*
X60726733Y-62117749D01*
X60747134Y-62311846D01*
X60759468Y-62371930D01*
X60770969Y-62432223D01*
X60773701Y-62441272D01*
X60831413Y-62627710D01*
X60855205Y-62684308D01*
X60878177Y-62741167D01*
X60882612Y-62749508D01*
X60882614Y-62749513D01*
X60882615Y-62749514D01*
X60975439Y-62921189D01*
X61009758Y-62972070D01*
X61043351Y-63023405D01*
X61049325Y-63030730D01*
X61173729Y-63181108D01*
X61217272Y-63224347D01*
X61260199Y-63268183D01*
X61267482Y-63274208D01*
X61418724Y-63397558D01*
X61469826Y-63431510D01*
X61520462Y-63466181D01*
X61528776Y-63470677D01*
X61701099Y-63562302D01*
X61757829Y-63585685D01*
X61814226Y-63609856D01*
X61823250Y-63612649D01*
X61823257Y-63612652D01*
X61823264Y-63612653D01*
X62010092Y-63669060D01*
X62070287Y-63680980D01*
X62130301Y-63693736D01*
X62139693Y-63694723D01*
X62139703Y-63694725D01*
X62139712Y-63694725D01*
X62333935Y-63713769D01*
X62333942Y-63713769D01*
X62366748Y-63717000D01*
X94366888Y-63717000D01*
X94462110Y-63726337D01*
X94521846Y-63744372D01*
X94576951Y-63773672D01*
X94625308Y-63813111D01*
X94665088Y-63861197D01*
X94694767Y-63916088D01*
X94713223Y-63975708D01*
X94723001Y-64068737D01*
X94723001Y-66963000D01*
X57507000Y-66963000D01*
X57507000Y-49117000D01*
X94723000Y-49117000D01*
X94723000Y-52006888D01*
%TA.AperFunction,Conductor*%
D26*
G36*
X94723000Y-52006888D02*
G01*
X94713663Y-52102109D01*
X94695628Y-52161845D01*
X94666327Y-52216952D01*
X94626888Y-52265310D01*
X94578805Y-52305087D01*
X94523912Y-52334768D01*
X94464292Y-52353223D01*
X94371272Y-52363000D01*
X62366748Y-52363000D01*
X62337774Y-52365854D01*
X62331658Y-52365811D01*
X62322251Y-52366733D01*
X62128154Y-52387134D01*
X62068064Y-52399469D01*
X62007777Y-52410969D01*
X61998728Y-52413701D01*
X61812290Y-52471413D01*
X61755692Y-52495205D01*
X61698833Y-52518177D01*
X61690487Y-52522614D01*
X61518811Y-52615439D01*
X61467911Y-52649772D01*
X61416595Y-52683352D01*
X61409279Y-52689318D01*
X61409271Y-52689324D01*
X61409264Y-52689331D01*
X61258892Y-52813729D01*
X61215636Y-52857288D01*
X61171817Y-52900199D01*
X61165797Y-52907476D01*
X61165790Y-52907483D01*
X61165785Y-52907491D01*
X61042442Y-53058724D01*
X61008502Y-53109808D01*
X60973819Y-53160461D01*
X60969323Y-53168776D01*
X60877698Y-53341098D01*
X60854305Y-53397854D01*
X60830144Y-53454226D01*
X60827352Y-53463246D01*
X60827348Y-53463256D01*
X60827346Y-53463266D01*
X60770940Y-53650092D01*
X60759024Y-53710270D01*
X60746264Y-53770302D01*
X60745276Y-53779702D01*
X60726231Y-53973936D01*
X60726231Y-53973952D01*
X60723001Y-54006748D01*
X60723000Y-62073251D01*
X60725853Y-62102216D01*
X60725810Y-62108342D01*
X60726733Y-62117749D01*
X60747134Y-62311846D01*
X60759468Y-62371930D01*
X60770969Y-62432223D01*
X60773701Y-62441272D01*
X60831413Y-62627710D01*
X60855205Y-62684308D01*
X60878177Y-62741167D01*
X60882612Y-62749508D01*
X60882614Y-62749513D01*
X60882615Y-62749514D01*
X60975439Y-62921189D01*
X61009758Y-62972070D01*
X61043351Y-63023405D01*
X61049325Y-63030730D01*
X61173729Y-63181108D01*
X61217272Y-63224347D01*
X61260199Y-63268183D01*
X61267482Y-63274208D01*
X61418724Y-63397558D01*
X61469826Y-63431510D01*
X61520462Y-63466181D01*
X61528776Y-63470677D01*
X61701099Y-63562302D01*
X61757829Y-63585685D01*
X61814226Y-63609856D01*
X61823250Y-63612649D01*
X61823257Y-63612652D01*
X61823264Y-63612653D01*
X62010092Y-63669060D01*
X62070287Y-63680980D01*
X62130301Y-63693736D01*
X62139693Y-63694723D01*
X62139703Y-63694725D01*
X62139712Y-63694725D01*
X62333935Y-63713769D01*
X62333942Y-63713769D01*
X62366748Y-63717000D01*
X94366888Y-63717000D01*
X94462110Y-63726337D01*
X94521846Y-63744372D01*
X94576951Y-63773672D01*
X94625308Y-63813111D01*
X94665088Y-63861197D01*
X94694767Y-63916088D01*
X94713223Y-63975708D01*
X94723001Y-64068737D01*
X94723001Y-66963000D01*
X57507000Y-66963000D01*
X57507000Y-49117000D01*
X94723000Y-49117000D01*
X94723000Y-52006888D01*
G37*
%TD.AperFunction*%
%TD*%
D25*
%TO.N,GND*%
X31393425Y-35597093D02*
X31842907Y-36046575D01*
X32371442Y-36399730D01*
X32958719Y-36642988D01*
X33582168Y-36767000D01*
X34217832Y-36767000D01*
X34841281Y-36642988D01*
X35428558Y-36399730D01*
X35585906Y-36294594D01*
X35571882Y-36320831D01*
X35528881Y-36462583D01*
X35520325Y-36549459D01*
X35514362Y-36610000D01*
X35518000Y-36646936D01*
X35518001Y-38529967D01*
X35470000Y-38529967D01*
X35347087Y-38542073D01*
X35228897Y-38577925D01*
X35119972Y-38636147D01*
X35024499Y-38714499D01*
X34946147Y-38809972D01*
X34887925Y-38918897D01*
X34852073Y-39037087D01*
X34839967Y-39160000D01*
X34839967Y-40760000D01*
X34852073Y-40882913D01*
X34887925Y-41001103D01*
X34946147Y-41110028D01*
X35024499Y-41205501D01*
X35119972Y-41283853D01*
X35228897Y-41342075D01*
X35347087Y-41377927D01*
X35470000Y-41390033D01*
X35748001Y-41390033D01*
X35748000Y-51823064D01*
X35744362Y-51860000D01*
X35748000Y-51896935D01*
X35748000Y-51896937D01*
X35758881Y-52007417D01*
X35795284Y-52127418D01*
X35801882Y-52149169D01*
X35871710Y-52279810D01*
X35897176Y-52310840D01*
X35965683Y-52394317D01*
X35994379Y-52417867D01*
X40182197Y-56605686D01*
X40205744Y-56634378D01*
X40320251Y-56728351D01*
X40450891Y-56798179D01*
X40592643Y-56841180D01*
X40703123Y-56852061D01*
X40703125Y-56852061D01*
X40740061Y-56855699D01*
X40776996Y-56852061D01*
X48702163Y-56852061D01*
X48842079Y-56991978D01*
X48842078Y-60282384D01*
X47016492Y-62107970D01*
X40196965Y-62107970D01*
X40160030Y-62104332D01*
X40123094Y-62107970D01*
X40123092Y-62107970D01*
X40012612Y-62118851D01*
X39870860Y-62161852D01*
X39740220Y-62231680D01*
X39625713Y-62325653D01*
X39602167Y-62354344D01*
X35794375Y-66162137D01*
X35765684Y-66185683D01*
X35742138Y-66214374D01*
X35742137Y-66214375D01*
X35671710Y-66300190D01*
X35650449Y-66339967D01*
X35500000Y-66339967D01*
X35377087Y-66352073D01*
X35258897Y-66387925D01*
X35149972Y-66446147D01*
X35054499Y-66524499D01*
X34976147Y-66619972D01*
X34917925Y-66728897D01*
X34882073Y-66847087D01*
X34869967Y-66970000D01*
X34869967Y-68570000D01*
X34882073Y-68692913D01*
X34917925Y-68811103D01*
X34976147Y-68920028D01*
X35054499Y-69015501D01*
X35149972Y-69093853D01*
X35258897Y-69152075D01*
X35377087Y-69187927D01*
X35500000Y-69200033D01*
X37100000Y-69200033D01*
X37222913Y-69187927D01*
X37341103Y-69152075D01*
X37450028Y-69093853D01*
X37545501Y-69015501D01*
X37623853Y-68920028D01*
X37682075Y-68811103D01*
X37717927Y-68692913D01*
X37730033Y-68570000D01*
X37730033Y-66970000D01*
X37717927Y-66847087D01*
X37682075Y-66728897D01*
X37623853Y-66619972D01*
X37551581Y-66531907D01*
X38568000Y-65515488D01*
X38568001Y-68043055D01*
X38564362Y-68080000D01*
X38578882Y-68227417D01*
X38621882Y-68369169D01*
X38691710Y-68499810D01*
X38751450Y-68572603D01*
X38785684Y-68614317D01*
X38814375Y-68637863D01*
X40592176Y-70415665D01*
X40615723Y-70444357D01*
X40644414Y-70467903D01*
X40730229Y-70538330D01*
X40800057Y-70575653D01*
X40860870Y-70608158D01*
X41002622Y-70651159D01*
X41113102Y-70662040D01*
X41113104Y-70662040D01*
X41150039Y-70665678D01*
X41186975Y-70662040D01*
X42190101Y-70662040D01*
X42218624Y-70805436D01*
X42288504Y-70974139D01*
X42389952Y-71125968D01*
X42519072Y-71255088D01*
X42670901Y-71356536D01*
X42839604Y-71426416D01*
X43018699Y-71462040D01*
X43201301Y-71462040D01*
X43380396Y-71426416D01*
X43549099Y-71356536D01*
X43653108Y-71287040D01*
X51366892Y-71287040D01*
X51470901Y-71356536D01*
X51639604Y-71426416D01*
X51818699Y-71462040D01*
X52001301Y-71462040D01*
X52180396Y-71426416D01*
X52349099Y-71356536D01*
X52475101Y-71272345D01*
X55948388Y-74745632D01*
X55971938Y-74774328D01*
X56086445Y-74868301D01*
X56217085Y-74938129D01*
X56358837Y-74981130D01*
X56469317Y-74992011D01*
X56469319Y-74992011D01*
X56506255Y-74995649D01*
X56543190Y-74992011D01*
X58818523Y-74992011D01*
X60677137Y-76850626D01*
X60700684Y-76879318D01*
X60729375Y-76902864D01*
X60815190Y-76973291D01*
X60841093Y-76987136D01*
X60945831Y-77043119D01*
X61087583Y-77086120D01*
X61198063Y-77097001D01*
X61198065Y-77097001D01*
X61235000Y-77100639D01*
X61271936Y-77097001D01*
X66627990Y-77097001D01*
X66627991Y-79179455D01*
X66624352Y-79216400D01*
X66638872Y-79363817D01*
X66681872Y-79505569D01*
X66751700Y-79636210D01*
X66822127Y-79722025D01*
X66845674Y-79750717D01*
X66874365Y-79774263D01*
X66902445Y-79802344D01*
X66855472Y-79793000D01*
X66564528Y-79793000D01*
X66279175Y-79849760D01*
X66010378Y-79961099D01*
X65768467Y-80122739D01*
X65562739Y-80328467D01*
X65440000Y-80512159D01*
X65317261Y-80328467D01*
X65111533Y-80122739D01*
X64869622Y-79961099D01*
X64600825Y-79849760D01*
X64315472Y-79793000D01*
X64024528Y-79793000D01*
X63739175Y-79849760D01*
X63470378Y-79961099D01*
X63228467Y-80122739D01*
X63022739Y-80328467D01*
X62900000Y-80512159D01*
X62777261Y-80328467D01*
X62571533Y-80122739D01*
X62329622Y-79961099D01*
X62060825Y-79849760D01*
X61775472Y-79793000D01*
X61484528Y-79793000D01*
X61199175Y-79849760D01*
X60930378Y-79961099D01*
X60688467Y-80122739D01*
X60482739Y-80328467D01*
X60360000Y-80512159D01*
X60237261Y-80328467D01*
X60031533Y-80122739D01*
X59789622Y-79961099D01*
X59520825Y-79849760D01*
X59235472Y-79793000D01*
X58944528Y-79793000D01*
X58659175Y-79849760D01*
X58390378Y-79961099D01*
X58148467Y-80122739D01*
X57942739Y-80328467D01*
X57781099Y-80570378D01*
X57669760Y-80839175D01*
X57613000Y-81124528D01*
X57613000Y-81415472D01*
X57669760Y-81700825D01*
X57781099Y-81969622D01*
X57942739Y-82211533D01*
X58148467Y-82417261D01*
X58332159Y-82540000D01*
X58148467Y-82662739D01*
X57942739Y-82868467D01*
X57820000Y-83052159D01*
X57697261Y-82868467D01*
X57491533Y-82662739D01*
X57249622Y-82501099D01*
X56980825Y-82389760D01*
X56695472Y-82333000D01*
X56404528Y-82333000D01*
X56119175Y-82389760D01*
X55850378Y-82501099D01*
X55608467Y-82662739D01*
X55402739Y-82868467D01*
X55280000Y-83052159D01*
X55157261Y-82868467D01*
X54951533Y-82662739D01*
X54767841Y-82540000D01*
X54951533Y-82417261D01*
X55157261Y-82211533D01*
X55318901Y-81969622D01*
X55430240Y-81700825D01*
X55487000Y-81415472D01*
X55487000Y-81124528D01*
X55430240Y-80839175D01*
X55318901Y-80570378D01*
X55157261Y-80328467D01*
X54951533Y-80122739D01*
X54709622Y-79961099D01*
X54440825Y-79849760D01*
X54155472Y-79793000D01*
X53864528Y-79793000D01*
X53579175Y-79849760D01*
X53310378Y-79961099D01*
X53068467Y-80122739D01*
X52862739Y-80328467D01*
X52740000Y-80512159D01*
X52617261Y-80328467D01*
X52411533Y-80122739D01*
X52169622Y-79961099D01*
X51900825Y-79849760D01*
X51615472Y-79793000D01*
X51324528Y-79793000D01*
X51039175Y-79849760D01*
X50770378Y-79961099D01*
X50528467Y-80122739D01*
X50322739Y-80328467D01*
X50200000Y-80512159D01*
X50077261Y-80328467D01*
X49871533Y-80122739D01*
X49629622Y-79961099D01*
X49360825Y-79849760D01*
X49075472Y-79793000D01*
X48784528Y-79793000D01*
X48499175Y-79849760D01*
X48230378Y-79961099D01*
X47988467Y-80122739D01*
X47782739Y-80328467D01*
X47660000Y-80512159D01*
X47537261Y-80328467D01*
X47331533Y-80122739D01*
X47089622Y-79961099D01*
X46820825Y-79849760D01*
X46535472Y-79793000D01*
X46244528Y-79793000D01*
X45959175Y-79849760D01*
X45690378Y-79961099D01*
X45448467Y-80122739D01*
X45242739Y-80328467D01*
X45120000Y-80512159D01*
X44997261Y-80328467D01*
X44791533Y-80122739D01*
X44549622Y-79961099D01*
X44280825Y-79849760D01*
X43995472Y-79793000D01*
X43704528Y-79793000D01*
X43419175Y-79849760D01*
X43150378Y-79961099D01*
X42908467Y-80122739D01*
X42702739Y-80328467D01*
X42580000Y-80512159D01*
X42457261Y-80328467D01*
X42251533Y-80122739D01*
X42009622Y-79961099D01*
X41740825Y-79849760D01*
X41455472Y-79793000D01*
X41164528Y-79793000D01*
X40879175Y-79849760D01*
X40610378Y-79961099D01*
X40368467Y-80122739D01*
X40162739Y-80328467D01*
X40001099Y-80570378D01*
X39889760Y-80839175D01*
X39833000Y-81124528D01*
X39833000Y-81415472D01*
X39889760Y-81700825D01*
X40001099Y-81969622D01*
X40162739Y-82211533D01*
X40368467Y-82417261D01*
X40552159Y-82540000D01*
X40368467Y-82662739D01*
X40162739Y-82868467D01*
X40040000Y-83052159D01*
X39917261Y-82868467D01*
X39711533Y-82662739D01*
X39469622Y-82501099D01*
X39200825Y-82389760D01*
X38915472Y-82333000D01*
X38624528Y-82333000D01*
X38339175Y-82389760D01*
X38070378Y-82501099D01*
X37828467Y-82662739D01*
X37622739Y-82868467D01*
X37461099Y-83110378D01*
X37349760Y-83379175D01*
X37293000Y-83664528D01*
X37293000Y-83955472D01*
X37349760Y-84240825D01*
X37461099Y-84509622D01*
X37622739Y-84751533D01*
X37828467Y-84957261D01*
X38070378Y-85118901D01*
X38339175Y-85230240D01*
X38624528Y-85287000D01*
X38915472Y-85287000D01*
X39200825Y-85230240D01*
X39469622Y-85118901D01*
X39711533Y-84957261D01*
X39917261Y-84751533D01*
X40040000Y-84567841D01*
X40162739Y-84751533D01*
X40368467Y-84957261D01*
X40610378Y-85118901D01*
X40879175Y-85230240D01*
X41164528Y-85287000D01*
X41455472Y-85287000D01*
X41740825Y-85230240D01*
X42009622Y-85118901D01*
X42251533Y-84957261D01*
X42457261Y-84751533D01*
X42580000Y-84567841D01*
X42702739Y-84751533D01*
X42908467Y-84957261D01*
X43150378Y-85118901D01*
X43419175Y-85230240D01*
X43704528Y-85287000D01*
X43995472Y-85287000D01*
X44280825Y-85230240D01*
X44549622Y-85118901D01*
X44791533Y-84957261D01*
X44997261Y-84751533D01*
X45158901Y-84509622D01*
X45270240Y-84240825D01*
X45327000Y-83955472D01*
X45327000Y-83664528D01*
X45270240Y-83379175D01*
X45158901Y-83110378D01*
X44997261Y-82868467D01*
X44791533Y-82662739D01*
X44607841Y-82540000D01*
X44791533Y-82417261D01*
X44997261Y-82211533D01*
X45120000Y-82027841D01*
X45242739Y-82211533D01*
X45448467Y-82417261D01*
X45690378Y-82578901D01*
X45959175Y-82690240D01*
X46244528Y-82747000D01*
X46535472Y-82747000D01*
X46820825Y-82690240D01*
X47089622Y-82578901D01*
X47331533Y-82417261D01*
X47537261Y-82211533D01*
X47660000Y-82027841D01*
X47782739Y-82211533D01*
X47988467Y-82417261D01*
X48172159Y-82540000D01*
X47988467Y-82662739D01*
X47782739Y-82868467D01*
X47621099Y-83110378D01*
X47509760Y-83379175D01*
X47453000Y-83664528D01*
X47453000Y-83955472D01*
X47509760Y-84240825D01*
X47621099Y-84509622D01*
X47782739Y-84751533D01*
X47988467Y-84957261D01*
X48230378Y-85118901D01*
X48499175Y-85230240D01*
X48784528Y-85287000D01*
X49075472Y-85287000D01*
X49360825Y-85230240D01*
X49629622Y-85118901D01*
X49871533Y-84957261D01*
X50077261Y-84751533D01*
X50238901Y-84509622D01*
X50350240Y-84240825D01*
X50407000Y-83955472D01*
X50407000Y-83664528D01*
X50350240Y-83379175D01*
X50238901Y-83110378D01*
X50077261Y-82868467D01*
X49871533Y-82662739D01*
X49687841Y-82540000D01*
X49871533Y-82417261D01*
X50077261Y-82211533D01*
X50200000Y-82027841D01*
X50322739Y-82211533D01*
X50528467Y-82417261D01*
X50770378Y-82578901D01*
X51039175Y-82690240D01*
X51324528Y-82747000D01*
X51615472Y-82747000D01*
X51900825Y-82690240D01*
X52169622Y-82578901D01*
X52411533Y-82417261D01*
X52617261Y-82211533D01*
X52740000Y-82027841D01*
X52862739Y-82211533D01*
X53068467Y-82417261D01*
X53252159Y-82540000D01*
X53068467Y-82662739D01*
X52862739Y-82868467D01*
X52701099Y-83110378D01*
X52589760Y-83379175D01*
X52533000Y-83664528D01*
X52533000Y-83955472D01*
X52589760Y-84240825D01*
X52701099Y-84509622D01*
X52862739Y-84751533D01*
X53068467Y-84957261D01*
X53310378Y-85118901D01*
X53579175Y-85230240D01*
X53864528Y-85287000D01*
X54155472Y-85287000D01*
X54440825Y-85230240D01*
X54709622Y-85118901D01*
X54951533Y-84957261D01*
X55157261Y-84751533D01*
X55280000Y-84567841D01*
X55402739Y-84751533D01*
X55608467Y-84957261D01*
X55850378Y-85118901D01*
X56119175Y-85230240D01*
X56404528Y-85287000D01*
X56695472Y-85287000D01*
X56980825Y-85230240D01*
X57249622Y-85118901D01*
X57491533Y-84957261D01*
X57697261Y-84751533D01*
X57820000Y-84567841D01*
X57942739Y-84751533D01*
X58148467Y-84957261D01*
X58390378Y-85118901D01*
X58659175Y-85230240D01*
X58944528Y-85287000D01*
X59235472Y-85287000D01*
X59520825Y-85230240D01*
X59789622Y-85118901D01*
X60031533Y-84957261D01*
X60237261Y-84751533D01*
X60360000Y-84567841D01*
X60482739Y-84751533D01*
X60688467Y-84957261D01*
X60930378Y-85118901D01*
X61199175Y-85230240D01*
X61484528Y-85287000D01*
X61775472Y-85287000D01*
X62060825Y-85230240D01*
X62329622Y-85118901D01*
X62571533Y-84957261D01*
X62777261Y-84751533D01*
X62938901Y-84509622D01*
X63050240Y-84240825D01*
X63107000Y-83955472D01*
X63107000Y-83664528D01*
X63050240Y-83379175D01*
X62938901Y-83110378D01*
X62777261Y-82868467D01*
X62571533Y-82662739D01*
X62387841Y-82540000D01*
X62571533Y-82417261D01*
X62777261Y-82211533D01*
X62900000Y-82027841D01*
X63022739Y-82211533D01*
X63228467Y-82417261D01*
X63470378Y-82578901D01*
X63739175Y-82690240D01*
X64024528Y-82747000D01*
X64315472Y-82747000D01*
X64600825Y-82690240D01*
X64869622Y-82578901D01*
X65111533Y-82417261D01*
X65317261Y-82211533D01*
X65440000Y-82027841D01*
X65562739Y-82211533D01*
X65768467Y-82417261D01*
X65952159Y-82540000D01*
X65768467Y-82662739D01*
X65562739Y-82868467D01*
X65401099Y-83110378D01*
X65289760Y-83379175D01*
X65233000Y-83664528D01*
X65233000Y-83955472D01*
X65289760Y-84240825D01*
X65401099Y-84509622D01*
X65562739Y-84751533D01*
X65768467Y-84957261D01*
X66010378Y-85118901D01*
X66279175Y-85230240D01*
X66564528Y-85287000D01*
X66855472Y-85287000D01*
X67140825Y-85230240D01*
X67409622Y-85118901D01*
X67651533Y-84957261D01*
X67857261Y-84751533D01*
X67980000Y-84567841D01*
X68102739Y-84751533D01*
X68308467Y-84957261D01*
X68550378Y-85118901D01*
X68819175Y-85230240D01*
X69104528Y-85287000D01*
X69395472Y-85287000D01*
X69680825Y-85230240D01*
X69949622Y-85118901D01*
X70191533Y-84957261D01*
X70397261Y-84751533D01*
X70558901Y-84509622D01*
X70670240Y-84240825D01*
X70727000Y-83955472D01*
X70727000Y-83664528D01*
X70670240Y-83379175D01*
X70558901Y-83110378D01*
X70397261Y-82868467D01*
X70191533Y-82662739D01*
X70007841Y-82540000D01*
X70191533Y-82417261D01*
X70397261Y-82211533D01*
X70520000Y-82027841D01*
X70642739Y-82211533D01*
X70848467Y-82417261D01*
X71090378Y-82578901D01*
X71359175Y-82690240D01*
X71644528Y-82747000D01*
X71935472Y-82747000D01*
X72220825Y-82690240D01*
X72489622Y-82578901D01*
X72731533Y-82417261D01*
X72937261Y-82211533D01*
X73060000Y-82027841D01*
X73182739Y-82211533D01*
X73388467Y-82417261D01*
X73572159Y-82540000D01*
X73388467Y-82662739D01*
X73182739Y-82868467D01*
X73021099Y-83110378D01*
X72909760Y-83379175D01*
X72853000Y-83664528D01*
X72853000Y-83955472D01*
X72909760Y-84240825D01*
X73021099Y-84509622D01*
X73182739Y-84751533D01*
X73388467Y-84957261D01*
X73630378Y-85118901D01*
X73899175Y-85230240D01*
X74184528Y-85287000D01*
X74475472Y-85287000D01*
X74760825Y-85230240D01*
X75029622Y-85118901D01*
X75271533Y-84957261D01*
X75477261Y-84751533D01*
X75600000Y-84567841D01*
X75722739Y-84751533D01*
X75928467Y-84957261D01*
X76170378Y-85118901D01*
X76439175Y-85230240D01*
X76724528Y-85287000D01*
X77015472Y-85287000D01*
X77300825Y-85230240D01*
X77569622Y-85118901D01*
X77811533Y-84957261D01*
X78017261Y-84751533D01*
X78140000Y-84567841D01*
X78262739Y-84751533D01*
X78468467Y-84957261D01*
X78710378Y-85118901D01*
X78979175Y-85230240D01*
X79264528Y-85287000D01*
X79555472Y-85287000D01*
X79840825Y-85230240D01*
X80109622Y-85118901D01*
X80351533Y-84957261D01*
X80557261Y-84751533D01*
X80718901Y-84509622D01*
X80830240Y-84240825D01*
X80887000Y-83955472D01*
X80887000Y-83664528D01*
X80830240Y-83379175D01*
X80718901Y-83110378D01*
X80557261Y-82868467D01*
X80351533Y-82662739D01*
X80167841Y-82540000D01*
X80351533Y-82417261D01*
X80557261Y-82211533D01*
X80680000Y-82027841D01*
X80802739Y-82211533D01*
X81008467Y-82417261D01*
X81250378Y-82578901D01*
X81519175Y-82690240D01*
X81804528Y-82747000D01*
X82095472Y-82747000D01*
X82380825Y-82690240D01*
X82649622Y-82578901D01*
X82891533Y-82417261D01*
X83097261Y-82211533D01*
X83220000Y-82027841D01*
X83342739Y-82211533D01*
X83548467Y-82417261D01*
X83732159Y-82540000D01*
X83548467Y-82662739D01*
X83342739Y-82868467D01*
X83181099Y-83110378D01*
X83069760Y-83379175D01*
X83013000Y-83664528D01*
X83013000Y-83955472D01*
X83069760Y-84240825D01*
X83181099Y-84509622D01*
X83342739Y-84751533D01*
X83548467Y-84957261D01*
X83790378Y-85118901D01*
X84059175Y-85230240D01*
X84344528Y-85287000D01*
X84635472Y-85287000D01*
X84920825Y-85230240D01*
X85189622Y-85118901D01*
X85431533Y-84957261D01*
X85637261Y-84751533D01*
X85760000Y-84567841D01*
X85882739Y-84751533D01*
X86088467Y-84957261D01*
X86330378Y-85118901D01*
X86599175Y-85230240D01*
X86884528Y-85287000D01*
X87175472Y-85287000D01*
X87460825Y-85230240D01*
X87729622Y-85118901D01*
X87971533Y-84957261D01*
X88177261Y-84751533D01*
X88338901Y-84509622D01*
X88450240Y-84240825D01*
X88507000Y-83955472D01*
X88507000Y-83664528D01*
X88450240Y-83379175D01*
X88338901Y-83110378D01*
X88177261Y-82868467D01*
X88036525Y-82727731D01*
X88121103Y-82702075D01*
X88230028Y-82643853D01*
X88325501Y-82565501D01*
X88403853Y-82470028D01*
X88462075Y-82361103D01*
X88497927Y-82242913D01*
X88510033Y-82120000D01*
X88510033Y-80420000D01*
X88497927Y-80297087D01*
X88462075Y-80178897D01*
X88403853Y-80069972D01*
X88325501Y-79974499D01*
X88230028Y-79896147D01*
X88121103Y-79837925D01*
X88002913Y-79802073D01*
X87880000Y-79789967D01*
X86180000Y-79789967D01*
X86057087Y-79802073D01*
X85938897Y-79837925D01*
X85829972Y-79896147D01*
X85734499Y-79974499D01*
X85656147Y-80069972D01*
X85597925Y-80178897D01*
X85572269Y-80263475D01*
X85431533Y-80122739D01*
X85189622Y-79961099D01*
X84920825Y-79849760D01*
X84635472Y-79793000D01*
X84344528Y-79793000D01*
X84120959Y-79837470D01*
X83267877Y-78984389D01*
X83244327Y-78955693D01*
X83129820Y-78861720D01*
X82999180Y-78791892D01*
X82857428Y-78748891D01*
X82746948Y-78738010D01*
X82746945Y-78738010D01*
X82710010Y-78734372D01*
X82673075Y-78738010D01*
X77840784Y-78738010D01*
X77897261Y-78681533D01*
X78058901Y-78439622D01*
X78170240Y-78170825D01*
X78227000Y-77885472D01*
X78227000Y-77594528D01*
X78170240Y-77309175D01*
X78058901Y-77040378D01*
X77897261Y-76798467D01*
X77691533Y-76592739D01*
X77507841Y-76470000D01*
X77691533Y-76347261D01*
X77897261Y-76141533D01*
X78058901Y-75899622D01*
X78170240Y-75630825D01*
X78170404Y-75630000D01*
X82617467Y-75630000D01*
X82617467Y-77630000D01*
X82629573Y-77752913D01*
X82665425Y-77871103D01*
X82723647Y-77980028D01*
X82801999Y-78075501D01*
X82897472Y-78153853D01*
X83006397Y-78212075D01*
X83124587Y-78247927D01*
X83247500Y-78260033D01*
X85152500Y-78260033D01*
X85275413Y-78247927D01*
X85393603Y-78212075D01*
X85502528Y-78153853D01*
X85598001Y-78075501D01*
X85676353Y-77980028D01*
X85725445Y-77888185D01*
X85858232Y-77997160D01*
X86132628Y-78143828D01*
X86430365Y-78234146D01*
X86740000Y-78264642D01*
X87049636Y-78234146D01*
X87347373Y-78143828D01*
X87621769Y-77997160D01*
X87862279Y-77799779D01*
X88059660Y-77559268D01*
X88206328Y-77284872D01*
X88296646Y-76987135D01*
X88319500Y-76755091D01*
X88319500Y-76504908D01*
X88296646Y-76272864D01*
X88206328Y-75975127D01*
X88059660Y-75700731D01*
X87862279Y-75460221D01*
X87621768Y-75262840D01*
X87347372Y-75116172D01*
X87049635Y-75025854D01*
X86740000Y-74995358D01*
X86430364Y-75025854D01*
X86132627Y-75116172D01*
X85858231Y-75262840D01*
X85725444Y-75371815D01*
X85676353Y-75279972D01*
X85598001Y-75184499D01*
X85502528Y-75106147D01*
X85393603Y-75047925D01*
X85275413Y-75012073D01*
X85152500Y-74999967D01*
X83247500Y-74999967D01*
X83124587Y-75012073D01*
X83006397Y-75047925D01*
X82897472Y-75106147D01*
X82801999Y-75184499D01*
X82723647Y-75279972D01*
X82665425Y-75388897D01*
X82629573Y-75507087D01*
X82617467Y-75630000D01*
X78170404Y-75630000D01*
X78227000Y-75345472D01*
X78227000Y-75054528D01*
X78170240Y-74769175D01*
X78058901Y-74500378D01*
X77897261Y-74258467D01*
X77691533Y-74052739D01*
X77449622Y-73891099D01*
X77180825Y-73779760D01*
X76895472Y-73723000D01*
X76604528Y-73723000D01*
X76319175Y-73779760D01*
X76050378Y-73891099D01*
X75808467Y-74052739D01*
X75602739Y-74258467D01*
X75441099Y-74500378D01*
X75329760Y-74769175D01*
X75273000Y-75054528D01*
X75273000Y-75345472D01*
X75329760Y-75630825D01*
X75441099Y-75899622D01*
X75602739Y-76141533D01*
X75808467Y-76347261D01*
X75992159Y-76470000D01*
X75808467Y-76592739D01*
X75602739Y-76798467D01*
X75441099Y-77040378D01*
X75329760Y-77309175D01*
X75273000Y-77594528D01*
X75273000Y-77885472D01*
X75329760Y-78170825D01*
X75441099Y-78439622D01*
X75602739Y-78681533D01*
X75659216Y-78738010D01*
X74230784Y-78738010D01*
X74287261Y-78681533D01*
X74448901Y-78439622D01*
X74560240Y-78170825D01*
X74617000Y-77885472D01*
X74617000Y-77594528D01*
X74560240Y-77309175D01*
X74448901Y-77040378D01*
X74287261Y-76798467D01*
X74081533Y-76592739D01*
X73897841Y-76470000D01*
X74081533Y-76347261D01*
X74287261Y-76141533D01*
X74448901Y-75899622D01*
X74560240Y-75630825D01*
X74617000Y-75345472D01*
X74617000Y-75054528D01*
X74560240Y-74769175D01*
X74448901Y-74500378D01*
X74287261Y-74258467D01*
X74081533Y-74052739D01*
X73839622Y-73891099D01*
X73570825Y-73779760D01*
X73285472Y-73723000D01*
X72994528Y-73723000D01*
X72709175Y-73779760D01*
X72440378Y-73891099D01*
X72198467Y-74052739D01*
X72054972Y-74196234D01*
X71998290Y-74090190D01*
X71904317Y-73975683D01*
X71875622Y-73952134D01*
X71297867Y-73374379D01*
X71274317Y-73345683D01*
X71159810Y-73251710D01*
X71029170Y-73181882D01*
X70887418Y-73138881D01*
X70776938Y-73128000D01*
X70776935Y-73128000D01*
X70740000Y-73124362D01*
X70703065Y-73128000D01*
X68631489Y-73128000D01*
X68007000Y-72503512D01*
X68007000Y-71893108D01*
X68076496Y-71789099D01*
X68146376Y-71620396D01*
X68182000Y-71441301D01*
X68182000Y-71258699D01*
X68146376Y-71079604D01*
X68076496Y-70910901D01*
X67975048Y-70759072D01*
X67845928Y-70629952D01*
X67694099Y-70528504D01*
X67525396Y-70458624D01*
X67378427Y-70429390D01*
X67417000Y-70235472D01*
X67417000Y-69944528D01*
X67360240Y-69659175D01*
X67248901Y-69390378D01*
X67087261Y-69148467D01*
X66881533Y-68942739D01*
X66639622Y-68781099D01*
X66370825Y-68669760D01*
X66085472Y-68613000D01*
X65794528Y-68613000D01*
X65570959Y-68657470D01*
X64620488Y-67707000D01*
X82871622Y-67707000D01*
X82879972Y-67713853D01*
X82988897Y-67772075D01*
X83107087Y-67807927D01*
X83230000Y-67820033D01*
X87230000Y-67820033D01*
X87352913Y-67807927D01*
X87471103Y-67772075D01*
X87580028Y-67713853D01*
X87588378Y-67707000D01*
X89221622Y-67707000D01*
X89229972Y-67713853D01*
X89338897Y-67772075D01*
X89457087Y-67807927D01*
X89580000Y-67820033D01*
X93580000Y-67820033D01*
X93702913Y-67807927D01*
X93821103Y-67772075D01*
X93930028Y-67713853D01*
X93938378Y-67707000D01*
X94723001Y-67707000D01*
X94723000Y-73887038D01*
X94489622Y-73731099D01*
X94220825Y-73619760D01*
X93935472Y-73563000D01*
X93644528Y-73563000D01*
X93359175Y-73619760D01*
X93090378Y-73731099D01*
X92848467Y-73892739D01*
X92642739Y-74098467D01*
X92481099Y-74340378D01*
X92369760Y-74609175D01*
X92313000Y-74894528D01*
X92313000Y-75185472D01*
X92369760Y-75470825D01*
X92481099Y-75739622D01*
X92642739Y-75981533D01*
X92783475Y-76122269D01*
X92698897Y-76147925D01*
X92589972Y-76206147D01*
X92494499Y-76284499D01*
X92416147Y-76379972D01*
X92357925Y-76488897D01*
X92322073Y-76607087D01*
X92309967Y-76730000D01*
X92309967Y-78430000D01*
X92322073Y-78552913D01*
X92357925Y-78671103D01*
X92416147Y-78780028D01*
X92494499Y-78875501D01*
X92589972Y-78953853D01*
X92698897Y-79012075D01*
X92817087Y-79047927D01*
X92940000Y-79060033D01*
X94640000Y-79060033D01*
X94723000Y-79051858D01*
X94723000Y-80956472D01*
X94406575Y-80482907D01*
X93957093Y-80033425D01*
X93428558Y-79680270D01*
X92841281Y-79437012D01*
X92217832Y-79313000D01*
X91582168Y-79313000D01*
X90958719Y-79437012D01*
X90371442Y-79680270D01*
X89842907Y-80033425D01*
X89393425Y-80482907D01*
X89040270Y-81011442D01*
X88797012Y-81598719D01*
X88673000Y-82222168D01*
X88673000Y-82857832D01*
X88797012Y-83481281D01*
X89040270Y-84068558D01*
X89393425Y-84597093D01*
X89842907Y-85046575D01*
X90316472Y-85363000D01*
X35483528Y-85363000D01*
X35957093Y-85046575D01*
X36406575Y-84597093D01*
X36759730Y-84068558D01*
X37002988Y-83481281D01*
X37127000Y-82857832D01*
X37127000Y-82222168D01*
X37002988Y-81598719D01*
X36759730Y-81011442D01*
X36406575Y-80482907D01*
X35957093Y-80033425D01*
X35428558Y-79680270D01*
X34841281Y-79437012D01*
X34217832Y-79313000D01*
X33582168Y-79313000D01*
X32958719Y-79437012D01*
X32371442Y-79680270D01*
X31842907Y-80033425D01*
X31393425Y-80482907D01*
X31077000Y-80956472D01*
X31077000Y-49490000D01*
X31199967Y-49490000D01*
X31199967Y-51190000D01*
X31212073Y-51312913D01*
X31247925Y-51431103D01*
X31306147Y-51540028D01*
X31384499Y-51635501D01*
X31479972Y-51713853D01*
X31588897Y-51772075D01*
X31707087Y-51807927D01*
X31830000Y-51820033D01*
X33530000Y-51820033D01*
X33652913Y-51807927D01*
X33771103Y-51772075D01*
X33880028Y-51713853D01*
X33975501Y-51635501D01*
X34053853Y-51540028D01*
X34112075Y-51431103D01*
X34147927Y-51312913D01*
X34160033Y-51190000D01*
X34160033Y-49490000D01*
X34147927Y-49367087D01*
X34112075Y-49248897D01*
X34053853Y-49139972D01*
X33975501Y-49044499D01*
X33880028Y-48966147D01*
X33771103Y-48907925D01*
X33652913Y-48872073D01*
X33530000Y-48859967D01*
X31830000Y-48859967D01*
X31707087Y-48872073D01*
X31588897Y-48907925D01*
X31479972Y-48966147D01*
X31384499Y-49044499D01*
X31306147Y-49139972D01*
X31247925Y-49248897D01*
X31212073Y-49367087D01*
X31199967Y-49490000D01*
X31077000Y-49490000D01*
X31077000Y-35123528D01*
X31393425Y-35597093D01*
%TA.AperFunction,Conductor*%
D26*
G36*
X31393425Y-35597093D02*
G01*
X31842907Y-36046575D01*
X32371442Y-36399730D01*
X32958719Y-36642988D01*
X33582168Y-36767000D01*
X34217832Y-36767000D01*
X34841281Y-36642988D01*
X35428558Y-36399730D01*
X35585906Y-36294594D01*
X35571882Y-36320831D01*
X35528881Y-36462583D01*
X35520325Y-36549459D01*
X35514362Y-36610000D01*
X35518000Y-36646936D01*
X35518001Y-38529967D01*
X35470000Y-38529967D01*
X35347087Y-38542073D01*
X35228897Y-38577925D01*
X35119972Y-38636147D01*
X35024499Y-38714499D01*
X34946147Y-38809972D01*
X34887925Y-38918897D01*
X34852073Y-39037087D01*
X34839967Y-39160000D01*
X34839967Y-40760000D01*
X34852073Y-40882913D01*
X34887925Y-41001103D01*
X34946147Y-41110028D01*
X35024499Y-41205501D01*
X35119972Y-41283853D01*
X35228897Y-41342075D01*
X35347087Y-41377927D01*
X35470000Y-41390033D01*
X35748001Y-41390033D01*
X35748000Y-51823064D01*
X35744362Y-51860000D01*
X35748000Y-51896935D01*
X35748000Y-51896937D01*
X35758881Y-52007417D01*
X35795284Y-52127418D01*
X35801882Y-52149169D01*
X35871710Y-52279810D01*
X35897176Y-52310840D01*
X35965683Y-52394317D01*
X35994379Y-52417867D01*
X40182197Y-56605686D01*
X40205744Y-56634378D01*
X40320251Y-56728351D01*
X40450891Y-56798179D01*
X40592643Y-56841180D01*
X40703123Y-56852061D01*
X40703125Y-56852061D01*
X40740061Y-56855699D01*
X40776996Y-56852061D01*
X48702163Y-56852061D01*
X48842079Y-56991978D01*
X48842078Y-60282384D01*
X47016492Y-62107970D01*
X40196965Y-62107970D01*
X40160030Y-62104332D01*
X40123094Y-62107970D01*
X40123092Y-62107970D01*
X40012612Y-62118851D01*
X39870860Y-62161852D01*
X39740220Y-62231680D01*
X39625713Y-62325653D01*
X39602167Y-62354344D01*
X35794375Y-66162137D01*
X35765684Y-66185683D01*
X35742138Y-66214374D01*
X35742137Y-66214375D01*
X35671710Y-66300190D01*
X35650449Y-66339967D01*
X35500000Y-66339967D01*
X35377087Y-66352073D01*
X35258897Y-66387925D01*
X35149972Y-66446147D01*
X35054499Y-66524499D01*
X34976147Y-66619972D01*
X34917925Y-66728897D01*
X34882073Y-66847087D01*
X34869967Y-66970000D01*
X34869967Y-68570000D01*
X34882073Y-68692913D01*
X34917925Y-68811103D01*
X34976147Y-68920028D01*
X35054499Y-69015501D01*
X35149972Y-69093853D01*
X35258897Y-69152075D01*
X35377087Y-69187927D01*
X35500000Y-69200033D01*
X37100000Y-69200033D01*
X37222913Y-69187927D01*
X37341103Y-69152075D01*
X37450028Y-69093853D01*
X37545501Y-69015501D01*
X37623853Y-68920028D01*
X37682075Y-68811103D01*
X37717927Y-68692913D01*
X37730033Y-68570000D01*
X37730033Y-66970000D01*
X37717927Y-66847087D01*
X37682075Y-66728897D01*
X37623853Y-66619972D01*
X37551581Y-66531907D01*
X38568000Y-65515488D01*
X38568001Y-68043055D01*
X38564362Y-68080000D01*
X38578882Y-68227417D01*
X38621882Y-68369169D01*
X38691710Y-68499810D01*
X38751450Y-68572603D01*
X38785684Y-68614317D01*
X38814375Y-68637863D01*
X40592176Y-70415665D01*
X40615723Y-70444357D01*
X40644414Y-70467903D01*
X40730229Y-70538330D01*
X40800057Y-70575653D01*
X40860870Y-70608158D01*
X41002622Y-70651159D01*
X41113102Y-70662040D01*
X41113104Y-70662040D01*
X41150039Y-70665678D01*
X41186975Y-70662040D01*
X42190101Y-70662040D01*
X42218624Y-70805436D01*
X42288504Y-70974139D01*
X42389952Y-71125968D01*
X42519072Y-71255088D01*
X42670901Y-71356536D01*
X42839604Y-71426416D01*
X43018699Y-71462040D01*
X43201301Y-71462040D01*
X43380396Y-71426416D01*
X43549099Y-71356536D01*
X43653108Y-71287040D01*
X51366892Y-71287040D01*
X51470901Y-71356536D01*
X51639604Y-71426416D01*
X51818699Y-71462040D01*
X52001301Y-71462040D01*
X52180396Y-71426416D01*
X52349099Y-71356536D01*
X52475101Y-71272345D01*
X55948388Y-74745632D01*
X55971938Y-74774328D01*
X56086445Y-74868301D01*
X56217085Y-74938129D01*
X56358837Y-74981130D01*
X56469317Y-74992011D01*
X56469319Y-74992011D01*
X56506255Y-74995649D01*
X56543190Y-74992011D01*
X58818523Y-74992011D01*
X60677137Y-76850626D01*
X60700684Y-76879318D01*
X60729375Y-76902864D01*
X60815190Y-76973291D01*
X60841093Y-76987136D01*
X60945831Y-77043119D01*
X61087583Y-77086120D01*
X61198063Y-77097001D01*
X61198065Y-77097001D01*
X61235000Y-77100639D01*
X61271936Y-77097001D01*
X66627990Y-77097001D01*
X66627991Y-79179455D01*
X66624352Y-79216400D01*
X66638872Y-79363817D01*
X66681872Y-79505569D01*
X66751700Y-79636210D01*
X66822127Y-79722025D01*
X66845674Y-79750717D01*
X66874365Y-79774263D01*
X66902445Y-79802344D01*
X66855472Y-79793000D01*
X66564528Y-79793000D01*
X66279175Y-79849760D01*
X66010378Y-79961099D01*
X65768467Y-80122739D01*
X65562739Y-80328467D01*
X65440000Y-80512159D01*
X65317261Y-80328467D01*
X65111533Y-80122739D01*
X64869622Y-79961099D01*
X64600825Y-79849760D01*
X64315472Y-79793000D01*
X64024528Y-79793000D01*
X63739175Y-79849760D01*
X63470378Y-79961099D01*
X63228467Y-80122739D01*
X63022739Y-80328467D01*
X62900000Y-80512159D01*
X62777261Y-80328467D01*
X62571533Y-80122739D01*
X62329622Y-79961099D01*
X62060825Y-79849760D01*
X61775472Y-79793000D01*
X61484528Y-79793000D01*
X61199175Y-79849760D01*
X60930378Y-79961099D01*
X60688467Y-80122739D01*
X60482739Y-80328467D01*
X60360000Y-80512159D01*
X60237261Y-80328467D01*
X60031533Y-80122739D01*
X59789622Y-79961099D01*
X59520825Y-79849760D01*
X59235472Y-79793000D01*
X58944528Y-79793000D01*
X58659175Y-79849760D01*
X58390378Y-79961099D01*
X58148467Y-80122739D01*
X57942739Y-80328467D01*
X57781099Y-80570378D01*
X57669760Y-80839175D01*
X57613000Y-81124528D01*
X57613000Y-81415472D01*
X57669760Y-81700825D01*
X57781099Y-81969622D01*
X57942739Y-82211533D01*
X58148467Y-82417261D01*
X58332159Y-82540000D01*
X58148467Y-82662739D01*
X57942739Y-82868467D01*
X57820000Y-83052159D01*
X57697261Y-82868467D01*
X57491533Y-82662739D01*
X57249622Y-82501099D01*
X56980825Y-82389760D01*
X56695472Y-82333000D01*
X56404528Y-82333000D01*
X56119175Y-82389760D01*
X55850378Y-82501099D01*
X55608467Y-82662739D01*
X55402739Y-82868467D01*
X55280000Y-83052159D01*
X55157261Y-82868467D01*
X54951533Y-82662739D01*
X54767841Y-82540000D01*
X54951533Y-82417261D01*
X55157261Y-82211533D01*
X55318901Y-81969622D01*
X55430240Y-81700825D01*
X55487000Y-81415472D01*
X55487000Y-81124528D01*
X55430240Y-80839175D01*
X55318901Y-80570378D01*
X55157261Y-80328467D01*
X54951533Y-80122739D01*
X54709622Y-79961099D01*
X54440825Y-79849760D01*
X54155472Y-79793000D01*
X53864528Y-79793000D01*
X53579175Y-79849760D01*
X53310378Y-79961099D01*
X53068467Y-80122739D01*
X52862739Y-80328467D01*
X52740000Y-80512159D01*
X52617261Y-80328467D01*
X52411533Y-80122739D01*
X52169622Y-79961099D01*
X51900825Y-79849760D01*
X51615472Y-79793000D01*
X51324528Y-79793000D01*
X51039175Y-79849760D01*
X50770378Y-79961099D01*
X50528467Y-80122739D01*
X50322739Y-80328467D01*
X50200000Y-80512159D01*
X50077261Y-80328467D01*
X49871533Y-80122739D01*
X49629622Y-79961099D01*
X49360825Y-79849760D01*
X49075472Y-79793000D01*
X48784528Y-79793000D01*
X48499175Y-79849760D01*
X48230378Y-79961099D01*
X47988467Y-80122739D01*
X47782739Y-80328467D01*
X47660000Y-80512159D01*
X47537261Y-80328467D01*
X47331533Y-80122739D01*
X47089622Y-79961099D01*
X46820825Y-79849760D01*
X46535472Y-79793000D01*
X46244528Y-79793000D01*
X45959175Y-79849760D01*
X45690378Y-79961099D01*
X45448467Y-80122739D01*
X45242739Y-80328467D01*
X45120000Y-80512159D01*
X44997261Y-80328467D01*
X44791533Y-80122739D01*
X44549622Y-79961099D01*
X44280825Y-79849760D01*
X43995472Y-79793000D01*
X43704528Y-79793000D01*
X43419175Y-79849760D01*
X43150378Y-79961099D01*
X42908467Y-80122739D01*
X42702739Y-80328467D01*
X42580000Y-80512159D01*
X42457261Y-80328467D01*
X42251533Y-80122739D01*
X42009622Y-79961099D01*
X41740825Y-79849760D01*
X41455472Y-79793000D01*
X41164528Y-79793000D01*
X40879175Y-79849760D01*
X40610378Y-79961099D01*
X40368467Y-80122739D01*
X40162739Y-80328467D01*
X40001099Y-80570378D01*
X39889760Y-80839175D01*
X39833000Y-81124528D01*
X39833000Y-81415472D01*
X39889760Y-81700825D01*
X40001099Y-81969622D01*
X40162739Y-82211533D01*
X40368467Y-82417261D01*
X40552159Y-82540000D01*
X40368467Y-82662739D01*
X40162739Y-82868467D01*
X40040000Y-83052159D01*
X39917261Y-82868467D01*
X39711533Y-82662739D01*
X39469622Y-82501099D01*
X39200825Y-82389760D01*
X38915472Y-82333000D01*
X38624528Y-82333000D01*
X38339175Y-82389760D01*
X38070378Y-82501099D01*
X37828467Y-82662739D01*
X37622739Y-82868467D01*
X37461099Y-83110378D01*
X37349760Y-83379175D01*
X37293000Y-83664528D01*
X37293000Y-83955472D01*
X37349760Y-84240825D01*
X37461099Y-84509622D01*
X37622739Y-84751533D01*
X37828467Y-84957261D01*
X38070378Y-85118901D01*
X38339175Y-85230240D01*
X38624528Y-85287000D01*
X38915472Y-85287000D01*
X39200825Y-85230240D01*
X39469622Y-85118901D01*
X39711533Y-84957261D01*
X39917261Y-84751533D01*
X40040000Y-84567841D01*
X40162739Y-84751533D01*
X40368467Y-84957261D01*
X40610378Y-85118901D01*
X40879175Y-85230240D01*
X41164528Y-85287000D01*
X41455472Y-85287000D01*
X41740825Y-85230240D01*
X42009622Y-85118901D01*
X42251533Y-84957261D01*
X42457261Y-84751533D01*
X42580000Y-84567841D01*
X42702739Y-84751533D01*
X42908467Y-84957261D01*
X43150378Y-85118901D01*
X43419175Y-85230240D01*
X43704528Y-85287000D01*
X43995472Y-85287000D01*
X44280825Y-85230240D01*
X44549622Y-85118901D01*
X44791533Y-84957261D01*
X44997261Y-84751533D01*
X45158901Y-84509622D01*
X45270240Y-84240825D01*
X45327000Y-83955472D01*
X45327000Y-83664528D01*
X45270240Y-83379175D01*
X45158901Y-83110378D01*
X44997261Y-82868467D01*
X44791533Y-82662739D01*
X44607841Y-82540000D01*
X44791533Y-82417261D01*
X44997261Y-82211533D01*
X45120000Y-82027841D01*
X45242739Y-82211533D01*
X45448467Y-82417261D01*
X45690378Y-82578901D01*
X45959175Y-82690240D01*
X46244528Y-82747000D01*
X46535472Y-82747000D01*
X46820825Y-82690240D01*
X47089622Y-82578901D01*
X47331533Y-82417261D01*
X47537261Y-82211533D01*
X47660000Y-82027841D01*
X47782739Y-82211533D01*
X47988467Y-82417261D01*
X48172159Y-82540000D01*
X47988467Y-82662739D01*
X47782739Y-82868467D01*
X47621099Y-83110378D01*
X47509760Y-83379175D01*
X47453000Y-83664528D01*
X47453000Y-83955472D01*
X47509760Y-84240825D01*
X47621099Y-84509622D01*
X47782739Y-84751533D01*
X47988467Y-84957261D01*
X48230378Y-85118901D01*
X48499175Y-85230240D01*
X48784528Y-85287000D01*
X49075472Y-85287000D01*
X49360825Y-85230240D01*
X49629622Y-85118901D01*
X49871533Y-84957261D01*
X50077261Y-84751533D01*
X50238901Y-84509622D01*
X50350240Y-84240825D01*
X50407000Y-83955472D01*
X50407000Y-83664528D01*
X50350240Y-83379175D01*
X50238901Y-83110378D01*
X50077261Y-82868467D01*
X49871533Y-82662739D01*
X49687841Y-82540000D01*
X49871533Y-82417261D01*
X50077261Y-82211533D01*
X50200000Y-82027841D01*
X50322739Y-82211533D01*
X50528467Y-82417261D01*
X50770378Y-82578901D01*
X51039175Y-82690240D01*
X51324528Y-82747000D01*
X51615472Y-82747000D01*
X51900825Y-82690240D01*
X52169622Y-82578901D01*
X52411533Y-82417261D01*
X52617261Y-82211533D01*
X52740000Y-82027841D01*
X52862739Y-82211533D01*
X53068467Y-82417261D01*
X53252159Y-82540000D01*
X53068467Y-82662739D01*
X52862739Y-82868467D01*
X52701099Y-83110378D01*
X52589760Y-83379175D01*
X52533000Y-83664528D01*
X52533000Y-83955472D01*
X52589760Y-84240825D01*
X52701099Y-84509622D01*
X52862739Y-84751533D01*
X53068467Y-84957261D01*
X53310378Y-85118901D01*
X53579175Y-85230240D01*
X53864528Y-85287000D01*
X54155472Y-85287000D01*
X54440825Y-85230240D01*
X54709622Y-85118901D01*
X54951533Y-84957261D01*
X55157261Y-84751533D01*
X55280000Y-84567841D01*
X55402739Y-84751533D01*
X55608467Y-84957261D01*
X55850378Y-85118901D01*
X56119175Y-85230240D01*
X56404528Y-85287000D01*
X56695472Y-85287000D01*
X56980825Y-85230240D01*
X57249622Y-85118901D01*
X57491533Y-84957261D01*
X57697261Y-84751533D01*
X57820000Y-84567841D01*
X57942739Y-84751533D01*
X58148467Y-84957261D01*
X58390378Y-85118901D01*
X58659175Y-85230240D01*
X58944528Y-85287000D01*
X59235472Y-85287000D01*
X59520825Y-85230240D01*
X59789622Y-85118901D01*
X60031533Y-84957261D01*
X60237261Y-84751533D01*
X60360000Y-84567841D01*
X60482739Y-84751533D01*
X60688467Y-84957261D01*
X60930378Y-85118901D01*
X61199175Y-85230240D01*
X61484528Y-85287000D01*
X61775472Y-85287000D01*
X62060825Y-85230240D01*
X62329622Y-85118901D01*
X62571533Y-84957261D01*
X62777261Y-84751533D01*
X62938901Y-84509622D01*
X63050240Y-84240825D01*
X63107000Y-83955472D01*
X63107000Y-83664528D01*
X63050240Y-83379175D01*
X62938901Y-83110378D01*
X62777261Y-82868467D01*
X62571533Y-82662739D01*
X62387841Y-82540000D01*
X62571533Y-82417261D01*
X62777261Y-82211533D01*
X62900000Y-82027841D01*
X63022739Y-82211533D01*
X63228467Y-82417261D01*
X63470378Y-82578901D01*
X63739175Y-82690240D01*
X64024528Y-82747000D01*
X64315472Y-82747000D01*
X64600825Y-82690240D01*
X64869622Y-82578901D01*
X65111533Y-82417261D01*
X65317261Y-82211533D01*
X65440000Y-82027841D01*
X65562739Y-82211533D01*
X65768467Y-82417261D01*
X65952159Y-82540000D01*
X65768467Y-82662739D01*
X65562739Y-82868467D01*
X65401099Y-83110378D01*
X65289760Y-83379175D01*
X65233000Y-83664528D01*
X65233000Y-83955472D01*
X65289760Y-84240825D01*
X65401099Y-84509622D01*
X65562739Y-84751533D01*
X65768467Y-84957261D01*
X66010378Y-85118901D01*
X66279175Y-85230240D01*
X66564528Y-85287000D01*
X66855472Y-85287000D01*
X67140825Y-85230240D01*
X67409622Y-85118901D01*
X67651533Y-84957261D01*
X67857261Y-84751533D01*
X67980000Y-84567841D01*
X68102739Y-84751533D01*
X68308467Y-84957261D01*
X68550378Y-85118901D01*
X68819175Y-85230240D01*
X69104528Y-85287000D01*
X69395472Y-85287000D01*
X69680825Y-85230240D01*
X69949622Y-85118901D01*
X70191533Y-84957261D01*
X70397261Y-84751533D01*
X70558901Y-84509622D01*
X70670240Y-84240825D01*
X70727000Y-83955472D01*
X70727000Y-83664528D01*
X70670240Y-83379175D01*
X70558901Y-83110378D01*
X70397261Y-82868467D01*
X70191533Y-82662739D01*
X70007841Y-82540000D01*
X70191533Y-82417261D01*
X70397261Y-82211533D01*
X70520000Y-82027841D01*
X70642739Y-82211533D01*
X70848467Y-82417261D01*
X71090378Y-82578901D01*
X71359175Y-82690240D01*
X71644528Y-82747000D01*
X71935472Y-82747000D01*
X72220825Y-82690240D01*
X72489622Y-82578901D01*
X72731533Y-82417261D01*
X72937261Y-82211533D01*
X73060000Y-82027841D01*
X73182739Y-82211533D01*
X73388467Y-82417261D01*
X73572159Y-82540000D01*
X73388467Y-82662739D01*
X73182739Y-82868467D01*
X73021099Y-83110378D01*
X72909760Y-83379175D01*
X72853000Y-83664528D01*
X72853000Y-83955472D01*
X72909760Y-84240825D01*
X73021099Y-84509622D01*
X73182739Y-84751533D01*
X73388467Y-84957261D01*
X73630378Y-85118901D01*
X73899175Y-85230240D01*
X74184528Y-85287000D01*
X74475472Y-85287000D01*
X74760825Y-85230240D01*
X75029622Y-85118901D01*
X75271533Y-84957261D01*
X75477261Y-84751533D01*
X75600000Y-84567841D01*
X75722739Y-84751533D01*
X75928467Y-84957261D01*
X76170378Y-85118901D01*
X76439175Y-85230240D01*
X76724528Y-85287000D01*
X77015472Y-85287000D01*
X77300825Y-85230240D01*
X77569622Y-85118901D01*
X77811533Y-84957261D01*
X78017261Y-84751533D01*
X78140000Y-84567841D01*
X78262739Y-84751533D01*
X78468467Y-84957261D01*
X78710378Y-85118901D01*
X78979175Y-85230240D01*
X79264528Y-85287000D01*
X79555472Y-85287000D01*
X79840825Y-85230240D01*
X80109622Y-85118901D01*
X80351533Y-84957261D01*
X80557261Y-84751533D01*
X80718901Y-84509622D01*
X80830240Y-84240825D01*
X80887000Y-83955472D01*
X80887000Y-83664528D01*
X80830240Y-83379175D01*
X80718901Y-83110378D01*
X80557261Y-82868467D01*
X80351533Y-82662739D01*
X80167841Y-82540000D01*
X80351533Y-82417261D01*
X80557261Y-82211533D01*
X80680000Y-82027841D01*
X80802739Y-82211533D01*
X81008467Y-82417261D01*
X81250378Y-82578901D01*
X81519175Y-82690240D01*
X81804528Y-82747000D01*
X82095472Y-82747000D01*
X82380825Y-82690240D01*
X82649622Y-82578901D01*
X82891533Y-82417261D01*
X83097261Y-82211533D01*
X83220000Y-82027841D01*
X83342739Y-82211533D01*
X83548467Y-82417261D01*
X83732159Y-82540000D01*
X83548467Y-82662739D01*
X83342739Y-82868467D01*
X83181099Y-83110378D01*
X83069760Y-83379175D01*
X83013000Y-83664528D01*
X83013000Y-83955472D01*
X83069760Y-84240825D01*
X83181099Y-84509622D01*
X83342739Y-84751533D01*
X83548467Y-84957261D01*
X83790378Y-85118901D01*
X84059175Y-85230240D01*
X84344528Y-85287000D01*
X84635472Y-85287000D01*
X84920825Y-85230240D01*
X85189622Y-85118901D01*
X85431533Y-84957261D01*
X85637261Y-84751533D01*
X85760000Y-84567841D01*
X85882739Y-84751533D01*
X86088467Y-84957261D01*
X86330378Y-85118901D01*
X86599175Y-85230240D01*
X86884528Y-85287000D01*
X87175472Y-85287000D01*
X87460825Y-85230240D01*
X87729622Y-85118901D01*
X87971533Y-84957261D01*
X88177261Y-84751533D01*
X88338901Y-84509622D01*
X88450240Y-84240825D01*
X88507000Y-83955472D01*
X88507000Y-83664528D01*
X88450240Y-83379175D01*
X88338901Y-83110378D01*
X88177261Y-82868467D01*
X88036525Y-82727731D01*
X88121103Y-82702075D01*
X88230028Y-82643853D01*
X88325501Y-82565501D01*
X88403853Y-82470028D01*
X88462075Y-82361103D01*
X88497927Y-82242913D01*
X88510033Y-82120000D01*
X88510033Y-80420000D01*
X88497927Y-80297087D01*
X88462075Y-80178897D01*
X88403853Y-80069972D01*
X88325501Y-79974499D01*
X88230028Y-79896147D01*
X88121103Y-79837925D01*
X88002913Y-79802073D01*
X87880000Y-79789967D01*
X86180000Y-79789967D01*
X86057087Y-79802073D01*
X85938897Y-79837925D01*
X85829972Y-79896147D01*
X85734499Y-79974499D01*
X85656147Y-80069972D01*
X85597925Y-80178897D01*
X85572269Y-80263475D01*
X85431533Y-80122739D01*
X85189622Y-79961099D01*
X84920825Y-79849760D01*
X84635472Y-79793000D01*
X84344528Y-79793000D01*
X84120959Y-79837470D01*
X83267877Y-78984389D01*
X83244327Y-78955693D01*
X83129820Y-78861720D01*
X82999180Y-78791892D01*
X82857428Y-78748891D01*
X82746948Y-78738010D01*
X82746945Y-78738010D01*
X82710010Y-78734372D01*
X82673075Y-78738010D01*
X77840784Y-78738010D01*
X77897261Y-78681533D01*
X78058901Y-78439622D01*
X78170240Y-78170825D01*
X78227000Y-77885472D01*
X78227000Y-77594528D01*
X78170240Y-77309175D01*
X78058901Y-77040378D01*
X77897261Y-76798467D01*
X77691533Y-76592739D01*
X77507841Y-76470000D01*
X77691533Y-76347261D01*
X77897261Y-76141533D01*
X78058901Y-75899622D01*
X78170240Y-75630825D01*
X78170404Y-75630000D01*
X82617467Y-75630000D01*
X82617467Y-77630000D01*
X82629573Y-77752913D01*
X82665425Y-77871103D01*
X82723647Y-77980028D01*
X82801999Y-78075501D01*
X82897472Y-78153853D01*
X83006397Y-78212075D01*
X83124587Y-78247927D01*
X83247500Y-78260033D01*
X85152500Y-78260033D01*
X85275413Y-78247927D01*
X85393603Y-78212075D01*
X85502528Y-78153853D01*
X85598001Y-78075501D01*
X85676353Y-77980028D01*
X85725445Y-77888185D01*
X85858232Y-77997160D01*
X86132628Y-78143828D01*
X86430365Y-78234146D01*
X86740000Y-78264642D01*
X87049636Y-78234146D01*
X87347373Y-78143828D01*
X87621769Y-77997160D01*
X87862279Y-77799779D01*
X88059660Y-77559268D01*
X88206328Y-77284872D01*
X88296646Y-76987135D01*
X88319500Y-76755091D01*
X88319500Y-76504908D01*
X88296646Y-76272864D01*
X88206328Y-75975127D01*
X88059660Y-75700731D01*
X87862279Y-75460221D01*
X87621768Y-75262840D01*
X87347372Y-75116172D01*
X87049635Y-75025854D01*
X86740000Y-74995358D01*
X86430364Y-75025854D01*
X86132627Y-75116172D01*
X85858231Y-75262840D01*
X85725444Y-75371815D01*
X85676353Y-75279972D01*
X85598001Y-75184499D01*
X85502528Y-75106147D01*
X85393603Y-75047925D01*
X85275413Y-75012073D01*
X85152500Y-74999967D01*
X83247500Y-74999967D01*
X83124587Y-75012073D01*
X83006397Y-75047925D01*
X82897472Y-75106147D01*
X82801999Y-75184499D01*
X82723647Y-75279972D01*
X82665425Y-75388897D01*
X82629573Y-75507087D01*
X82617467Y-75630000D01*
X78170404Y-75630000D01*
X78227000Y-75345472D01*
X78227000Y-75054528D01*
X78170240Y-74769175D01*
X78058901Y-74500378D01*
X77897261Y-74258467D01*
X77691533Y-74052739D01*
X77449622Y-73891099D01*
X77180825Y-73779760D01*
X76895472Y-73723000D01*
X76604528Y-73723000D01*
X76319175Y-73779760D01*
X76050378Y-73891099D01*
X75808467Y-74052739D01*
X75602739Y-74258467D01*
X75441099Y-74500378D01*
X75329760Y-74769175D01*
X75273000Y-75054528D01*
X75273000Y-75345472D01*
X75329760Y-75630825D01*
X75441099Y-75899622D01*
X75602739Y-76141533D01*
X75808467Y-76347261D01*
X75992159Y-76470000D01*
X75808467Y-76592739D01*
X75602739Y-76798467D01*
X75441099Y-77040378D01*
X75329760Y-77309175D01*
X75273000Y-77594528D01*
X75273000Y-77885472D01*
X75329760Y-78170825D01*
X75441099Y-78439622D01*
X75602739Y-78681533D01*
X75659216Y-78738010D01*
X74230784Y-78738010D01*
X74287261Y-78681533D01*
X74448901Y-78439622D01*
X74560240Y-78170825D01*
X74617000Y-77885472D01*
X74617000Y-77594528D01*
X74560240Y-77309175D01*
X74448901Y-77040378D01*
X74287261Y-76798467D01*
X74081533Y-76592739D01*
X73897841Y-76470000D01*
X74081533Y-76347261D01*
X74287261Y-76141533D01*
X74448901Y-75899622D01*
X74560240Y-75630825D01*
X74617000Y-75345472D01*
X74617000Y-75054528D01*
X74560240Y-74769175D01*
X74448901Y-74500378D01*
X74287261Y-74258467D01*
X74081533Y-74052739D01*
X73839622Y-73891099D01*
X73570825Y-73779760D01*
X73285472Y-73723000D01*
X72994528Y-73723000D01*
X72709175Y-73779760D01*
X72440378Y-73891099D01*
X72198467Y-74052739D01*
X72054972Y-74196234D01*
X71998290Y-74090190D01*
X71904317Y-73975683D01*
X71875622Y-73952134D01*
X71297867Y-73374379D01*
X71274317Y-73345683D01*
X71159810Y-73251710D01*
X71029170Y-73181882D01*
X70887418Y-73138881D01*
X70776938Y-73128000D01*
X70776935Y-73128000D01*
X70740000Y-73124362D01*
X70703065Y-73128000D01*
X68631489Y-73128000D01*
X68007000Y-72503512D01*
X68007000Y-71893108D01*
X68076496Y-71789099D01*
X68146376Y-71620396D01*
X68182000Y-71441301D01*
X68182000Y-71258699D01*
X68146376Y-71079604D01*
X68076496Y-70910901D01*
X67975048Y-70759072D01*
X67845928Y-70629952D01*
X67694099Y-70528504D01*
X67525396Y-70458624D01*
X67378427Y-70429390D01*
X67417000Y-70235472D01*
X67417000Y-69944528D01*
X67360240Y-69659175D01*
X67248901Y-69390378D01*
X67087261Y-69148467D01*
X66881533Y-68942739D01*
X66639622Y-68781099D01*
X66370825Y-68669760D01*
X66085472Y-68613000D01*
X65794528Y-68613000D01*
X65570959Y-68657470D01*
X64620488Y-67707000D01*
X82871622Y-67707000D01*
X82879972Y-67713853D01*
X82988897Y-67772075D01*
X83107087Y-67807927D01*
X83230000Y-67820033D01*
X87230000Y-67820033D01*
X87352913Y-67807927D01*
X87471103Y-67772075D01*
X87580028Y-67713853D01*
X87588378Y-67707000D01*
X89221622Y-67707000D01*
X89229972Y-67713853D01*
X89338897Y-67772075D01*
X89457087Y-67807927D01*
X89580000Y-67820033D01*
X93580000Y-67820033D01*
X93702913Y-67807927D01*
X93821103Y-67772075D01*
X93930028Y-67713853D01*
X93938378Y-67707000D01*
X94723001Y-67707000D01*
X94723000Y-73887038D01*
X94489622Y-73731099D01*
X94220825Y-73619760D01*
X93935472Y-73563000D01*
X93644528Y-73563000D01*
X93359175Y-73619760D01*
X93090378Y-73731099D01*
X92848467Y-73892739D01*
X92642739Y-74098467D01*
X92481099Y-74340378D01*
X92369760Y-74609175D01*
X92313000Y-74894528D01*
X92313000Y-75185472D01*
X92369760Y-75470825D01*
X92481099Y-75739622D01*
X92642739Y-75981533D01*
X92783475Y-76122269D01*
X92698897Y-76147925D01*
X92589972Y-76206147D01*
X92494499Y-76284499D01*
X92416147Y-76379972D01*
X92357925Y-76488897D01*
X92322073Y-76607087D01*
X92309967Y-76730000D01*
X92309967Y-78430000D01*
X92322073Y-78552913D01*
X92357925Y-78671103D01*
X92416147Y-78780028D01*
X92494499Y-78875501D01*
X92589972Y-78953853D01*
X92698897Y-79012075D01*
X92817087Y-79047927D01*
X92940000Y-79060033D01*
X94640000Y-79060033D01*
X94723000Y-79051858D01*
X94723000Y-80956472D01*
X94406575Y-80482907D01*
X93957093Y-80033425D01*
X93428558Y-79680270D01*
X92841281Y-79437012D01*
X92217832Y-79313000D01*
X91582168Y-79313000D01*
X90958719Y-79437012D01*
X90371442Y-79680270D01*
X89842907Y-80033425D01*
X89393425Y-80482907D01*
X89040270Y-81011442D01*
X88797012Y-81598719D01*
X88673000Y-82222168D01*
X88673000Y-82857832D01*
X88797012Y-83481281D01*
X89040270Y-84068558D01*
X89393425Y-84597093D01*
X89842907Y-85046575D01*
X90316472Y-85363000D01*
X35483528Y-85363000D01*
X35957093Y-85046575D01*
X36406575Y-84597093D01*
X36759730Y-84068558D01*
X37002988Y-83481281D01*
X37127000Y-82857832D01*
X37127000Y-82222168D01*
X37002988Y-81598719D01*
X36759730Y-81011442D01*
X36406575Y-80482907D01*
X35957093Y-80033425D01*
X35428558Y-79680270D01*
X34841281Y-79437012D01*
X34217832Y-79313000D01*
X33582168Y-79313000D01*
X32958719Y-79437012D01*
X32371442Y-79680270D01*
X31842907Y-80033425D01*
X31393425Y-80482907D01*
X31077000Y-80956472D01*
X31077000Y-49490000D01*
X31199967Y-49490000D01*
X31199967Y-51190000D01*
X31212073Y-51312913D01*
X31247925Y-51431103D01*
X31306147Y-51540028D01*
X31384499Y-51635501D01*
X31479972Y-51713853D01*
X31588897Y-51772075D01*
X31707087Y-51807927D01*
X31830000Y-51820033D01*
X33530000Y-51820033D01*
X33652913Y-51807927D01*
X33771103Y-51772075D01*
X33880028Y-51713853D01*
X33975501Y-51635501D01*
X34053853Y-51540028D01*
X34112075Y-51431103D01*
X34147927Y-51312913D01*
X34160033Y-51190000D01*
X34160033Y-49490000D01*
X34147927Y-49367087D01*
X34112075Y-49248897D01*
X34053853Y-49139972D01*
X33975501Y-49044499D01*
X33880028Y-48966147D01*
X33771103Y-48907925D01*
X33652913Y-48872073D01*
X33530000Y-48859967D01*
X31830000Y-48859967D01*
X31707087Y-48872073D01*
X31588897Y-48907925D01*
X31479972Y-48966147D01*
X31384499Y-49044499D01*
X31306147Y-49139972D01*
X31247925Y-49248897D01*
X31212073Y-49367087D01*
X31199967Y-49490000D01*
X31077000Y-49490000D01*
X31077000Y-35123528D01*
X31393425Y-35597093D01*
G37*
%TD.AperFunction*%
D25*
X77989760Y-80839175D02*
X77933000Y-81124528D01*
X77933000Y-81415472D01*
X77989760Y-81700825D01*
X78101099Y-81969622D01*
X78262739Y-82211533D01*
X78468467Y-82417261D01*
X78652159Y-82540000D01*
X78468467Y-82662739D01*
X78262739Y-82868467D01*
X78140000Y-83052159D01*
X78017261Y-82868467D01*
X77811533Y-82662739D01*
X77569622Y-82501099D01*
X77300825Y-82389760D01*
X77015472Y-82333000D01*
X76724528Y-82333000D01*
X76439175Y-82389760D01*
X76170378Y-82501099D01*
X75928467Y-82662739D01*
X75722739Y-82868467D01*
X75600000Y-83052159D01*
X75477261Y-82868467D01*
X75271533Y-82662739D01*
X75087841Y-82540000D01*
X75271533Y-82417261D01*
X75477261Y-82211533D01*
X75638901Y-81969622D01*
X75750240Y-81700825D01*
X75807000Y-81415472D01*
X75807000Y-81124528D01*
X75750240Y-80839175D01*
X75689287Y-80692020D01*
X78050713Y-80692020D01*
X77989760Y-80839175D01*
%TA.AperFunction,Conductor*%
D26*
G36*
X77989760Y-80839175D02*
G01*
X77933000Y-81124528D01*
X77933000Y-81415472D01*
X77989760Y-81700825D01*
X78101099Y-81969622D01*
X78262739Y-82211533D01*
X78468467Y-82417261D01*
X78652159Y-82540000D01*
X78468467Y-82662739D01*
X78262739Y-82868467D01*
X78140000Y-83052159D01*
X78017261Y-82868467D01*
X77811533Y-82662739D01*
X77569622Y-82501099D01*
X77300825Y-82389760D01*
X77015472Y-82333000D01*
X76724528Y-82333000D01*
X76439175Y-82389760D01*
X76170378Y-82501099D01*
X75928467Y-82662739D01*
X75722739Y-82868467D01*
X75600000Y-83052159D01*
X75477261Y-82868467D01*
X75271533Y-82662739D01*
X75087841Y-82540000D01*
X75271533Y-82417261D01*
X75477261Y-82211533D01*
X75638901Y-81969622D01*
X75750240Y-81700825D01*
X75807000Y-81415472D01*
X75807000Y-81124528D01*
X75750240Y-80839175D01*
X75689287Y-80692020D01*
X78050713Y-80692020D01*
X77989760Y-80839175D01*
G37*
%TD.AperFunction*%
D25*
X43984379Y-64822133D02*
X43955683Y-64845683D01*
X43904445Y-64908118D01*
X43861710Y-64960190D01*
X43815766Y-65046147D01*
X43791882Y-65090831D01*
X43748881Y-65232583D01*
X43740440Y-65318290D01*
X43734362Y-65380000D01*
X43738000Y-65416936D01*
X43738001Y-66832057D01*
X43734362Y-66869002D01*
X43744310Y-66970000D01*
X43748882Y-67016420D01*
X43750649Y-67022244D01*
X43791882Y-67158171D01*
X43861710Y-67288812D01*
X43927422Y-67368882D01*
X43955684Y-67403319D01*
X43984375Y-67426865D01*
X45265540Y-68708030D01*
X44852517Y-68708030D01*
X42712000Y-66567514D01*
X42712000Y-65281488D01*
X43481498Y-64511990D01*
X44294522Y-64511990D01*
X43984379Y-64822133D01*
%TA.AperFunction,Conductor*%
D26*
G36*
X43984379Y-64822133D02*
G01*
X43955683Y-64845683D01*
X43904445Y-64908118D01*
X43861710Y-64960190D01*
X43815766Y-65046147D01*
X43791882Y-65090831D01*
X43748881Y-65232583D01*
X43740440Y-65318290D01*
X43734362Y-65380000D01*
X43738000Y-65416936D01*
X43738001Y-66832057D01*
X43734362Y-66869002D01*
X43744310Y-66970000D01*
X43748882Y-67016420D01*
X43750649Y-67022244D01*
X43791882Y-67158171D01*
X43861710Y-67288812D01*
X43927422Y-67368882D01*
X43955684Y-67403319D01*
X43984375Y-67426865D01*
X45265540Y-68708030D01*
X44852517Y-68708030D01*
X42712000Y-66567514D01*
X42712000Y-65281488D01*
X43481498Y-64511990D01*
X44294522Y-64511990D01*
X43984379Y-64822133D01*
G37*
%TD.AperFunction*%
D25*
X46524379Y-65145723D02*
X46495683Y-65169273D01*
X46465802Y-65205684D01*
X46401710Y-65283780D01*
X46382249Y-65320190D01*
X46331882Y-65414421D01*
X46288881Y-65556173D01*
X46280898Y-65637231D01*
X46274362Y-65703590D01*
X46278000Y-65740526D01*
X46278001Y-67303055D01*
X46274362Y-67340000D01*
X46283344Y-67431192D01*
X46288882Y-67487418D01*
X46294911Y-67507292D01*
X46331882Y-67629169D01*
X46352811Y-67668325D01*
X45242000Y-66557514D01*
X45242000Y-65691488D01*
X45971489Y-64962000D01*
X46708102Y-64962000D01*
X46524379Y-65145723D01*
%TA.AperFunction,Conductor*%
D26*
G36*
X46524379Y-65145723D02*
G01*
X46495683Y-65169273D01*
X46465802Y-65205684D01*
X46401710Y-65283780D01*
X46382249Y-65320190D01*
X46331882Y-65414421D01*
X46288881Y-65556173D01*
X46280898Y-65637231D01*
X46274362Y-65703590D01*
X46278000Y-65740526D01*
X46278001Y-67303055D01*
X46274362Y-67340000D01*
X46283344Y-67431192D01*
X46288882Y-67487418D01*
X46294911Y-67507292D01*
X46331882Y-67629169D01*
X46352811Y-67668325D01*
X45242000Y-66557514D01*
X45242000Y-65691488D01*
X45971489Y-64962000D01*
X46708102Y-64962000D01*
X46524379Y-65145723D01*
G37*
%TD.AperFunction*%
D25*
X89842907Y-31033425D02*
X89393425Y-31482907D01*
X89040270Y-32011442D01*
X88797012Y-32598719D01*
X88673000Y-33222168D01*
X88673000Y-33857832D01*
X88797012Y-34481281D01*
X89040270Y-35068558D01*
X89393425Y-35597093D01*
X89842907Y-36046575D01*
X90371442Y-36399730D01*
X90958719Y-36642988D01*
X91582168Y-36767000D01*
X92217832Y-36767000D01*
X92841281Y-36642988D01*
X93428558Y-36399730D01*
X93957093Y-36046575D01*
X94406575Y-35597093D01*
X94723001Y-35123527D01*
X94723000Y-48363000D01*
X94186687Y-48363000D01*
X94152075Y-48248897D01*
X94093853Y-48139972D01*
X94015501Y-48044499D01*
X93920028Y-47966147D01*
X93811103Y-47907925D01*
X93692913Y-47872073D01*
X93570000Y-47859967D01*
X89570000Y-47859967D01*
X89447087Y-47872073D01*
X89328897Y-47907925D01*
X89219972Y-47966147D01*
X89124499Y-48044499D01*
X89046147Y-48139972D01*
X88987925Y-48248897D01*
X88953313Y-48363000D01*
X57150488Y-48363000D01*
X57504195Y-48009293D01*
X57680694Y-48044400D01*
X57959306Y-48044400D01*
X58232565Y-47990046D01*
X58489970Y-47883425D01*
X58721628Y-47728636D01*
X58918636Y-47531628D01*
X59073425Y-47299970D01*
X59090000Y-47259955D01*
X59106575Y-47299970D01*
X59261364Y-47531628D01*
X59458372Y-47728636D01*
X59690030Y-47883425D01*
X59947435Y-47990046D01*
X60220694Y-48044400D01*
X60499306Y-48044400D01*
X60772565Y-47990046D01*
X61029970Y-47883425D01*
X61261628Y-47728636D01*
X61458636Y-47531628D01*
X61613425Y-47299970D01*
X61630000Y-47259955D01*
X61646575Y-47299970D01*
X61801364Y-47531628D01*
X61998372Y-47728636D01*
X62230030Y-47883425D01*
X62487435Y-47990046D01*
X62760694Y-48044400D01*
X63039306Y-48044400D01*
X63312565Y-47990046D01*
X63569970Y-47883425D01*
X63801628Y-47728636D01*
X63998636Y-47531628D01*
X64153425Y-47299970D01*
X64170000Y-47259955D01*
X64186575Y-47299970D01*
X64341364Y-47531628D01*
X64538372Y-47728636D01*
X64770030Y-47883425D01*
X65027435Y-47990046D01*
X65300694Y-48044400D01*
X65579306Y-48044400D01*
X65852565Y-47990046D01*
X66109970Y-47883425D01*
X66341628Y-47728636D01*
X66538636Y-47531628D01*
X66693425Y-47299970D01*
X66710000Y-47259955D01*
X66726575Y-47299970D01*
X66881364Y-47531628D01*
X67078372Y-47728636D01*
X67310030Y-47883425D01*
X67567435Y-47990046D01*
X67840694Y-48044400D01*
X68119306Y-48044400D01*
X68392565Y-47990046D01*
X68649970Y-47883425D01*
X68881628Y-47728636D01*
X69078636Y-47531628D01*
X69233425Y-47299970D01*
X69250000Y-47259955D01*
X69266575Y-47299970D01*
X69421364Y-47531628D01*
X69618372Y-47728636D01*
X69850030Y-47883425D01*
X70107435Y-47990046D01*
X70380694Y-48044400D01*
X70659306Y-48044400D01*
X70932565Y-47990046D01*
X71189970Y-47883425D01*
X71421628Y-47728636D01*
X71618636Y-47531628D01*
X71773425Y-47299970D01*
X71790000Y-47259955D01*
X71806575Y-47299970D01*
X71961364Y-47531628D01*
X72158372Y-47728636D01*
X72390030Y-47883425D01*
X72647435Y-47990046D01*
X72920694Y-48044400D01*
X73199306Y-48044400D01*
X73472565Y-47990046D01*
X73729970Y-47883425D01*
X73961628Y-47728636D01*
X74158636Y-47531628D01*
X74313425Y-47299970D01*
X74330000Y-47259955D01*
X74346575Y-47299970D01*
X74501364Y-47531628D01*
X74698372Y-47728636D01*
X74930030Y-47883425D01*
X75187435Y-47990046D01*
X75460694Y-48044400D01*
X75739306Y-48044400D01*
X76012565Y-47990046D01*
X76269970Y-47883425D01*
X76501628Y-47728636D01*
X76698636Y-47531628D01*
X76853425Y-47299970D01*
X76870000Y-47259955D01*
X76886575Y-47299970D01*
X77041364Y-47531628D01*
X77238372Y-47728636D01*
X77470030Y-47883425D01*
X77727435Y-47990046D01*
X78000694Y-48044400D01*
X78279306Y-48044400D01*
X78552565Y-47990046D01*
X78809970Y-47883425D01*
X79041628Y-47728636D01*
X79238636Y-47531628D01*
X79393425Y-47299970D01*
X79410000Y-47259955D01*
X79426575Y-47299970D01*
X79581364Y-47531628D01*
X79778372Y-47728636D01*
X80010030Y-47883425D01*
X80267435Y-47990046D01*
X80540694Y-48044400D01*
X80819306Y-48044400D01*
X81092565Y-47990046D01*
X81349970Y-47883425D01*
X81581628Y-47728636D01*
X81778636Y-47531628D01*
X81933425Y-47299970D01*
X81950000Y-47259955D01*
X81966575Y-47299970D01*
X82121364Y-47531628D01*
X82318372Y-47728636D01*
X82550030Y-47883425D01*
X82807435Y-47990046D01*
X83080694Y-48044400D01*
X83359306Y-48044400D01*
X83632565Y-47990046D01*
X83889970Y-47883425D01*
X84121628Y-47728636D01*
X84318636Y-47531628D01*
X84473425Y-47299970D01*
X84580046Y-47042565D01*
X84587426Y-47005462D01*
X84672647Y-47211202D01*
X84806927Y-47412167D01*
X84977833Y-47583073D01*
X85178798Y-47717353D01*
X85402097Y-47809847D01*
X85639151Y-47857000D01*
X85880849Y-47857000D01*
X86117903Y-47809847D01*
X86341202Y-47717353D01*
X86542167Y-47583073D01*
X86713073Y-47412167D01*
X86847353Y-47211202D01*
X86939847Y-46987903D01*
X86987000Y-46750849D01*
X86987000Y-46509151D01*
X86939847Y-46272097D01*
X86847353Y-46048798D01*
X86713073Y-45847833D01*
X86542167Y-45676927D01*
X86341202Y-45542647D01*
X86117903Y-45450153D01*
X85880849Y-45403000D01*
X85639151Y-45403000D01*
X85402097Y-45450153D01*
X85178798Y-45542647D01*
X84977833Y-45676927D01*
X84806927Y-45847833D01*
X84672647Y-46048798D01*
X84587426Y-46254538D01*
X84580046Y-46217435D01*
X84473425Y-45960030D01*
X84318636Y-45728372D01*
X84121628Y-45531364D01*
X83889970Y-45376575D01*
X83632565Y-45269954D01*
X83359306Y-45215600D01*
X83080694Y-45215600D01*
X82904196Y-45250707D01*
X79240425Y-41586937D01*
X79314591Y-41475938D01*
X79422162Y-41216241D01*
X79477000Y-40940547D01*
X79477000Y-40659453D01*
X79422162Y-40383759D01*
X79314591Y-40124062D01*
X79158424Y-39890340D01*
X78959660Y-39691576D01*
X78802000Y-39586232D01*
X78802000Y-39013768D01*
X78959660Y-38908424D01*
X79158424Y-38709660D01*
X79314591Y-38475938D01*
X79422162Y-38216241D01*
X79477000Y-37940547D01*
X79477000Y-37659453D01*
X79422162Y-37383759D01*
X79314591Y-37124062D01*
X79158424Y-36890340D01*
X78959660Y-36691576D01*
X78725938Y-36535409D01*
X78466241Y-36427838D01*
X78190547Y-36373000D01*
X77909453Y-36373000D01*
X77633759Y-36427838D01*
X77374062Y-36535409D01*
X77140340Y-36691576D01*
X76941576Y-36890340D01*
X76785409Y-37124062D01*
X76677838Y-37383759D01*
X76623000Y-37659453D01*
X76623000Y-37940547D01*
X76677838Y-38216241D01*
X76785409Y-38475938D01*
X76941576Y-38709660D01*
X77140340Y-38908424D01*
X77298000Y-39013769D01*
X77298001Y-39586231D01*
X77140340Y-39691576D01*
X76941576Y-39890340D01*
X76785409Y-40124062D01*
X76677838Y-40383759D01*
X76623000Y-40659453D01*
X76623000Y-40940547D01*
X76677838Y-41216241D01*
X76785409Y-41475938D01*
X76941576Y-41709660D01*
X77140340Y-41908424D01*
X77374062Y-42064591D01*
X77633759Y-42172162D01*
X77714792Y-42188280D01*
X80742111Y-45215600D01*
X80540694Y-45215600D01*
X80364196Y-45250707D01*
X78637838Y-43524350D01*
X78614288Y-43495654D01*
X78499781Y-43401681D01*
X78369141Y-43331853D01*
X78227389Y-43288852D01*
X78116909Y-43277971D01*
X78116906Y-43277971D01*
X78079971Y-43274333D01*
X78043036Y-43277971D01*
X67402961Y-43277971D01*
X67524591Y-43095938D01*
X67632162Y-42836241D01*
X67687000Y-42560547D01*
X67687000Y-42279453D01*
X67632162Y-42003759D01*
X67524591Y-41744062D01*
X67368424Y-41510340D01*
X67169660Y-41311576D01*
X66935938Y-41155409D01*
X66676241Y-41047838D01*
X66400547Y-40993000D01*
X66119453Y-40993000D01*
X65843759Y-41047838D01*
X65584062Y-41155409D01*
X65350340Y-41311576D01*
X65151576Y-41510340D01*
X64995409Y-41744062D01*
X64887838Y-42003759D01*
X64833000Y-42279453D01*
X64833000Y-42560547D01*
X64887838Y-42836241D01*
X64995409Y-43095938D01*
X65117039Y-43277971D01*
X64402961Y-43277971D01*
X64524591Y-43095938D01*
X64632162Y-42836241D01*
X64687000Y-42560547D01*
X64687000Y-42279453D01*
X64632162Y-42003759D01*
X64524591Y-41744062D01*
X64368424Y-41510340D01*
X64169660Y-41311576D01*
X63935938Y-41155409D01*
X63676241Y-41047838D01*
X63400547Y-40993000D01*
X63119453Y-40993000D01*
X62843759Y-41047838D01*
X62584062Y-41155409D01*
X62367680Y-41299990D01*
X62368118Y-41299170D01*
X62411119Y-41157418D01*
X62422000Y-41046938D01*
X62422000Y-41046936D01*
X62425638Y-41010001D01*
X62422000Y-40973065D01*
X62422000Y-40659453D01*
X69003000Y-40659453D01*
X69003000Y-40940547D01*
X69057838Y-41216241D01*
X69165409Y-41475938D01*
X69321576Y-41709660D01*
X69520340Y-41908424D01*
X69754062Y-42064591D01*
X70013759Y-42172162D01*
X70289453Y-42227000D01*
X70570547Y-42227000D01*
X70846241Y-42172162D01*
X71105938Y-42064591D01*
X71339660Y-41908424D01*
X71538424Y-41709660D01*
X71694591Y-41475938D01*
X71802162Y-41216241D01*
X71857000Y-40940547D01*
X71857000Y-40659453D01*
X71802162Y-40383759D01*
X71694591Y-40124062D01*
X71538424Y-39890340D01*
X71339660Y-39691576D01*
X71105938Y-39535409D01*
X70846241Y-39427838D01*
X70570547Y-39373000D01*
X70289453Y-39373000D01*
X70013759Y-39427838D01*
X69754062Y-39535409D01*
X69520340Y-39691576D01*
X69321576Y-39890340D01*
X69165409Y-40124062D01*
X69057838Y-40383759D01*
X69003000Y-40659453D01*
X62422000Y-40659453D01*
X62422000Y-35956305D01*
X62584062Y-36064591D01*
X62843759Y-36172162D01*
X63119453Y-36227000D01*
X63400547Y-36227000D01*
X63676241Y-36172162D01*
X63935938Y-36064591D01*
X64169660Y-35908424D01*
X64368424Y-35709660D01*
X64524591Y-35475938D01*
X64632162Y-35216241D01*
X64687000Y-34940547D01*
X64687000Y-34659453D01*
X64632162Y-34383759D01*
X64527431Y-34130919D01*
X64869992Y-34473480D01*
X64833000Y-34659453D01*
X64833000Y-34940547D01*
X64887838Y-35216241D01*
X64995409Y-35475938D01*
X65151576Y-35709660D01*
X65350340Y-35908424D01*
X65584062Y-36064591D01*
X65843759Y-36172162D01*
X66119453Y-36227000D01*
X66400547Y-36227000D01*
X66676241Y-36172162D01*
X66935938Y-36064591D01*
X67169660Y-35908424D01*
X67368424Y-35709660D01*
X67524591Y-35475938D01*
X67632162Y-35216241D01*
X67687000Y-34940547D01*
X67687000Y-34659453D01*
X67632162Y-34383759D01*
X67524591Y-34124062D01*
X67368424Y-33890340D01*
X67220084Y-33742000D01*
X84268512Y-33742000D01*
X89392137Y-38865626D01*
X89415683Y-38894317D01*
X89530190Y-38988290D01*
X89660830Y-39058118D01*
X89802582Y-39101119D01*
X89913062Y-39112000D01*
X89913064Y-39112000D01*
X89950000Y-39115638D01*
X89986935Y-39112000D01*
X90626097Y-39112000D01*
X90752739Y-39301533D01*
X90893475Y-39442269D01*
X90808897Y-39467925D01*
X90699972Y-39526147D01*
X90604499Y-39604499D01*
X90526147Y-39699972D01*
X90468404Y-39808000D01*
X84114362Y-39808000D01*
X84154459Y-39732984D01*
X84220332Y-39515831D01*
X84242574Y-39290000D01*
X84220332Y-39064169D01*
X84154459Y-38847016D01*
X84047488Y-38646886D01*
X83903528Y-38471472D01*
X83728114Y-38327512D01*
X83527984Y-38220541D01*
X83310831Y-38154668D01*
X83141595Y-38138000D01*
X82578405Y-38138000D01*
X82409169Y-38154668D01*
X82192016Y-38220541D01*
X81991886Y-38327512D01*
X81816472Y-38471472D01*
X81672512Y-38646886D01*
X81565541Y-38847016D01*
X81499668Y-39064169D01*
X81477426Y-39290000D01*
X81499668Y-39515831D01*
X81565541Y-39732984D01*
X81668175Y-39925000D01*
X81565541Y-40117016D01*
X81499668Y-40334169D01*
X81477426Y-40560000D01*
X81499668Y-40785831D01*
X81565541Y-41002984D01*
X81672512Y-41203114D01*
X81816472Y-41378528D01*
X81991886Y-41522488D01*
X82192016Y-41629459D01*
X82409169Y-41695332D01*
X82578405Y-41712000D01*
X83141595Y-41712000D01*
X83310831Y-41695332D01*
X83527984Y-41629459D01*
X83728114Y-41522488D01*
X83903528Y-41378528D01*
X83958127Y-41312000D01*
X90419967Y-41312000D01*
X90419967Y-41750000D01*
X90432073Y-41872913D01*
X90467925Y-41991103D01*
X90526147Y-42100028D01*
X90604499Y-42195501D01*
X90699972Y-42273853D01*
X90808897Y-42332075D01*
X90927087Y-42367927D01*
X91050000Y-42380033D01*
X92750000Y-42380033D01*
X92872913Y-42367927D01*
X92991103Y-42332075D01*
X93100028Y-42273853D01*
X93195501Y-42195501D01*
X93273853Y-42100028D01*
X93332075Y-41991103D01*
X93367927Y-41872913D01*
X93380033Y-41750000D01*
X93380033Y-40050000D01*
X93367927Y-39927087D01*
X93332075Y-39808897D01*
X93273853Y-39699972D01*
X93195501Y-39604499D01*
X93100028Y-39526147D01*
X92991103Y-39467925D01*
X92906525Y-39442269D01*
X93047261Y-39301533D01*
X93208901Y-39059622D01*
X93320240Y-38790825D01*
X93377000Y-38505472D01*
X93377000Y-38214528D01*
X93320240Y-37929175D01*
X93208901Y-37660378D01*
X93047261Y-37418467D01*
X92841533Y-37212739D01*
X92599622Y-37051099D01*
X92330825Y-36939760D01*
X92045472Y-36883000D01*
X91754528Y-36883000D01*
X91469175Y-36939760D01*
X91200378Y-37051099D01*
X90958467Y-37212739D01*
X90752739Y-37418467D01*
X90626097Y-37608000D01*
X90261489Y-37608000D01*
X85137867Y-32484379D01*
X85114317Y-32455683D01*
X84999810Y-32361710D01*
X84869170Y-32291882D01*
X84727418Y-32248881D01*
X84616938Y-32238000D01*
X84616935Y-32238000D01*
X84580000Y-32234362D01*
X84543065Y-32238000D01*
X84354469Y-32238000D01*
X84473425Y-32059970D01*
X84580046Y-31802565D01*
X84587426Y-31765462D01*
X84672647Y-31971202D01*
X84806927Y-32172167D01*
X84977833Y-32343073D01*
X85178798Y-32477353D01*
X85402097Y-32569847D01*
X85639151Y-32617000D01*
X85880849Y-32617000D01*
X86117903Y-32569847D01*
X86341202Y-32477353D01*
X86542167Y-32343073D01*
X86713073Y-32172167D01*
X86847353Y-31971202D01*
X86939847Y-31747903D01*
X86987000Y-31510849D01*
X86987000Y-31269151D01*
X86939847Y-31032097D01*
X86847353Y-30808798D01*
X86786016Y-30717000D01*
X90316472Y-30717000D01*
X89842907Y-31033425D01*
%TA.AperFunction,Conductor*%
D26*
G36*
X89842907Y-31033425D02*
G01*
X89393425Y-31482907D01*
X89040270Y-32011442D01*
X88797012Y-32598719D01*
X88673000Y-33222168D01*
X88673000Y-33857832D01*
X88797012Y-34481281D01*
X89040270Y-35068558D01*
X89393425Y-35597093D01*
X89842907Y-36046575D01*
X90371442Y-36399730D01*
X90958719Y-36642988D01*
X91582168Y-36767000D01*
X92217832Y-36767000D01*
X92841281Y-36642988D01*
X93428558Y-36399730D01*
X93957093Y-36046575D01*
X94406575Y-35597093D01*
X94723001Y-35123527D01*
X94723000Y-48363000D01*
X94186687Y-48363000D01*
X94152075Y-48248897D01*
X94093853Y-48139972D01*
X94015501Y-48044499D01*
X93920028Y-47966147D01*
X93811103Y-47907925D01*
X93692913Y-47872073D01*
X93570000Y-47859967D01*
X89570000Y-47859967D01*
X89447087Y-47872073D01*
X89328897Y-47907925D01*
X89219972Y-47966147D01*
X89124499Y-48044499D01*
X89046147Y-48139972D01*
X88987925Y-48248897D01*
X88953313Y-48363000D01*
X57150488Y-48363000D01*
X57504195Y-48009293D01*
X57680694Y-48044400D01*
X57959306Y-48044400D01*
X58232565Y-47990046D01*
X58489970Y-47883425D01*
X58721628Y-47728636D01*
X58918636Y-47531628D01*
X59073425Y-47299970D01*
X59090000Y-47259955D01*
X59106575Y-47299970D01*
X59261364Y-47531628D01*
X59458372Y-47728636D01*
X59690030Y-47883425D01*
X59947435Y-47990046D01*
X60220694Y-48044400D01*
X60499306Y-48044400D01*
X60772565Y-47990046D01*
X61029970Y-47883425D01*
X61261628Y-47728636D01*
X61458636Y-47531628D01*
X61613425Y-47299970D01*
X61630000Y-47259955D01*
X61646575Y-47299970D01*
X61801364Y-47531628D01*
X61998372Y-47728636D01*
X62230030Y-47883425D01*
X62487435Y-47990046D01*
X62760694Y-48044400D01*
X63039306Y-48044400D01*
X63312565Y-47990046D01*
X63569970Y-47883425D01*
X63801628Y-47728636D01*
X63998636Y-47531628D01*
X64153425Y-47299970D01*
X64170000Y-47259955D01*
X64186575Y-47299970D01*
X64341364Y-47531628D01*
X64538372Y-47728636D01*
X64770030Y-47883425D01*
X65027435Y-47990046D01*
X65300694Y-48044400D01*
X65579306Y-48044400D01*
X65852565Y-47990046D01*
X66109970Y-47883425D01*
X66341628Y-47728636D01*
X66538636Y-47531628D01*
X66693425Y-47299970D01*
X66710000Y-47259955D01*
X66726575Y-47299970D01*
X66881364Y-47531628D01*
X67078372Y-47728636D01*
X67310030Y-47883425D01*
X67567435Y-47990046D01*
X67840694Y-48044400D01*
X68119306Y-48044400D01*
X68392565Y-47990046D01*
X68649970Y-47883425D01*
X68881628Y-47728636D01*
X69078636Y-47531628D01*
X69233425Y-47299970D01*
X69250000Y-47259955D01*
X69266575Y-47299970D01*
X69421364Y-47531628D01*
X69618372Y-47728636D01*
X69850030Y-47883425D01*
X70107435Y-47990046D01*
X70380694Y-48044400D01*
X70659306Y-48044400D01*
X70932565Y-47990046D01*
X71189970Y-47883425D01*
X71421628Y-47728636D01*
X71618636Y-47531628D01*
X71773425Y-47299970D01*
X71790000Y-47259955D01*
X71806575Y-47299970D01*
X71961364Y-47531628D01*
X72158372Y-47728636D01*
X72390030Y-47883425D01*
X72647435Y-47990046D01*
X72920694Y-48044400D01*
X73199306Y-48044400D01*
X73472565Y-47990046D01*
X73729970Y-47883425D01*
X73961628Y-47728636D01*
X74158636Y-47531628D01*
X74313425Y-47299970D01*
X74330000Y-47259955D01*
X74346575Y-47299970D01*
X74501364Y-47531628D01*
X74698372Y-47728636D01*
X74930030Y-47883425D01*
X75187435Y-47990046D01*
X75460694Y-48044400D01*
X75739306Y-48044400D01*
X76012565Y-47990046D01*
X76269970Y-47883425D01*
X76501628Y-47728636D01*
X76698636Y-47531628D01*
X76853425Y-47299970D01*
X76870000Y-47259955D01*
X76886575Y-47299970D01*
X77041364Y-47531628D01*
X77238372Y-47728636D01*
X77470030Y-47883425D01*
X77727435Y-47990046D01*
X78000694Y-48044400D01*
X78279306Y-48044400D01*
X78552565Y-47990046D01*
X78809970Y-47883425D01*
X79041628Y-47728636D01*
X79238636Y-47531628D01*
X79393425Y-47299970D01*
X79410000Y-47259955D01*
X79426575Y-47299970D01*
X79581364Y-47531628D01*
X79778372Y-47728636D01*
X80010030Y-47883425D01*
X80267435Y-47990046D01*
X80540694Y-48044400D01*
X80819306Y-48044400D01*
X81092565Y-47990046D01*
X81349970Y-47883425D01*
X81581628Y-47728636D01*
X81778636Y-47531628D01*
X81933425Y-47299970D01*
X81950000Y-47259955D01*
X81966575Y-47299970D01*
X82121364Y-47531628D01*
X82318372Y-47728636D01*
X82550030Y-47883425D01*
X82807435Y-47990046D01*
X83080694Y-48044400D01*
X83359306Y-48044400D01*
X83632565Y-47990046D01*
X83889970Y-47883425D01*
X84121628Y-47728636D01*
X84318636Y-47531628D01*
X84473425Y-47299970D01*
X84580046Y-47042565D01*
X84587426Y-47005462D01*
X84672647Y-47211202D01*
X84806927Y-47412167D01*
X84977833Y-47583073D01*
X85178798Y-47717353D01*
X85402097Y-47809847D01*
X85639151Y-47857000D01*
X85880849Y-47857000D01*
X86117903Y-47809847D01*
X86341202Y-47717353D01*
X86542167Y-47583073D01*
X86713073Y-47412167D01*
X86847353Y-47211202D01*
X86939847Y-46987903D01*
X86987000Y-46750849D01*
X86987000Y-46509151D01*
X86939847Y-46272097D01*
X86847353Y-46048798D01*
X86713073Y-45847833D01*
X86542167Y-45676927D01*
X86341202Y-45542647D01*
X86117903Y-45450153D01*
X85880849Y-45403000D01*
X85639151Y-45403000D01*
X85402097Y-45450153D01*
X85178798Y-45542647D01*
X84977833Y-45676927D01*
X84806927Y-45847833D01*
X84672647Y-46048798D01*
X84587426Y-46254538D01*
X84580046Y-46217435D01*
X84473425Y-45960030D01*
X84318636Y-45728372D01*
X84121628Y-45531364D01*
X83889970Y-45376575D01*
X83632565Y-45269954D01*
X83359306Y-45215600D01*
X83080694Y-45215600D01*
X82904196Y-45250707D01*
X79240425Y-41586937D01*
X79314591Y-41475938D01*
X79422162Y-41216241D01*
X79477000Y-40940547D01*
X79477000Y-40659453D01*
X79422162Y-40383759D01*
X79314591Y-40124062D01*
X79158424Y-39890340D01*
X78959660Y-39691576D01*
X78802000Y-39586232D01*
X78802000Y-39013768D01*
X78959660Y-38908424D01*
X79158424Y-38709660D01*
X79314591Y-38475938D01*
X79422162Y-38216241D01*
X79477000Y-37940547D01*
X79477000Y-37659453D01*
X79422162Y-37383759D01*
X79314591Y-37124062D01*
X79158424Y-36890340D01*
X78959660Y-36691576D01*
X78725938Y-36535409D01*
X78466241Y-36427838D01*
X78190547Y-36373000D01*
X77909453Y-36373000D01*
X77633759Y-36427838D01*
X77374062Y-36535409D01*
X77140340Y-36691576D01*
X76941576Y-36890340D01*
X76785409Y-37124062D01*
X76677838Y-37383759D01*
X76623000Y-37659453D01*
X76623000Y-37940547D01*
X76677838Y-38216241D01*
X76785409Y-38475938D01*
X76941576Y-38709660D01*
X77140340Y-38908424D01*
X77298000Y-39013769D01*
X77298001Y-39586231D01*
X77140340Y-39691576D01*
X76941576Y-39890340D01*
X76785409Y-40124062D01*
X76677838Y-40383759D01*
X76623000Y-40659453D01*
X76623000Y-40940547D01*
X76677838Y-41216241D01*
X76785409Y-41475938D01*
X76941576Y-41709660D01*
X77140340Y-41908424D01*
X77374062Y-42064591D01*
X77633759Y-42172162D01*
X77714792Y-42188280D01*
X80742111Y-45215600D01*
X80540694Y-45215600D01*
X80364196Y-45250707D01*
X78637838Y-43524350D01*
X78614288Y-43495654D01*
X78499781Y-43401681D01*
X78369141Y-43331853D01*
X78227389Y-43288852D01*
X78116909Y-43277971D01*
X78116906Y-43277971D01*
X78079971Y-43274333D01*
X78043036Y-43277971D01*
X67402961Y-43277971D01*
X67524591Y-43095938D01*
X67632162Y-42836241D01*
X67687000Y-42560547D01*
X67687000Y-42279453D01*
X67632162Y-42003759D01*
X67524591Y-41744062D01*
X67368424Y-41510340D01*
X67169660Y-41311576D01*
X66935938Y-41155409D01*
X66676241Y-41047838D01*
X66400547Y-40993000D01*
X66119453Y-40993000D01*
X65843759Y-41047838D01*
X65584062Y-41155409D01*
X65350340Y-41311576D01*
X65151576Y-41510340D01*
X64995409Y-41744062D01*
X64887838Y-42003759D01*
X64833000Y-42279453D01*
X64833000Y-42560547D01*
X64887838Y-42836241D01*
X64995409Y-43095938D01*
X65117039Y-43277971D01*
X64402961Y-43277971D01*
X64524591Y-43095938D01*
X64632162Y-42836241D01*
X64687000Y-42560547D01*
X64687000Y-42279453D01*
X64632162Y-42003759D01*
X64524591Y-41744062D01*
X64368424Y-41510340D01*
X64169660Y-41311576D01*
X63935938Y-41155409D01*
X63676241Y-41047838D01*
X63400547Y-40993000D01*
X63119453Y-40993000D01*
X62843759Y-41047838D01*
X62584062Y-41155409D01*
X62367680Y-41299990D01*
X62368118Y-41299170D01*
X62411119Y-41157418D01*
X62422000Y-41046938D01*
X62422000Y-41046936D01*
X62425638Y-41010001D01*
X62422000Y-40973065D01*
X62422000Y-40659453D01*
X69003000Y-40659453D01*
X69003000Y-40940547D01*
X69057838Y-41216241D01*
X69165409Y-41475938D01*
X69321576Y-41709660D01*
X69520340Y-41908424D01*
X69754062Y-42064591D01*
X70013759Y-42172162D01*
X70289453Y-42227000D01*
X70570547Y-42227000D01*
X70846241Y-42172162D01*
X71105938Y-42064591D01*
X71339660Y-41908424D01*
X71538424Y-41709660D01*
X71694591Y-41475938D01*
X71802162Y-41216241D01*
X71857000Y-40940547D01*
X71857000Y-40659453D01*
X71802162Y-40383759D01*
X71694591Y-40124062D01*
X71538424Y-39890340D01*
X71339660Y-39691576D01*
X71105938Y-39535409D01*
X70846241Y-39427838D01*
X70570547Y-39373000D01*
X70289453Y-39373000D01*
X70013759Y-39427838D01*
X69754062Y-39535409D01*
X69520340Y-39691576D01*
X69321576Y-39890340D01*
X69165409Y-40124062D01*
X69057838Y-40383759D01*
X69003000Y-40659453D01*
X62422000Y-40659453D01*
X62422000Y-35956305D01*
X62584062Y-36064591D01*
X62843759Y-36172162D01*
X63119453Y-36227000D01*
X63400547Y-36227000D01*
X63676241Y-36172162D01*
X63935938Y-36064591D01*
X64169660Y-35908424D01*
X64368424Y-35709660D01*
X64524591Y-35475938D01*
X64632162Y-35216241D01*
X64687000Y-34940547D01*
X64687000Y-34659453D01*
X64632162Y-34383759D01*
X64527431Y-34130919D01*
X64869992Y-34473480D01*
X64833000Y-34659453D01*
X64833000Y-34940547D01*
X64887838Y-35216241D01*
X64995409Y-35475938D01*
X65151576Y-35709660D01*
X65350340Y-35908424D01*
X65584062Y-36064591D01*
X65843759Y-36172162D01*
X66119453Y-36227000D01*
X66400547Y-36227000D01*
X66676241Y-36172162D01*
X66935938Y-36064591D01*
X67169660Y-35908424D01*
X67368424Y-35709660D01*
X67524591Y-35475938D01*
X67632162Y-35216241D01*
X67687000Y-34940547D01*
X67687000Y-34659453D01*
X67632162Y-34383759D01*
X67524591Y-34124062D01*
X67368424Y-33890340D01*
X67220084Y-33742000D01*
X84268512Y-33742000D01*
X89392137Y-38865626D01*
X89415683Y-38894317D01*
X89530190Y-38988290D01*
X89660830Y-39058118D01*
X89802582Y-39101119D01*
X89913062Y-39112000D01*
X89913064Y-39112000D01*
X89950000Y-39115638D01*
X89986935Y-39112000D01*
X90626097Y-39112000D01*
X90752739Y-39301533D01*
X90893475Y-39442269D01*
X90808897Y-39467925D01*
X90699972Y-39526147D01*
X90604499Y-39604499D01*
X90526147Y-39699972D01*
X90468404Y-39808000D01*
X84114362Y-39808000D01*
X84154459Y-39732984D01*
X84220332Y-39515831D01*
X84242574Y-39290000D01*
X84220332Y-39064169D01*
X84154459Y-38847016D01*
X84047488Y-38646886D01*
X83903528Y-38471472D01*
X83728114Y-38327512D01*
X83527984Y-38220541D01*
X83310831Y-38154668D01*
X83141595Y-38138000D01*
X82578405Y-38138000D01*
X82409169Y-38154668D01*
X82192016Y-38220541D01*
X81991886Y-38327512D01*
X81816472Y-38471472D01*
X81672512Y-38646886D01*
X81565541Y-38847016D01*
X81499668Y-39064169D01*
X81477426Y-39290000D01*
X81499668Y-39515831D01*
X81565541Y-39732984D01*
X81668175Y-39925000D01*
X81565541Y-40117016D01*
X81499668Y-40334169D01*
X81477426Y-40560000D01*
X81499668Y-40785831D01*
X81565541Y-41002984D01*
X81672512Y-41203114D01*
X81816472Y-41378528D01*
X81991886Y-41522488D01*
X82192016Y-41629459D01*
X82409169Y-41695332D01*
X82578405Y-41712000D01*
X83141595Y-41712000D01*
X83310831Y-41695332D01*
X83527984Y-41629459D01*
X83728114Y-41522488D01*
X83903528Y-41378528D01*
X83958127Y-41312000D01*
X90419967Y-41312000D01*
X90419967Y-41750000D01*
X90432073Y-41872913D01*
X90467925Y-41991103D01*
X90526147Y-42100028D01*
X90604499Y-42195501D01*
X90699972Y-42273853D01*
X90808897Y-42332075D01*
X90927087Y-42367927D01*
X91050000Y-42380033D01*
X92750000Y-42380033D01*
X92872913Y-42367927D01*
X92991103Y-42332075D01*
X93100028Y-42273853D01*
X93195501Y-42195501D01*
X93273853Y-42100028D01*
X93332075Y-41991103D01*
X93367927Y-41872913D01*
X93380033Y-41750000D01*
X93380033Y-40050000D01*
X93367927Y-39927087D01*
X93332075Y-39808897D01*
X93273853Y-39699972D01*
X93195501Y-39604499D01*
X93100028Y-39526147D01*
X92991103Y-39467925D01*
X92906525Y-39442269D01*
X93047261Y-39301533D01*
X93208901Y-39059622D01*
X93320240Y-38790825D01*
X93377000Y-38505472D01*
X93377000Y-38214528D01*
X93320240Y-37929175D01*
X93208901Y-37660378D01*
X93047261Y-37418467D01*
X92841533Y-37212739D01*
X92599622Y-37051099D01*
X92330825Y-36939760D01*
X92045472Y-36883000D01*
X91754528Y-36883000D01*
X91469175Y-36939760D01*
X91200378Y-37051099D01*
X90958467Y-37212739D01*
X90752739Y-37418467D01*
X90626097Y-37608000D01*
X90261489Y-37608000D01*
X85137867Y-32484379D01*
X85114317Y-32455683D01*
X84999810Y-32361710D01*
X84869170Y-32291882D01*
X84727418Y-32248881D01*
X84616938Y-32238000D01*
X84616935Y-32238000D01*
X84580000Y-32234362D01*
X84543065Y-32238000D01*
X84354469Y-32238000D01*
X84473425Y-32059970D01*
X84580046Y-31802565D01*
X84587426Y-31765462D01*
X84672647Y-31971202D01*
X84806927Y-32172167D01*
X84977833Y-32343073D01*
X85178798Y-32477353D01*
X85402097Y-32569847D01*
X85639151Y-32617000D01*
X85880849Y-32617000D01*
X86117903Y-32569847D01*
X86341202Y-32477353D01*
X86542167Y-32343073D01*
X86713073Y-32172167D01*
X86847353Y-31971202D01*
X86939847Y-31747903D01*
X86987000Y-31510849D01*
X86987000Y-31269151D01*
X86939847Y-31032097D01*
X86847353Y-30808798D01*
X86786016Y-30717000D01*
X90316472Y-30717000D01*
X89842907Y-31033425D01*
G37*
%TD.AperFunction*%
D25*
X55871882Y-45710831D02*
X55828881Y-45852583D01*
X55822801Y-45914317D01*
X55814362Y-46000000D01*
X55818000Y-46036936D01*
X55818001Y-46932100D01*
X54992112Y-47757990D01*
X54755440Y-47757990D01*
X54752000Y-47723065D01*
X54752000Y-46071488D01*
X55141498Y-45681991D01*
X55887297Y-45681991D01*
X55871882Y-45710831D01*
%TA.AperFunction,Conductor*%
D26*
G36*
X55871882Y-45710831D02*
G01*
X55828881Y-45852583D01*
X55822801Y-45914317D01*
X55814362Y-46000000D01*
X55818000Y-46036936D01*
X55818001Y-46932100D01*
X54992112Y-47757990D01*
X54755440Y-47757990D01*
X54752000Y-47723065D01*
X54752000Y-46071488D01*
X55141498Y-45681991D01*
X55887297Y-45681991D01*
X55871882Y-45710831D01*
G37*
%TD.AperFunction*%
D25*
X51486575Y-30720030D02*
X51379954Y-30977435D01*
X51325600Y-31250694D01*
X51325600Y-31529306D01*
X51379954Y-31802565D01*
X51486575Y-32059970D01*
X51605531Y-32238000D01*
X48794469Y-32238000D01*
X48913425Y-32059970D01*
X49020046Y-31802565D01*
X49074400Y-31529306D01*
X49074400Y-31250694D01*
X49020046Y-30977435D01*
X48913425Y-30720030D01*
X48911400Y-30717000D01*
X51488600Y-30717000D01*
X51486575Y-30720030D01*
%TA.AperFunction,Conductor*%
D26*
G36*
X51486575Y-30720030D02*
G01*
X51379954Y-30977435D01*
X51325600Y-31250694D01*
X51325600Y-31529306D01*
X51379954Y-31802565D01*
X51486575Y-32059970D01*
X51605531Y-32238000D01*
X48794469Y-32238000D01*
X48913425Y-32059970D01*
X49020046Y-31802565D01*
X49074400Y-31529306D01*
X49074400Y-31250694D01*
X49020046Y-30977435D01*
X48913425Y-30720030D01*
X48911400Y-30717000D01*
X51488600Y-30717000D01*
X51486575Y-30720030D01*
G37*
%TD.AperFunction*%
%TD*%
M02*
