%TF.GenerationSoftware,KiCad,Pcbnew,(5.1.8)-1*%
%TF.CreationDate,2021-09-15T23:56:30-04:00*%
%TF.ProjectId,PiRaceHat,50695261-6365-4486-9174-2e6b69636164,rev?*%
%TF.SameCoordinates,Original*%
%TF.FileFunction,Soldermask,Bot*%
%TF.FilePolarity,Negative*%
%FSLAX46Y46*%
G04 Gerber Fmt 4.6, Leading zero omitted, Abs format (unit mm)*
G04 Created by KiCad (PCBNEW (5.1.8)-1) date 2021-09-15 23:56:30*
%MOMM*%
%LPD*%
G01*
G04 APERTURE LIST*
%ADD10R,1.700000X1.700000*%
%ADD11O,1.700000X1.700000*%
%ADD12C,3.000000*%
%ADD13R,3.000000X3.000000*%
%ADD14C,6.200000*%
%ADD15R,1.500000X1.050000*%
%ADD16O,1.500000X1.050000*%
%ADD17R,1.905000X2.000000*%
%ADD18O,1.905000X2.000000*%
%ADD19R,1.574800X1.574800*%
%ADD20C,1.574800*%
%ADD21C,1.200000*%
%ADD22R,1.600000X1.600000*%
%ADD23C,1.600000*%
%ADD24O,1.600000X1.600000*%
G04 APERTURE END LIST*
D10*
%TO.C,J3*%
X56550000Y-78730000D03*
D11*
X54010000Y-78730000D03*
X51470000Y-78730000D03*
X48930000Y-78730000D03*
X46390000Y-78730000D03*
%TD*%
D10*
%TO.C,J2*%
X38610000Y-73050000D03*
D11*
X41150000Y-73050000D03*
X43690000Y-73050000D03*
X46230000Y-73050000D03*
X48770000Y-73050000D03*
X51310000Y-73050000D03*
%TD*%
D12*
%TO.C,J7*%
X91580000Y-70670000D03*
D13*
X91580000Y-65590000D03*
%TD*%
D12*
%TO.C,J8*%
X91570000Y-45410000D03*
D13*
X91570000Y-50490000D03*
%TD*%
D12*
%TO.C,J9*%
X85230000Y-70670000D03*
D13*
X85230000Y-65590000D03*
%TD*%
D14*
%TO.C,*%
X33900000Y-82540000D03*
%TD*%
%TO.C,*%
X33900000Y-33540000D03*
%TD*%
%TO.C,*%
X91900000Y-33540000D03*
%TD*%
%TO.C,*%
X91900000Y-82540000D03*
%TD*%
D10*
%TO.C,J1*%
X87030000Y-81270000D03*
D11*
X87030000Y-83810000D03*
X84490000Y-81270000D03*
X84490000Y-83810000D03*
X81950000Y-81270000D03*
X81950000Y-83810000D03*
X79410000Y-81270000D03*
X79410000Y-83810000D03*
X76870000Y-81270000D03*
X76870000Y-83810000D03*
X74330000Y-81270000D03*
X74330000Y-83810000D03*
X71790000Y-81270000D03*
X71790000Y-83810000D03*
X69250000Y-81270000D03*
X69250000Y-83810000D03*
X66710000Y-81270000D03*
X66710000Y-83810000D03*
X64170000Y-81270000D03*
X64170000Y-83810000D03*
X61630000Y-81270000D03*
X61630000Y-83810000D03*
X59090000Y-81270000D03*
X59090000Y-83810000D03*
X56550000Y-81270000D03*
X56550000Y-83810000D03*
X54010000Y-81270000D03*
X54010000Y-83810000D03*
X51470000Y-81270000D03*
X51470000Y-83810000D03*
X48930000Y-81270000D03*
X48930000Y-83810000D03*
X46390000Y-81270000D03*
X46390000Y-83810000D03*
X43850000Y-81270000D03*
X43850000Y-83810000D03*
X41310000Y-81270000D03*
X41310000Y-83810000D03*
X38770000Y-81270000D03*
X38770000Y-83810000D03*
%TD*%
D10*
%TO.C,J4*%
X76750000Y-72660000D03*
D11*
X76750000Y-75200000D03*
X76750000Y-77740000D03*
%TD*%
D10*
%TO.C,J5*%
X69540000Y-72660000D03*
D11*
X69540000Y-75200000D03*
X69540000Y-77740000D03*
%TD*%
%TO.C,J6*%
X73140000Y-77740000D03*
X73140000Y-75200000D03*
D10*
X73140000Y-72660000D03*
%TD*%
%TO.C,J10*%
X62340000Y-77710000D03*
D11*
X62340000Y-75170000D03*
X62340000Y-72630000D03*
X62340000Y-70090000D03*
%TD*%
%TO.C,J11*%
X65940000Y-70090000D03*
X65940000Y-72630000D03*
X65940000Y-75170000D03*
D10*
X65940000Y-77710000D03*
%TD*%
%TO.C,J12*%
X91900000Y-40900000D03*
D11*
X91900000Y-38360000D03*
%TD*%
%TO.C,J13*%
X93790000Y-75040000D03*
D10*
X93790000Y-77580000D03*
%TD*%
D15*
%TO.C,Q1*%
X53030000Y-34210000D03*
D16*
X53030000Y-36750000D03*
X53030000Y-35480000D03*
%TD*%
%TO.C,Q2*%
X53030000Y-40940000D03*
X53030000Y-42210000D03*
D15*
X53030000Y-39670000D03*
%TD*%
D16*
%TO.C,Q3*%
X82860000Y-39290000D03*
X82860000Y-40560000D03*
D15*
X82860000Y-38020000D03*
%TD*%
D17*
%TO.C,Q4*%
X84200000Y-76630000D03*
D18*
X86740000Y-76630000D03*
X89280000Y-76630000D03*
%TD*%
D19*
%TO.C,U1*%
X42580000Y-46630000D03*
D20*
X45120000Y-46630000D03*
X47660000Y-46630000D03*
X50200000Y-46630000D03*
X52740000Y-46630000D03*
X55280000Y-46630000D03*
X57820000Y-46630000D03*
X60360000Y-46630000D03*
X62900000Y-46630000D03*
X65440000Y-46630000D03*
X67980000Y-46630000D03*
X70520000Y-46630000D03*
X73060000Y-46630000D03*
X75600000Y-46630000D03*
X78140000Y-46630000D03*
X80680000Y-46630000D03*
X83220000Y-46630000D03*
X83220000Y-31390000D03*
X80680000Y-31390000D03*
X78140000Y-31390000D03*
X75600000Y-31390000D03*
X73060000Y-31390000D03*
X70520000Y-31390000D03*
X67980000Y-31390000D03*
X65440000Y-31390000D03*
X62900000Y-31390000D03*
X60360000Y-31390000D03*
X57820000Y-31390000D03*
X55280000Y-31390000D03*
X52740000Y-31390000D03*
X50200000Y-31390000D03*
X47660000Y-31390000D03*
X45120000Y-31390000D03*
X42580000Y-31390000D03*
D21*
X85760000Y-46630000D03*
X85760000Y-31390000D03*
X40040000Y-46630000D03*
X40040000Y-31390000D03*
%TD*%
D22*
%TO.C,C1*%
X42880000Y-78300000D03*
D23*
X40880000Y-78300000D03*
%TD*%
%TO.C,C2*%
X34270000Y-39960000D03*
D22*
X36270000Y-39960000D03*
%TD*%
D24*
%TO.C,R1*%
X60260000Y-42420000D03*
D23*
X60260000Y-34800000D03*
%TD*%
%TO.C,R2*%
X57260000Y-34800000D03*
D24*
X57260000Y-42420000D03*
%TD*%
D23*
%TO.C,R3*%
X66260000Y-34800000D03*
D24*
X66260000Y-42420000D03*
%TD*%
%TO.C,R4*%
X63260000Y-42420000D03*
D23*
X63260000Y-34800000D03*
%TD*%
%TO.C,R5*%
X70430000Y-37800000D03*
D24*
X78050000Y-37800000D03*
%TD*%
%TO.C,R6*%
X78050000Y-40800000D03*
D23*
X70430000Y-40800000D03*
%TD*%
M02*
