M48
; DRILL file {KiCad (5.1.8)-1} date 12/28/21 16:16:19
; FORMAT={-:-/ absolute / inch / decimal}
; #@! TF.CreationDate,2021-12-28T16:16:19-05:00
; #@! TF.GenerationSoftware,Kicad,Pcbnew,(5.1.8)-1
; #@! TF.FileFunction,Plated,1,2,PTH
FMAT,2
INCH
T1C0.0157
T2C0.0295
T3C0.0315
T4C0.0360
T5C0.0394
T6C0.0433
T7C0.0984
%
G90
G05
T1
X1.4616Y-1.887
X1.687Y-2.1663
X1.6972Y-2.777
X1.787Y-2.1663
X2.0411Y-2.152
X2.0437Y-2.777
X2.1366Y-2.6981
X2.2587Y-2.8805
X2.2941Y-2.8805
X2.3303Y-2.8805
X2.5209Y-2.8811
X2.5244Y-2.7976
X2.6478Y-2.8091
T2
X2.0878Y-1.5618
X2.0878Y-1.6118
X2.0878Y-1.6618
X2.0878Y-1.3469
X2.0878Y-1.3969
X2.0878Y-1.4469
X3.2622Y-1.4969
X3.2622Y-1.5469
X3.2622Y-1.5969
T3
X2.6087Y-1.3701
X2.6087Y-1.6701
X2.7728Y-1.6063
X3.0728Y-1.6063
X2.2543Y-1.3701
X2.2543Y-1.6701
X2.4906Y-1.3701
X2.4906Y-1.6701
X1.3492Y-1.5732
X1.428Y-1.5732
X2.3724Y-1.3701
X2.3724Y-1.6701
X1.3504Y-2.6681
X1.4291Y-2.6681
X2.7728Y-1.4882
X3.0728Y-1.4882
T4
X1.6764Y-1.2358
X1.6764Y-1.8358
X1.7764Y-1.2358
X1.7764Y-1.8358
X1.8764Y-1.2358
X1.8764Y-1.8358
X1.9764Y-1.2358
X1.9764Y-1.8358
X2.0764Y-1.2358
X2.0764Y-1.8358
X2.1764Y-1.2358
X2.1764Y-1.8358
X2.2764Y-1.2358
X2.2764Y-1.8358
X2.3764Y-1.2358
X2.3764Y-1.8358
X2.4764Y-1.2358
X2.4764Y-1.8358
X2.5764Y-1.2358
X2.5764Y-1.8358
X2.6764Y-1.2358
X2.6764Y-1.8358
X2.7764Y-1.2358
X2.7764Y-1.8358
X2.8764Y-1.2358
X2.8764Y-1.8358
X2.9764Y-1.2358
X2.9764Y-1.8358
X3.0764Y-1.2358
X3.0764Y-1.8358
X3.1764Y-1.2358
X3.1764Y-1.8358
X3.2764Y-1.2358
X3.2764Y-1.8358
T5
X3.6181Y-1.5102
X3.6181Y-1.6102
X1.5264Y-3.1996
X1.5264Y-3.2996
X1.6264Y-3.1996
X1.6264Y-3.2996
X1.7264Y-3.1996
X1.7264Y-3.2996
X1.8264Y-3.1996
X1.8264Y-3.2996
X1.9264Y-3.1996
X1.9264Y-3.2996
X2.0264Y-3.1996
X2.0264Y-3.2996
X2.1264Y-3.1996
X2.1264Y-3.2996
X2.2264Y-3.1996
X2.2264Y-3.2996
X2.3264Y-3.1996
X2.3264Y-3.2996
X2.4264Y-3.1996
X2.4264Y-3.2996
X2.5264Y-3.1996
X2.5264Y-3.2996
X2.6264Y-3.1996
X2.6264Y-3.2996
X2.7264Y-3.1996
X2.7264Y-3.2996
X2.8264Y-3.1996
X2.8264Y-3.2996
X2.9264Y-3.1996
X2.9264Y-3.2996
X3.0264Y-3.1996
X3.0264Y-3.2996
X3.1264Y-3.1996
X3.1264Y-3.2996
X3.2264Y-3.1996
X3.2264Y-3.2996
X3.3264Y-3.1996
X3.3264Y-3.2996
X3.4264Y-3.1996
X3.4264Y-3.2996
X2.4543Y-2.7594
X2.4543Y-2.8594
X2.4543Y-2.9594
X2.4543Y-3.0594
X2.8795Y-2.8606
X2.8795Y-2.9606
X2.8795Y-3.0606
X1.6024Y-2.615
X1.7024Y-2.615
X1.8024Y-2.615
X1.9024Y-2.615
X2.0024Y-2.615
X1.2866Y-1.9819
X1.3866Y-1.9819
X1.4866Y-1.9819
X1.5866Y-1.9819
X1.6866Y-1.9819
X1.7866Y-1.9819
X1.8866Y-1.9819
X1.9866Y-1.9819
X2.0866Y-1.9819
X2.1866Y-1.9819
X2.7378Y-2.8606
X2.7378Y-2.9606
X2.7378Y-3.0606
X3.6925Y-2.9543
X3.6925Y-3.0543
X3.0217Y-2.8606
X3.0217Y-2.9606
X3.0217Y-3.0606
X2.5961Y-2.7594
X2.5961Y-2.8594
X2.5961Y-2.9594
X2.5961Y-3.0594
T6
X3.315Y-3.0169
X3.415Y-3.0169
X3.515Y-3.0169
T7
X3.3555Y-2.5665
X3.3555Y-2.7665
X3.6051Y-1.7878
X3.6051Y-1.9878
X3.6055Y-2.5665
X3.6055Y-2.7665
T0
M30
